<svg width="21" height="21" viewBox="0 0 21 21" fill="none" xmlns="http://www.w3.org/2000/svg">
<g clip-path="url(#clip0)">
<path d="M0.00446488 14.572C0.00446488 17.333 2.24251 19.571 5.0034 19.571C7.76433 19.571 10.0024 17.333 10.0024 14.572C10.0024 11.8111 7.76433 9.57312 5.0034 9.57312C4.43599 9.57312 3.89285 9.67203 3.38439 9.84634C4.50936 3.39432 9.5407 -0.766505 4.87666 2.65793C-0.295049 6.45526 -0.00107401 14.4193 0.00471289 14.5652C0.00471289 14.5675 0.00446488 14.5695 0.00446488 14.572Z" fill="#494337"/>
<path d="M11.0015 14.572C11.0015 17.333 13.2396 19.571 16.0005 19.571C18.7614 19.571 20.9995 17.333 20.9995 14.572C20.9995 11.8111 18.7614 9.57312 16.0005 9.57312C15.433 9.57312 14.8899 9.67203 14.3815 9.84634C15.5064 3.39432 20.5378 -0.766505 15.8737 2.65793C10.702 6.45526 10.996 14.4193 11.0018 14.5652C11.0018 14.5675 11.0015 14.5695 11.0015 14.572Z" fill="#494337"/>
</g>
<defs>
<clipPath id="clip0">
<rect width="21" height="21" fill="white"/>
</clipPath>
</defs>
</svg>
