<svg width="49" height="49" viewBox="0 0 49 49" fill="none" xmlns="http://www.w3.org/2000/svg">
<g filter="url(#filter0_d)">
<rect x="6.61328" y="7.45703" width="34.8658" height="27.1179" fill="#807C73"/>
<rect x="4.03125" y="1" width="40.0311" height="40.0311" rx="5" fill="#807C73"/>
<path d="M23.676 7.00062C22.832 7.00537 21.9857 7.0553 21.1321 7.15754C19.4998 7.35489 17.8821 7.68301 16.3297 8.38442C13.8608 9.49954 12.11 11.3922 11.6022 14.1431C11.387 15.3034 11.2129 16.4804 11.1138 17.6644C10.9227 19.9636 11.0412 22.27 11.7038 24.5359C12.2261 26.3215 13.1885 27.9264 14.874 28.9679C15.5873 29.4077 16.528 29.6217 17.0188 29.8452C17.1567 29.9094 17.1905 29.9475 17.1978 29.957C17.205 29.9641 17.2244 29.9807 17.222 30.1234C17.205 31.5785 17.222 34.3937 17.222 34.3937L17.2244 35H18.3295L18.5084 34.8288C18.5084 34.8288 21.3159 32.173 22.3315 31.0792C22.5153 30.8843 22.6096 30.7749 22.6289 30.763C22.6458 30.7511 22.6168 30.744 22.8054 30.7392C24.1378 30.7131 25.4678 30.6631 26.7978 30.5918C28.5509 30.4967 30.3379 30.3326 32.0572 29.6265C33.554 29.0107 34.8042 28.0049 35.5611 26.4975C36.3349 24.952 36.7484 23.3138 36.9031 21.6185C37.1595 18.7962 37.07 15.9692 36.2768 13.1825C35.8101 11.5491 34.8719 10.1677 33.4331 9.19283C31.7114 8.02777 29.7696 7.59028 27.869 7.31209C26.7591 7.15041 25.6419 7.04342 24.5199 7.01013C24.2394 7.003 23.9589 6.99824 23.676 7.00062ZM24.486 8.22749C25.5524 8.25603 26.6188 8.35827 27.6876 8.51519C29.5206 8.78387 31.2495 9.19283 32.7319 10.1962C33.9337 11.0094 34.6833 12.1078 35.0847 13.5083C35.8246 16.1142 35.919 18.7843 35.6699 21.5115C35.5272 23.0831 35.1476 24.5644 34.4487 25.9601C33.8321 27.1917 32.8697 27.974 31.5784 28.5042C30.0792 29.12 28.4493 29.2841 26.7325 29.3768C25.417 29.4482 24.0991 29.4957 22.7812 29.5219C22.45 29.529 22.1259 29.6146 21.8962 29.781C21.6665 29.9475 21.5625 30.102 21.4198 30.2542C20.6944 31.0341 19.2484 32.406 18.4601 33.1573C18.4552 32.249 18.448 31.1506 18.4601 30.1377C18.4649 29.8262 18.3923 29.5076 18.211 29.2556C18.0296 29.0035 17.7806 28.8514 17.5412 28.742C16.8423 28.4234 15.9283 28.1809 15.5317 27.936C14.1461 27.08 13.3602 25.7961 12.8935 24.1983C12.2817 22.1083 12.1657 19.9565 12.347 17.7667C12.4437 16.6302 12.6106 15.4913 12.821 14.3619C13.2611 11.9818 14.6442 10.4839 16.8447 9.49003C18.2352 8.86233 19.7199 8.55323 21.2844 8.3654C22.3508 8.237 23.4172 8.19658 24.486 8.22749ZM24.7472 11.2614C24.237 11.2614 23.7412 11.3185 23.26 11.4231C22.9288 11.4992 22.7184 11.8249 22.7933 12.153C22.8683 12.4811 23.202 12.6856 23.5357 12.6119C23.925 12.5239 24.3313 12.4788 24.7472 12.4788C27.7699 12.4788 30.2073 14.8754 30.2073 17.8451C30.2073 18.2565 30.1614 18.6559 30.0719 19.0411C29.997 19.3669 30.2049 19.695 30.5386 19.7687C30.8723 19.8424 31.2036 19.6355 31.2786 19.3074C31.3874 18.8366 31.4454 18.3492 31.4454 17.8451C31.4454 14.2168 28.4397 11.2614 24.7472 11.2614ZM18.5713 12.4811C18.4697 12.4764 18.3657 12.4835 18.2569 12.5073C17.1325 12.7522 16.0153 13.5535 15.9839 14.9848C16.0153 15.1845 16.0129 15.3985 16.0879 15.5792C16.4554 16.4637 16.7746 17.3767 17.2341 18.2137C19.4708 22.2795 22.8538 25.1065 27.1653 26.9017C27.6804 27.1157 28.2124 27.1608 28.7323 26.9468C29.448 26.6544 30.055 26.2026 30.4588 25.5535C31.0126 24.6619 31.0198 24.0437 30.1082 23.3851C29.5109 22.9524 28.9233 22.5077 28.3188 22.0845C27.3975 21.4426 26.4012 21.3308 25.7144 22.4578C25.6782 22.5149 25.625 22.5624 25.579 22.61C25.226 22.9785 24.7931 23.0689 24.3337 22.8834C22.5902 22.1773 21.2433 21.0384 20.4308 19.3431C19.952 18.3468 20.0826 17.8475 20.9773 17.1842C21.0668 17.12 21.1514 17.051 21.2336 16.9773C21.6254 16.6254 21.7294 16.2069 21.4972 15.7338C20.9725 14.6543 20.2736 13.6914 19.3886 12.8616C19.1492 12.6381 18.876 12.4978 18.5713 12.4811ZM24.7375 13.0874C24.4643 13.0874 24.1934 13.1088 23.9274 13.154C23.7026 13.1825 23.5115 13.33 23.4293 13.5368C23.3471 13.7461 23.3882 13.9814 23.5333 14.1526C23.6808 14.3214 23.9129 14.3999 24.1354 14.3524C24.3289 14.3214 24.532 14.3048 24.7375 14.3048C26.7494 14.3048 28.3647 15.8931 28.3647 17.8713C28.3647 18.0734 28.3478 18.2731 28.3164 18.4633C28.268 18.6821 28.3478 18.9103 28.5195 19.0554C28.6936 19.198 28.933 19.2385 29.1458 19.1576C29.3561 19.0768 29.5061 18.8889 29.5351 18.6678C29.581 18.4063 29.6028 18.14 29.6028 17.8713C29.6028 15.2368 27.4168 13.0874 24.7375 13.0874ZM24.6505 14.9135C24.428 14.9111 24.22 15.0252 24.1064 15.2155C23.9952 15.4057 23.9952 15.6387 24.1064 15.8289C24.22 16.0191 24.428 16.1332 24.6505 16.1309C25.683 16.1309 26.5076 16.9416 26.5076 17.9569C26.5052 18.1756 26.6212 18.3801 26.8147 18.4919C27.0081 18.6012 27.2451 18.6012 27.4386 18.4919C27.632 18.3801 27.7481 18.1756 27.7457 17.9569C27.7457 16.283 26.3528 14.9135 24.6505 14.9135Z" fill="white"/>
</g>
<defs>
<filter id="filter0_d" x="0.03125" y="0" width="48.0311" height="48.0311" filterUnits="userSpaceOnUse" color-interpolation-filters="sRGB">
<feFlood flood-opacity="0" result="BackgroundImageFix"/>
<feColorMatrix in="SourceAlpha" type="matrix" values="0 0 0 0 0 0 0 0 0 0 0 0 0 0 0 0 0 0 127 0"/>
<feOffset dy="3"/>
<feGaussianBlur stdDeviation="2"/>
<feColorMatrix type="matrix" values="0 0 0 0 0 0 0 0 0 0 0 0 0 0 0 0 0 0 0.3 0"/>
<feBlend mode="normal" in2="BackgroundImageFix" result="effect1_dropShadow"/>
<feBlend mode="normal" in="SourceGraphic" in2="effect1_dropShadow" result="shape"/>
</filter>
</defs>
</svg>
