<svg width="49" height="49" viewBox="0 0 49 49" fill="none" xmlns="http://www.w3.org/2000/svg">
<g filter="url(#filter0_d)">
<rect x="6.64453" y="7.45703" width="34.8658" height="27.1179" fill="#807C73"/>
<rect x="4.0625" y="1" width="40.0311" height="40.0311" rx="5" fill="#807C73"/>
<path d="M24 7C16.8271 7 11 12.8271 11 20C11 22.3056 11.6323 24.4572 12.6868 26.3355L11.021 32.2824C10.9944 32.3776 10.9932 32.4781 11.0175 32.5739C11.0418 32.6696 11.0908 32.7574 11.1596 32.8283C11.2284 32.8992 11.3146 32.9509 11.4096 32.9781C11.5046 33.0053 11.6051 33.0072 11.701 32.9834L17.9018 31.4468C19.7239 32.4195 21.7915 33 24 33C31.1729 33 37 27.1729 37 20C37 12.8271 31.1729 7 24 7ZM24 8.13043C30.5619 8.13043 35.8696 13.4381 35.8696 20C35.8696 26.5619 30.5619 31.8696 24 31.8696C21.8963 31.8696 19.926 31.3211 18.2131 30.3627C18.0879 30.2927 17.9407 30.273 17.8014 30.3075L12.3711 31.6532L13.8272 26.4581C13.848 26.3846 13.8538 26.3078 13.8441 26.2321C13.8344 26.1564 13.8095 26.0834 13.7709 26.0176C12.73 24.2525 12.1304 22.1988 12.1304 20C12.1304 13.4381 17.4381 8.13043 24 8.13043ZM19.2762 13.2174C18.9139 13.2174 18.3965 13.3522 17.9714 13.8102C17.7161 14.0853 16.6522 15.1219 16.6522 16.9443C16.6522 18.8443 17.9699 20.4837 18.1292 20.6944L18.1304 20.6955C18.1152 20.6756 18.3326 20.9904 18.6227 21.3678C18.9128 21.7452 19.3185 22.2409 19.8282 22.7775C20.8476 23.8508 22.2808 25.0912 24.0596 25.8498C24.8788 26.1986 25.5251 26.4092 26.0147 26.5629C26.9221 26.8479 27.7486 26.8045 28.3694 26.7131C28.8341 26.6446 29.3452 26.4215 29.8509 26.1015C30.3566 25.7815 30.8522 25.3835 31.0707 24.779C31.2273 24.3455 31.3069 23.945 31.3357 23.6154C31.3501 23.4506 31.3519 23.3052 31.3412 23.1705C31.3305 23.0359 31.3419 22.9327 31.2165 22.7267C30.9533 22.2947 30.6553 22.2834 30.3443 22.1295C30.1716 22.044 29.6797 21.8038 29.1863 21.5687C28.6935 21.3339 28.2668 21.1259 28.004 21.0322C27.838 20.9725 27.6352 20.8865 27.3427 20.9196C27.0502 20.9527 26.7613 21.1637 26.5932 21.413C26.4337 21.6493 25.792 22.4069 25.5963 22.6296C25.5937 22.628 25.6107 22.6358 25.5334 22.5976C25.2914 22.4778 24.9954 22.376 24.5575 22.145C24.1195 21.9139 23.5717 21.5728 22.9722 21.0443C22.08 20.2588 21.455 19.2715 21.2578 18.9402C21.2711 18.9244 21.2562 18.9436 21.2843 18.9159L21.2854 18.9148C21.4869 18.7163 21.6655 18.4793 21.8164 18.3055C22.0304 18.059 22.1248 17.8417 22.2271 17.6387C22.4309 17.2341 22.3174 16.7889 22.1995 16.5546C22.2076 16.5708 22.1357 16.411 22.0582 16.2278C21.9804 16.0442 21.8814 15.8061 21.7756 15.5522C21.5639 15.0445 21.3277 14.475 21.1872 14.1414C21.0216 13.7485 20.7977 13.4643 20.5049 13.3278C20.2121 13.1912 19.9535 13.2301 19.943 13.2295C19.7341 13.2199 19.5037 13.2174 19.2762 13.2174ZM19.2762 14.3478C19.4942 14.3478 19.709 14.3505 19.8889 14.3589C20.074 14.3681 20.0625 14.3688 20.0269 14.3522C19.9908 14.3354 20.0398 14.3299 20.145 14.5797C20.2826 14.9063 20.5201 15.4778 20.7323 15.9872C20.8385 16.2418 20.9378 16.4809 21.0172 16.6683C21.0965 16.8558 21.1395 16.9604 21.1894 17.0602L21.1905 17.0624C21.2394 17.1589 21.2351 17.0971 21.2181 17.1309C21.0988 17.3676 21.0826 17.4257 20.962 17.5647C20.7783 17.7763 20.5909 18.0124 20.4917 18.1101C20.4049 18.1953 20.2483 18.3281 20.1506 18.5881C20.0526 18.8484 20.0983 19.2056 20.2554 19.4723C20.4646 19.8274 21.1538 20.9492 22.2249 21.8922C22.8994 22.4868 23.5278 22.8803 24.0298 23.1451C24.5318 23.4099 24.9407 23.5646 25.0322 23.6099C25.2494 23.7174 25.4869 23.8009 25.763 23.7677C26.0391 23.7346 26.2771 23.5671 26.4287 23.3957L26.4298 23.3946C26.6314 23.166 27.2307 22.4817 27.5183 22.06C27.5304 22.0642 27.5265 22.0609 27.622 22.0953L27.6231 22.0964C27.6668 22.1119 28.2133 22.3565 28.7006 22.5887C29.1879 22.8209 29.6824 23.0623 29.8432 23.1418C30.0751 23.2566 30.1847 23.3313 30.213 23.3317C30.2149 23.3814 30.2168 23.4353 30.2097 23.5172C30.1898 23.7442 30.1292 24.0584 30.0076 24.3948C29.9481 24.5595 29.6381 24.8991 29.247 25.1466C28.856 25.394 28.3801 25.5688 28.2038 25.5948C27.6739 25.6729 27.0446 25.7014 26.3536 25.4844C25.8745 25.334 25.277 25.1393 24.5034 24.8099C22.9345 24.1408 21.601 23.0022 20.6484 21.9992C20.1722 21.4978 19.7906 21.031 19.5191 20.6778C19.2481 20.3253 19.1298 20.1419 19.0312 20.0121L19.0301 20.011C18.8549 19.7795 17.7826 18.2879 17.7826 16.9443C17.7826 15.5223 18.4431 14.9647 18.8004 14.5797C18.9881 14.3775 19.1932 14.3478 19.2762 14.3478Z" fill="white"/>
</g>
<path d="M21.5 17.5L20 14H19C18.5434 14 17.4453 14.75 17.253 15.3333C17.0621 16.1111 16.7948 17.7833 17.253 18.25C17.8258 18.8333 18.3986 20.5833 18.9714 21.1667L21.2626 23.5C23.8735 25.25 24.1933 25.25 25.0191 25.8333C25.3956 26.0993 27.2363 26.3056 28 26.5L29.6014 25.8333C29.9833 25.25 31 24.55 31 24.0833V22.9167L27.883 21.1667C27.5012 20.9722 27.4487 21.8667 26.9905 22.3333L25.8449 23.5L25.0191 22.9167L22.4081 21.1667L20.6898 18.8333L21.5 17.5Z" fill="white"/>
<defs>
<filter id="filter0_d" x="0.0625" y="0" width="48.0311" height="48.0311" filterUnits="userSpaceOnUse" color-interpolation-filters="sRGB">
<feFlood flood-opacity="0" result="BackgroundImageFix"/>
<feColorMatrix in="SourceAlpha" type="matrix" values="0 0 0 0 0 0 0 0 0 0 0 0 0 0 0 0 0 0 127 0"/>
<feOffset dy="3"/>
<feGaussianBlur stdDeviation="2"/>
<feColorMatrix type="matrix" values="0 0 0 0 0 0 0 0 0 0 0 0 0 0 0 0 0 0 0.3 0"/>
<feBlend mode="normal" in2="BackgroundImageFix" result="effect1_dropShadow"/>
<feBlend mode="normal" in="SourceGraphic" in2="effect1_dropShadow" result="shape"/>
</filter>
</defs>
</svg>
