<svg width="49" height="48" viewBox="0 0 49 48" fill="none" xmlns="http://www.w3.org/2000/svg">
<g filter="url(#filter0_d)">
<rect x="4.99902" y="1.0022" width="39.9976" height="39.9976" rx="8" fill="white"/>
<path d="M29.0875 24.6456C28.4626 24.6456 27.8722 24.9927 27.3169 25.687V21.4941H25.5723V34.3321H27.3169V33.3943C27.8895 34.1064 28.4795 34.4622 29.0875 34.4622C29.7992 34.4622 30.259 34.098 30.4675 33.3686C30.5888 33.0035 30.6498 32.3706 30.6498 31.4674V27.6653C30.6498 26.7456 30.5887 26.1031 30.4675 25.7388C30.259 25.0094 29.7992 24.6456 29.0875 24.6456ZM28.9313 31.5978C28.9313 32.4493 28.6795 32.8734 28.1759 32.8734C27.8807 32.8734 27.5943 32.7348 27.3169 32.4574V26.6239C27.5943 26.3473 27.8807 26.2078 28.1759 26.2078C28.6791 26.2078 28.9313 26.642 28.9313 27.5099V31.5978Z" fill="#494337" fill-opacity="0.7"/>
<path d="M34.6099 24.6445C33.7248 24.6445 33.0299 24.9752 32.5267 25.6342C32.1793 26.102 32.0059 26.8499 32.0059 27.8732V31.2331C32.0059 32.2573 32.1882 33.0029 32.5529 33.4721C33.056 34.1324 33.7593 34.4616 34.6621 34.4616C35.5823 34.4616 36.2766 34.1148 36.7453 33.4199C36.9538 33.1075 37.0839 32.7609 37.1361 32.3781C37.1706 32.136 37.1879 31.7616 37.1879 31.258V31.0239H35.4172C35.4172 31.2151 35.4172 31.4014 35.4172 31.5832C35.4172 31.7651 35.4127 31.9085 35.4043 32.0134C35.3955 32.117 35.3915 32.1781 35.3915 32.1954C35.2875 32.6472 35.0268 32.8717 34.6104 32.8717C34.0199 32.8717 33.7252 32.429 33.7252 31.5444V29.8515H37.1883V27.8729C37.1883 26.8668 37.006 26.1203 36.6417 25.6338C36.1727 24.9752 35.4955 24.6445 34.6099 24.6445ZM35.4433 28.4202H33.7247V27.534C33.7247 26.649 34.0111 26.2068 34.5838 26.2068C35.1569 26.2068 35.4433 26.6494 35.4433 27.534V28.4202Z" fill="#494337" fill-opacity="0.7"/>
<path d="M22.3398 32.0684C21.9579 32.6064 21.5933 32.8751 21.2462 32.8751C21.0028 32.8751 20.8727 32.745 20.8559 32.4843C20.8382 32.4507 20.8298 32.2241 20.8298 31.808V24.7773H19.1113V32.3289C19.1113 32.9892 19.1635 33.457 19.2675 33.7346C19.4238 34.2218 19.7884 34.4639 20.3611 34.4639C21.0033 34.4639 21.6632 34.0731 22.3403 33.2921V34.3338H24.0849V24.7774H22.3403V32.0684H22.3398Z" fill="#494337" fill-opacity="0.7"/>
<path d="M24.6087 14.9581C25.1642 14.9581 25.4421 14.5146 25.4421 13.6295V9.5667C25.4421 8.66428 25.1642 8.21289 24.6087 8.21289C24.0529 8.21289 23.7754 8.66428 23.7754 9.5667V13.6295C23.7754 14.5146 24.0529 14.9581 24.6087 14.9581Z" fill="#494337" fill-opacity="0.7"/>
<path d="M12.8105 23.3171H14.8415V34.3321H16.7685V23.3171H18.8516V21.4941H12.8105V23.3171Z" fill="#494337" fill-opacity="0.7"/>
<path d="M37.4962 1.00195H12.4978C10.4319 1.00195 8.66564 1.73617 7.19852 3.20192C5.73139 4.66998 4.99805 6.43584 4.99805 8.50166V33.4997C4.99805 35.5655 5.73139 37.3323 7.19852 38.7981C8.66521 40.2647 10.4315 40.9994 12.4978 40.9994H37.4962C39.5617 40.9994 41.3279 40.2651 42.795 38.7981C44.2617 37.3323 44.9955 35.5655 44.9955 33.4997V8.50166C44.9955 6.43577 44.2617 4.66991 42.795 3.20192C41.328 1.73617 39.5617 1.00195 37.4962 1.00195ZM28.6165 6.78274H30.3611V13.8651C30.3611 14.282 30.37 14.5081 30.3872 14.5427C30.4045 14.8215 30.5435 14.9596 30.8037 14.9596C31.1507 14.9596 31.5154 14.691 31.8973 14.1519V6.78274H33.6419V16.4174H31.8973V15.3756C31.1852 16.1568 30.5169 16.5476 29.892 16.5476C29.3362 16.5476 28.9631 16.3135 28.7724 15.8447C28.6684 15.5323 28.6162 15.0552 28.6162 14.4126V6.78274H28.6165ZM22.0281 9.90732C22.0281 8.90135 22.2104 8.14544 22.5751 7.64227C23.0437 6.98327 23.7209 6.65264 24.606 6.65264C25.4562 6.65264 26.1333 6.98327 26.6369 7.64227C27.0016 8.14587 27.1836 8.90135 27.1836 9.90732V13.2925C27.1836 14.3339 27.0012 15.0898 26.6369 15.5576C26.1332 16.2179 25.4562 16.5472 24.606 16.5472C23.7209 16.5472 23.0437 16.2175 22.5751 15.5576C22.2104 15.0553 22.0281 14.3002 22.0281 13.2925V9.90732ZM17.3413 3.47592L18.7216 8.55351L20.0493 3.47592H22.0024L19.659 11.1841V16.4175H17.7321V11.1841C17.5409 10.2291 17.1417 8.85796 16.5341 7.06961C16.4124 6.67087 16.2123 6.07159 15.9348 5.27237C15.6569 4.47488 15.4484 3.8756 15.3099 3.47599H17.3413V3.47592ZM38.7983 34.9057C38.6244 35.6533 38.2552 36.2862 37.6913 36.807C37.1271 37.3279 36.4717 37.6319 35.7255 37.7182C33.347 37.9785 29.7707 38.109 24.9972 38.109C20.2227 38.109 16.6468 37.9789 14.2689 37.7182C13.5222 37.6319 12.8669 37.3276 12.303 36.807C11.7387 36.2862 11.3696 35.6537 11.1966 34.9057C10.8492 33.4479 10.6757 31.1908 10.6757 28.1353C10.6757 25.1326 10.8492 22.8754 11.1966 21.365C11.3701 20.602 11.7392 19.9642 12.303 19.4517C12.8669 18.9392 13.5311 18.64 14.295 18.5524C16.6557 18.2921 20.2232 18.1616 24.9976 18.1616C29.7888 18.1616 33.3648 18.2917 35.7259 18.5524C36.4725 18.64 37.1324 18.9387 37.705 19.4517C38.2782 19.9642 38.6513 20.6019 38.8247 21.365C39.1544 22.8064 39.3195 25.0627 39.3195 28.1353C39.3188 31.1908 39.1452 33.4479 38.7983 34.9057Z" fill="#494337" fill-opacity="0.7"/>
</g>
<defs>
<filter id="filter0_d" x="0.998047" y="0.00195312" width="47.9985" height="47.9978" filterUnits="userSpaceOnUse" color-interpolation-filters="sRGB">
<feFlood flood-opacity="0" result="BackgroundImageFix"/>
<feColorMatrix in="SourceAlpha" type="matrix" values="0 0 0 0 0 0 0 0 0 0 0 0 0 0 0 0 0 0 127 0"/>
<feOffset dy="3"/>
<feGaussianBlur stdDeviation="2"/>
<feColorMatrix type="matrix" values="0 0 0 0 0 0 0 0 0 0 0 0 0 0 0 0 0 0 0.3 0"/>
<feBlend mode="normal" in2="BackgroundImageFix" result="effect1_dropShadow"/>
<feBlend mode="normal" in="SourceGraphic" in2="effect1_dropShadow" result="shape"/>
</filter>
</defs>
</svg>
