<svg width="32" height="32" viewBox="0 0 32 32" fill="none" xmlns="http://www.w3.org/2000/svg">
<path d="M15.9995 0C7.16331 0 0 7.16384 0 15.9997C0 24.8355 7.16331 32 15.9995 32C24.8356 32 31.9998 24.8359 31.9998 15.9997C31.9998 7.16341 24.8356 0 15.9995 0ZM23.6798 14.2505L13.1658 24.7637C13.1621 24.7674 13.1591 24.7703 13.1555 24.774L13.0911 24.8384L13.0878 24.8348C12.4946 25.3872 11.7261 25.6628 10.9305 25.6628C9.98155 25.6628 8.99723 25.2758 8.23563 24.5141C7.5584 23.8374 7.15232 22.9632 7.09227 22.0525C7.03275 21.1517 7.31797 20.3206 7.89067 19.6915L7.88491 19.6858L18.2753 9.29536C19.1529 8.4176 20.6443 8.48224 21.6009 9.43861C22.0493 9.88704 22.319 10.4686 22.3591 11.0755C22.4017 11.7151 22.1771 12.3305 21.743 12.7639L13.2848 21.223L12.1109 20.0495L20.5697 11.5901C20.6937 11.4661 20.7105 11.3018 20.7028 11.1861C20.6893 10.9837 20.5886 10.7745 20.4268 10.6126C20.1228 10.3086 19.6749 10.2433 19.4489 10.4695L9.16032 20.7579C8.86347 21.0544 8.71744 21.4755 8.74848 21.943C8.78219 22.4518 9.01685 22.9482 9.40939 23.3407C10.1887 24.1198 11.3443 24.2329 11.9886 23.5941L22.5068 13.0768C22.9967 12.5866 23.239 11.8975 23.1887 11.137C23.1356 10.3349 22.7682 9.55563 22.1549 8.94229C20.9177 7.70539 19.0634 7.54741 18.0204 8.58987L9.31861 17.2913L8.14475 16.1178L16.8465 7.416C18.5363 5.72651 21.4442 5.88416 23.3284 7.76821C24.2267 8.66592 24.765 9.82315 24.845 11.0269C24.9273 12.2719 24.5136 13.4166 23.6798 14.2505Z" fill="#959799"/>
</svg>
