<svg width="62" height="62" viewBox="0 0 62 62" fill="none" xmlns="http://www.w3.org/2000/svg">
<g clip-path="url(#clip0)">
<path d="M13.7143 17.6924H11.4062V30.8462H14.5V19.077L13.7143 17.6924Z" fill="#C4C4C4"/>
<path d="M13.2232 41.2307H11.4062V47.1153L13.4688 46.0769L13.8125 41.8866L13.2232 41.2307Z" fill="#C4C4C4"/>
<path d="M48.7768 41.2307H50.5938V47.1153L48.5312 46.0769L48.1875 41.8866L48.7768 41.2307Z" fill="#C4C4C4"/>
<path d="M51.625 31.5383L10.7187 31.8845H10.0312V41.5768H51.9687V40.8845V33.6153L51.625 31.5383Z" fill="#64775E" fill-opacity="0.7"/>
<path d="M23.4375 35.3464L23.7812 31.8849V31.1925H46.4688C50.9375 31.1925 51.2812 32.5772 51.625 32.5772C51.9 32.5772 51.7396 34.4233 51.625 35.3464L51.2812 36.0387L25.8438 36.3849L23.4375 35.3464Z" fill="#F2E5D1"/>
<path d="M20.6875 24.9618L22.75 29.1156L22.2469 31.1925C21.3834 31.4233 19.5875 31.8849 19.3125 31.8849C18.9688 31.8849 15.875 28.4233 15.875 28.0771C15.875 27.8002 14.9583 24.731 14.5 23.231C15.1875 22.7695 16.6312 21.7772 16.9062 21.5002C17.1813 21.2233 19.5417 23.6925 20.6875 24.9618Z" fill="#F2E5D1"/>
<path d="M53 32.9724C53 31.4839 52.2035 30.1427 50.9215 29.4723C49.6141 28.7885 47.9214 28.4418 45.8902 28.4418H23.8107C23.6517 27.6304 23.2995 26.8932 22.7711 26.2924L19.6399 22.7326C18.8651 21.8517 17.7517 21.3168 16.5049 21.2266L15.9425 21.1859C15.6545 21.1647 15.3619 21.2063 15.081 21.3026V19.4208C15.081 18.7616 14.8095 18.1663 14.3756 17.7445C14.8156 17.2051 15.081 16.5114 15.081 15.7556C15.081 14.0409 13.717 12.646 12.0406 12.646C10.3641 12.646 9 14.041 9 15.7557C9 16.5116 9.26537 17.2051 9.70546 17.7446C9.27148 18.1665 9 18.7617 9 19.4209V47.4748C9 47.9601 9.38474 48.3537 9.85938 48.3537H12.8255C13.2688 48.3537 13.6393 48.0089 13.6811 47.5575C13.7835 46.4507 14.3557 43.4111 15.7735 42.048H18.0747C18.5493 42.048 18.934 41.6544 18.934 41.1691C18.934 40.6837 18.5493 40.2901 18.0747 40.2901L10.7187 40.2901V32.5525L22.1893 32.5523V34.8426C22.1893 36.1977 23.2672 37.3002 24.5922 37.3002H50.5971C50.8278 37.3002 51.06 37.2659 51.2812 37.1988V40.2901H46.5455L46.5433 40.2902H21.3415C20.8668 40.2902 20.5366 40.7157 20.5366 41.2011C20.5366 41.6864 20.8668 42.0242 21.3415 42.0242L46.2265 42.048C47.6387 43.4074 48.2147 46.4499 48.319 47.5576C48.3608 48.009 48.7312 48.3538 49.1746 48.3538H52.1406C52.6153 48.3538 53 47.9602 53 47.4749V32.9724ZM15.0831 24.1764C15.0959 23.8019 15.0457 23.4149 15.3474 23.1395C15.651 22.8625 16.0151 22.9533 16.3836 22.98C17.1955 23.0388 17.8797 23.3597 18.362 23.9082L21.4932 27.4681C22.0007 28.0451 22.2442 28.8493 22.1786 29.7323C22.1534 30.0722 22.1594 30.3736 21.8793 30.6135C21.6233 30.8327 21.3454 30.7918 21.0373 30.7824C20.1717 30.7559 19.4155 30.4235 18.908 29.8465L15.7769 26.2866C15.2704 25.7107 15.057 24.941 15.0831 24.1764ZM10.7188 30.7946V19.4209C10.7188 19.1145 10.9625 18.8652 11.262 18.8652H12.8188C13.1184 18.8652 13.3621 19.1145 13.3621 19.4209V30.7945L10.7188 30.7946ZM15.0809 28.1235L17.4303 30.7946H15.0809V28.1235ZM12.0405 14.4039C12.7692 14.4039 13.3622 15.0103 13.3622 15.7557C13.3622 16.5011 12.7693 17.1074 12.0405 17.1074C11.3116 17.1074 10.7188 16.5011 10.7188 15.7557C10.7188 15.0103 11.3116 14.4039 12.0405 14.4039ZM12.0767 46.596H10.7188V42.0481H13.6004C12.6704 43.6051 12.2498 45.5312 12.0767 46.596ZM24.5923 35.5425C24.2151 35.5425 23.9083 35.2286 23.9083 34.8429L23.9079 30.1996H45.8902C47.6466 30.1996 49.0762 30.4815 50.139 31.0373C50.8436 31.4057 51.2813 32.1472 51.2813 32.9724V34.8395C51.2813 34.8407 51.2811 34.8418 51.2811 34.843C51.2811 35.2287 50.9742 35.5426 50.597 35.5426L24.5923 35.5425ZM49.9234 46.596C49.7502 45.5312 49.3296 43.6052 48.3997 42.0481H51.2813V46.596H49.9234Z" fill="#494337"/>
</g>
<defs>
<clipPath id="clip0">
<rect width="44" height="45" fill="white" transform="translate(9 8)"/>
</clipPath>
</defs>
</svg>
