<svg width="76" height="76" viewBox="0 0 76 76" fill="none" xmlns="http://www.w3.org/2000/svg">
<g clip-path="url(#clip0)" filter="url(#filter0_d)">
<path d="M54.0695 38.0011H37.998V21.9297H51.2123C52.7909 21.9297 54.0695 23.2083 54.0695 24.7868V38.0011Z" fill="#454545" fill-opacity="0.41"/>
<path d="M37.9972 38.0004H21.9258V24.7861C21.9258 23.2075 23.2044 21.929 24.7829 21.929H37.9972V38.0004Z" fill="#807C73"/>
<path d="M37.9972 54.0719H24.7829C23.2044 54.0719 21.9258 52.7933 21.9258 51.2148V38.0005H37.9972V54.0719Z" fill="#454545" fill-opacity="0.41"/>
<path d="M51.2123 54.0712H37.998V37.9998H54.0695V51.214C54.0695 52.7926 52.7909 54.0712 51.2123 54.0712Z" fill="#807C73"/>
<path d="M51.2126 55.1434H24.784C22.6169 55.1434 20.8555 53.382 20.8555 51.2148V24.7862C20.8555 22.6191 22.6169 20.8577 24.784 20.8577H51.2126C53.3798 20.8577 55.1412 22.6191 55.1412 24.7862V51.2148C55.1412 53.382 53.3798 55.1434 51.2126 55.1434ZM24.784 23.0005C23.7998 23.0005 22.9983 23.802 22.9983 24.7862V51.2148C22.9983 52.1991 23.7998 53.0005 24.784 53.0005H51.2126C52.1969 53.0005 52.9983 52.1991 52.9983 51.2148V24.7862C52.9983 23.802 52.1969 23.0005 51.2126 23.0005H24.784Z" fill="#494337"/>
<path d="M37.9992 55.1434C37.4077 55.1434 36.9277 54.6634 36.9277 54.0719V21.9291C36.9277 21.3377 37.4077 20.8577 37.9992 20.8577C38.5906 20.8577 39.0706 21.3377 39.0706 21.9291V54.0719C39.0706 54.6634 38.5906 55.1434 37.9992 55.1434Z" fill="#494337" fill-opacity="0.8"/>
<path d="M54.0698 39.0718H21.9269C21.3355 39.0718 20.8555 38.5918 20.8555 38.0004C20.8555 37.409 21.3355 36.929 21.9269 36.929H54.0698C54.6612 36.929 55.1412 37.409 55.1412 38.0004C55.1412 38.5918 54.6612 39.0718 54.0698 39.0718Z" fill="#494337" fill-opacity="0.8"/>
<path d="M29.4269 33.7149C28.8355 33.7149 28.3555 33.2349 28.3555 32.6435V27.6435C28.3555 27.052 28.8355 26.572 29.4269 26.572C30.0183 26.572 30.4983 27.052 30.4983 27.6435V32.6435C30.4983 33.2349 30.0183 33.7149 29.4269 33.7149Z" fill="white"/>
<path d="M31.9269 31.2149H26.9269C26.3355 31.2149 25.8555 30.7349 25.8555 30.1434C25.8555 29.552 26.3355 29.072 26.9269 29.072H31.9269C32.5183 29.072 32.9983 29.552 32.9983 30.1434C32.9983 30.7349 32.5183 31.2149 31.9269 31.2149Z" fill="white"/>
<path d="M27.6414 49.4292C27.3671 49.4292 27.0928 49.3249 26.8842 49.1149C26.4657 48.6964 26.4657 48.0178 26.8842 47.5992L30.4557 44.0278C30.8742 43.6092 31.5528 43.6092 31.9714 44.0278C32.39 44.4464 32.39 45.1249 31.9714 45.5435L28.4 49.1149C28.19 49.3249 27.9157 49.4292 27.6414 49.4292Z" fill="white"/>
<path d="M31.2128 49.4292C30.9385 49.4292 30.6642 49.3249 30.4557 49.1149L26.8842 45.5435C26.4657 45.1249 26.4657 44.4464 26.8842 44.0278C27.3028 43.6092 27.9814 43.6092 28.4 44.0278L31.9714 47.5992C32.39 48.0178 32.39 48.6964 31.9714 49.1149C31.7614 49.3249 31.4871 49.4292 31.2128 49.4292Z" fill="white"/>
<path d="M49.7832 30.8577H43.3546C42.7632 30.8577 42.2832 30.3777 42.2832 29.7863C42.2832 29.1948 42.7632 28.7148 43.3546 28.7148H49.7832C50.3746 28.7148 50.8546 29.1948 50.8546 29.7863C50.8546 30.3777 50.3746 30.8577 49.7832 30.8577Z" fill="white"/>
<path d="M49.7832 49.4292H43.3546C42.7632 49.4292 42.2832 48.9492 42.2832 48.3578C42.2832 47.7664 42.7632 47.2864 43.3546 47.2864H49.7832C50.3746 47.2864 50.8546 47.7664 50.8546 48.3578C50.8546 48.9492 50.3746 49.4292 49.7832 49.4292Z" fill="white"/>
<path d="M49.7832 45.1436H43.3546C42.7632 45.1436 42.2832 44.6636 42.2832 44.0722C42.2832 43.4807 42.7632 43.0007 43.3546 43.0007H49.7832C50.3746 43.0007 50.8546 43.4807 50.8546 44.0722C50.8546 44.6636 50.3746 45.1436 49.7832 45.1436Z" fill="white"/>
</g>
<defs>
<filter id="filter0_d" x="0.855469" y="0.857666" width="74.2857" height="74.2857" filterUnits="userSpaceOnUse" color-interpolation-filters="sRGB">
<feFlood flood-opacity="0" result="BackgroundImageFix"/>
<feColorMatrix in="SourceAlpha" type="matrix" values="0 0 0 0 0 0 0 0 0 0 0 0 0 0 0 0 0 0 127 0"/>
<feOffset/>
<feGaussianBlur stdDeviation="10"/>
<feColorMatrix type="matrix" values="0 0 0 0 1 0 0 0 0 1 0 0 0 0 1 0 0 0 0.38 0"/>
<feBlend mode="normal" in2="BackgroundImageFix" result="effect1_dropShadow"/>
<feBlend mode="normal" in="SourceGraphic" in2="effect1_dropShadow" result="shape"/>
</filter>
<clipPath id="clip0">
<rect width="34.2857" height="34.2857" fill="white" transform="translate(20.8555 20.8577)"/>
</clipPath>
</defs>
</svg>
