<svg width="100" height="100" viewBox="0 0 100 100" fill="none" xmlns="http://www.w3.org/2000/svg">
<g clip-path="url(#clip0)">
<rect x="13.8613" y="26.4768" width="24.7077" height="39.3077" fill="#DBB680" fill-opacity="0.73"/>
<rect x="11.252" y="65.3679" width="54.6323" height="7.48114" fill="#2D5524" fill-opacity="0.56"/>
<rect x="7.04883" y="19.4116" width="63.0372" height="7.48114" fill="#2D5524" fill-opacity="0.56"/>
<path d="M68.594 18.9031H8.54447C7.11303 18.9031 5.95 20.0874 5.95 21.5415V24.7769C5.95 25.7403 6.46178 26.5829 7.22224 27.0434V64.8962C7.22224 65.8596 7.73401 66.7022 8.49447 67.1627V72.0141C8.49447 72.7557 9.08563 73.3583 9.81671 73.3583H67.3218C68.0527 73.3583 68.644 72.7557 68.644 72.0141V67.1627C69.4043 66.7022 69.9161 65.8597 69.9161 64.8963V27.0434C70.6766 26.5829 71.1883 25.7403 71.1883 24.7769V21.5415C71.1885 20.0873 70.0254 18.9031 68.594 18.9031ZM68.544 21.5913V24.7268H8.59447L8.59422 21.5913H68.544ZM67.2718 64.8462H39.8915V55.8372C39.8915 55.0957 39.3002 54.4931 38.5692 54.4931C37.8383 54.4931 37.247 55.0957 37.247 55.8372V64.8462H9.86671V27.4152H37.247V44.1896C37.247 44.9312 37.8382 45.5338 38.5692 45.5338C39.3003 45.5338 39.8915 44.9312 39.8915 44.1896V27.4152H67.2718V64.8462ZM11.1389 70.6699V67.5345H65.9995V70.6699H11.1389Z" fill="#494337" stroke="#494337" stroke-width="0.1"/>
<path d="M43.659 45.5339H48.7479C49.4788 45.5339 50.0701 44.9313 50.0701 44.1897V31.248C50.0701 30.5064 49.4788 29.9039 48.7479 29.9039H43.659C42.928 29.9039 42.3367 30.5064 42.3367 31.248V44.1897C42.3367 44.9313 42.928 45.5339 43.659 45.5339ZM44.9812 32.5921H47.4257V42.8454H44.9812V32.5921Z" fill="#494337" stroke="#494337" stroke-width="0.1"/>
<path d="M33.4803 29.9036H28.3914C27.6603 29.9036 27.0691 30.5062 27.0691 31.2478V44.1895C27.0691 44.9311 27.6603 45.5337 28.3914 45.5337H33.4803C34.2114 45.5337 34.8026 44.9311 34.8026 44.1895V31.2478C34.8026 30.5062 34.2113 29.9036 33.4803 29.9036ZM32.1581 42.8454H29.7136V32.5921H32.1581V42.8454Z" fill="#494337" stroke="#494337" stroke-width="0.1"/>
<path d="M38.5691 48.6692C37.838 48.6692 37.2469 49.2722 37.2469 50.0138C37.2469 50.7554 37.838 51.358 38.5691 51.358C39.3002 51.358 39.8913 50.7554 39.8913 50.0138V50.0129C39.8913 49.2713 39.3002 48.6692 38.5691 48.6692Z" fill="#494337" stroke="#494337" stroke-width="0.1"/>
</g>
<path d="M48.1152 82.0693V57.9231V56.8H54.2922C54.8537 56.8 50.9229 81.5077 50.3614 81.5077C49.9122 81.5077 48.6768 81.8821 48.1152 82.0693Z" fill="white"/>
<path d="M67.7676 82.6308V57.9481V56.8H74.4468C75.0541 56.8 70.8036 82.0568 70.1964 82.0568C69.7106 82.0568 68.3748 82.4395 67.7676 82.6308Z" fill="white"/>
<path d="M48.1152 82.0693V57.9231V56.8H54.2922C54.8537 56.8 50.9229 81.5077 50.3614 81.5077C49.9122 81.5077 48.6768 81.8821 48.1152 82.0693Z" fill="white"/>
<path d="M67.0191 16.8933H88.9191L85.9991 32.9533L83.0791 49.5V55.34H59.2324H48.5257L48.0391 51.9333L49.9857 50.4733L61.6657 49.5L67.0191 16.8933Z" fill="#B1928B"/>
<path d="M91.0478 16.4866C90.7301 16.1086 90.3334 15.8049 89.8857 15.5967C89.438 15.3884 88.9501 15.2808 88.4564 15.2813H69.0928C68.2858 15.2798 67.5044 15.5643 66.8873 16.0843C66.2701 16.6042 65.8572 17.326 65.7217 18.1215L60.5084 48.3594H51.2031C49.9935 48.3608 48.8338 48.8419 47.9785 49.6972C47.1231 50.5526 46.642 51.7123 46.6406 52.9219V82.5781C46.6406 82.8806 46.7608 83.1708 46.9747 83.3847C47.1886 83.5986 47.4787 83.7188 47.7812 83.7188H51.2031C51.4801 83.7188 51.7476 83.618 51.9557 83.4353C52.1638 83.2525 52.2983 83.0003 52.3341 82.7257L55.6265 57.4844H66.0312V82.5781C66.0312 82.8806 66.1514 83.1708 66.3653 83.3847C66.5792 83.5986 66.8693 83.7188 67.1719 83.7188H70.5937C70.8707 83.7188 71.1382 83.618 71.3463 83.4353C71.5544 83.2525 71.6889 83.0003 71.7247 82.7257L75.0171 57.4844H77.5766L80.869 82.7257C80.9048 83.0003 81.0393 83.2525 81.2474 83.4353C81.4555 83.618 81.723 83.7188 82 83.7188H85.4218C85.7244 83.7188 86.0145 83.5986 86.2284 83.3847C86.4423 83.1708 86.5625 82.8806 86.5625 82.5781L86.5629 49.5977L91.7959 19.2463C91.8803 18.7596 91.857 18.2601 91.7278 17.7834C91.5985 17.3067 91.3664 16.864 91.0478 16.4866ZM67.9698 18.5088C68.0149 18.2438 68.1525 18.0033 68.3581 17.8301C68.5636 17.6568 68.8239 17.562 69.0928 17.5625H85.2525C85.2353 17.6127 85.2216 17.6646 85.2066 17.716C85.1976 17.7469 85.1871 17.7771 85.1789 17.8084C85.1544 17.9021 85.1332 17.9973 85.1165 18.0944L82.5077 33.2269L79.8989 48.3594H62.8232L67.9698 18.5088ZM48.9219 52.9219C48.9226 52.3171 49.1631 51.7372 49.5908 51.3096C50.0185 50.8819 50.5983 50.6413 51.2031 50.6406H67.1719C67.7767 50.6413 68.3565 50.8819 68.7842 51.3096C69.2118 51.7372 69.4524 52.3171 69.4531 52.9219V55.2031H48.9219V52.9219ZM50.2016 81.4375H48.9219V57.4844H53.3259L50.2016 81.4375ZM69.5922 81.4375H68.3125V57.4844H72.7165L69.5922 81.4375ZM84.2812 81.4375H83.0015L79.8772 57.4844H84.2812V81.4375ZM89.5478 18.8589L84.2982 49.3062C84.2872 49.3702 84.2816 49.435 84.2816 49.5V55.2031H71.7344V52.9219C71.735 52.1206 71.5232 51.3334 71.1205 50.6406H80.8598C81.1287 50.6408 81.3891 50.5459 81.5948 50.3726C81.8005 50.1993 81.9383 49.9588 81.9838 49.6938L87.3646 18.4816C87.4086 18.2241 87.5424 17.9904 87.7422 17.8222C87.9421 17.6539 88.1951 17.5619 88.4564 17.5625C88.6178 17.5626 88.7772 17.5979 88.9236 17.666C89.0699 17.7341 89.1996 17.8334 89.3036 17.9569C89.4075 18.0803 89.4833 18.225 89.5255 18.3808C89.5677 18.5367 89.5753 18.6998 89.5478 18.8589Z" fill="#494337"/>
<defs>
<clipPath id="clip0">
<rect width="59.9551" height="66.2615" fill="white" transform="translate(6 13)"/>
</clipPath>
</defs>
</svg>
