<svg width="62" height="62" viewBox="0 0 62 62" fill="none" xmlns="http://www.w3.org/2000/svg">
<path d="M25.3402 35.2461H22.8633V35.5999V51.8769L25.3402 35.2461Z" fill="#C4C4C4"/>
<path d="M44.3005 35.579L41.9688 35.8037L42.002 36.1484L43.5302 52.0056L44.7995 52.0056L44.3005 35.579Z" fill="#C4C4C4"/>
<path d="M32.2693 35.58L29.9375 35.8047L29.9707 36.1494L31.499 52.0065L32.7683 52.0065L32.2693 35.58Z" fill="#C4C4C4"/>
<path d="M32.1572 10.0156H18.3572L20.1972 20.1356L22.0372 30.5623V34.2423H37.0639H43.8105L44.1172 32.0956L42.8905 31.1756L35.5305 30.5623L32.1572 10.0156Z" fill="#B1928B"/>
<path d="M17.0174 9.75951C17.2176 9.52137 17.4676 9.32997 17.7497 9.19876C18.0318 9.06754 18.3392 8.9997 18.6504 9H30.8521C31.3606 8.99909 31.853 9.17836 32.2418 9.50601C32.6307 9.83366 32.8909 10.2885 32.9763 10.7898L36.2614 29.8438H42.125C42.8872 29.8446 43.618 30.1478 44.157 30.6868C44.696 31.2258 44.9991 31.9565 45 32.7188V51.4063C45 51.5969 44.9243 51.7797 44.7895 51.9145C44.6547 52.0493 44.4719 52.125 44.2813 52.125H42.125C41.9505 52.125 41.7819 52.0615 41.6508 51.9464C41.5196 51.8312 41.4349 51.6723 41.4123 51.4992L39.3377 35.5938H32.7813V51.4063C32.7813 51.5969 32.7055 51.7797 32.5707 51.9145C32.436 52.0493 32.2531 52.125 32.0625 52.125H29.9063C29.7317 52.125 29.5632 52.0615 29.432 51.9464C29.3009 51.8312 29.2161 51.6723 29.1936 51.4992L27.119 35.5938H25.5061L23.4315 51.4992C23.4089 51.6723 23.3241 51.8312 23.193 51.9464C23.0619 52.0615 22.8933 52.125 22.7188 52.125H20.5625C20.3719 52.125 20.1891 52.0493 20.0543 51.9145C19.9195 51.7797 19.8438 51.5969 19.8438 51.4063L19.8435 30.6241L16.546 11.4985C16.4928 11.1918 16.5075 10.8771 16.5889 10.5767C16.6704 10.2763 16.8166 9.99735 17.0174 9.75951ZM31.5597 11.0338C31.5313 10.8668 31.4446 10.7153 31.315 10.6061C31.1855 10.497 31.0215 10.4372 30.8521 10.4375H20.6692C20.6801 10.4691 20.6887 10.5019 20.6982 10.5342C20.7038 10.5537 20.7104 10.5727 20.7156 10.5925C20.731 10.6515 20.7444 10.7115 20.7549 10.7727L22.3988 20.3082L24.0427 29.8438H34.8027L31.5597 11.0338ZM43.5625 32.7188C43.5621 32.3376 43.4105 31.9723 43.141 31.7028C42.8715 31.4333 42.5061 31.2817 42.125 31.2813H32.0625C31.6814 31.2817 31.316 31.4333 31.0465 31.7028C30.777 31.9723 30.6254 32.3376 30.625 32.7188V34.1563H43.5625V32.7188ZM42.7561 50.6875H43.5625V35.5938H40.7873L42.7561 50.6875ZM30.5374 50.6875H31.3438V35.5938H28.5686L30.5374 50.6875ZM21.2813 50.6875H22.0877L24.0564 35.5938H21.2813V50.6875ZM17.9626 11.2544L21.2706 30.4404C21.2775 30.4807 21.281 30.5216 21.281 30.5625V34.1563H29.1875V32.7188C29.1871 32.2138 29.3206 31.7178 29.5743 31.2813H23.4373C23.2678 31.2814 23.1037 31.2215 22.9741 31.1123C22.8445 31.0032 22.7576 30.8516 22.7289 30.6846L19.3383 11.0167C19.3106 10.8544 19.2263 10.7072 19.1004 10.6011C18.9744 10.4951 18.815 10.4371 18.6504 10.4375C18.5486 10.4375 18.4482 10.4598 18.3559 10.5027C18.2637 10.5456 18.182 10.6082 18.1165 10.686C18.051 10.7638 18.0033 10.855 17.9767 10.9532C17.9501 11.0514 17.9453 11.1542 17.9626 11.2544Z" fill="#494337"/>
</svg>
