<svg width="100" height="100" viewBox="0 0 100 100" fill="none" xmlns="http://www.w3.org/2000/svg">
<g clip-path="url(#clip0)">
<path d="M15.5625 53.196V59.4947H23.4375V53.196C22.2825 53.8654 20.9438 54.2447 19.5 54.2447C18.0562 54.2447 16.7175 53.8654 15.5625 53.196Z" fill="#85BAD8"/>
<path d="M19.5 38.4948C15.1556 38.4948 11.625 42.0241 11.625 46.3698C11.625 49.2848 13.2131 51.8297 15.5625 53.1961C16.7175 53.8654 18.0562 54.2447 19.5 54.2447C20.9438 54.2447 22.2825 53.8654 23.4375 53.1961C25.7869 51.8297 27.375 49.2848 27.375 46.3698C27.375 42.0254 23.8444 38.4948 19.5 38.4948V38.4948Z" fill="#B1928B"/>
<path d="M61.5001 29.9635L51.722 37.2872L43.112 43.7316L43.1251 43.7447L45.317 46.6729L63.7051 32.9035L61.5001 29.9635Z" fill="#C4C4C4"/>
<path d="M45.316 46.6728L38.7142 51.621H47.4685L75.9104 30.3178L76.1992 30.1104C77.3542 29.2284 77.5904 27.5878 76.7229 26.4341C75.8579 25.2647 74.2029 25.0297 73.0479 25.896L63.7029 32.9047L45.316 46.6728Z" fill="#85BAD8"/>
<path d="M60.1875 51.6198H49.6613C52.1288 51.6198 54.1881 53.3142 54.7538 55.5979H60.1875V51.6198Z" fill="#AAB2BD"/>
<path d="M60.1875 55.598V59.4948H65.4375V47.6692H60.1875V51.6198V55.598Z" fill="#CCD1D9"/>
<path d="M83.7857 67.3698H10.3119V71.3072H83.7988V67.3698H83.7857Z" fill="#C4C4C4"/>
<path d="M57.137 59.7692C55.6852 59.7692 54.5211 58.6522 54.5211 57.2564C54.5211 56.8292 54.4688 56.4271 54.3642 56.0389C53.8005 53.8527 51.7483 52.2307 49.2894 52.2307H47.1039H38.38H36.2233C33.3327 52.2307 30.9916 54.4809 30.9916 57.2564C30.9916 58.6522 29.8262 59.7692 28.3757 59.7692H23.1571H15.3095H10.0778V67.3076H83.2955H83.3086V59.7692H83.2955H71.5242H65.0107H59.779H57.137Z" fill="#C4C4C4"/>
<path d="M75.9112 35.8698C73.7325 35.8698 71.9737 37.6286 71.9737 39.8073V59.4948H83.7863V46.3961V46.3698C88.1424 46.3698 91.6613 42.8523 91.6613 38.4948H91.6875V33.2502L75.9112 35.8698Z" fill="#B1928B"/>
<path d="M10.2917 72.6488H83.7852C84.511 72.6488 85.0977 72.0621 85.0977 71.3363V59.5225C85.0977 58.7966 84.511 58.21 83.7852 58.21C83.0593 58.21 82.4727 58.7966 82.4727 59.5225V70.0238H11.6055V59.5225C11.6055 58.7966 11.0189 58.21 10.293 58.21C9.56723 58.21 8.98055 58.7966 8.98055 59.5225V71.3363C8.97923 72.0608 9.56723 72.6488 10.2917 72.6488Z" fill="#494337"/>
<path d="M10.2917 60.835H28.6602C29.386 60.835 29.9727 60.2483 29.9727 59.5225C29.9727 58.7966 29.386 58.21 28.6602 58.21H10.2931C9.56724 58.21 8.98055 58.7966 8.98055 59.5225C8.98055 60.2483 9.56724 60.835 10.2917 60.835Z" fill="#494337"/>
<path d="M28.6497 60.8349C30.8245 60.8349 32.5938 59.0657 32.5938 56.8909C32.5938 56.1651 32.0071 55.5784 31.2813 55.5784C30.5554 55.5784 29.9688 56.1651 29.9688 56.8909C29.9688 57.618 29.3768 58.2099 28.6497 58.2099C27.9239 58.2099 27.3372 58.7966 27.3372 59.5224C27.3372 60.2482 27.9239 60.8349 28.6497 60.8349Z" fill="#494337"/>
<path d="M31.2812 58.2123C32.0071 58.2123 32.5938 57.6256 32.5938 56.8998C32.5938 54.7289 34.3604 52.9623 36.5312 52.9623C37.2571 52.9623 37.8438 52.3756 37.8438 51.6498C37.8438 50.924 37.2571 50.3373 36.5312 50.3373C32.9127 50.3373 29.9688 53.2812 29.9688 56.8998C29.9688 57.6243 30.5554 58.2123 31.2812 58.2123Z" fill="#494337"/>
<path d="M57.5137 60.835H83.7637C84.4895 60.835 85.0762 60.2483 85.0762 59.5225C85.0762 58.7966 84.4895 58.21 83.7637 58.21H57.5137C56.7879 58.21 56.2012 58.7966 56.2012 59.5225C56.2012 60.2483 56.7879 60.835 57.5137 60.835Z" fill="#494337"/>
<path d="M57.5137 60.835C58.2395 60.835 58.8262 60.2483 58.8262 59.5225C58.8262 58.7966 58.2395 58.21 57.5137 58.21C56.7892 58.21 56.2012 57.622 56.2012 56.8975C56.2012 56.1716 55.6145 55.585 54.8887 55.585C54.1629 55.585 53.5762 56.1716 53.5762 56.8975C53.5762 59.0683 55.3428 60.835 57.5137 60.835Z" fill="#494337"/>
<path d="M54.8887 58.2123C55.6145 58.2123 56.2012 57.6256 56.2012 56.8998C56.2012 53.2812 53.2572 50.3373 49.6387 50.3373C48.9129 50.3373 48.3262 50.924 48.3262 51.6498C48.3262 52.3756 48.9129 52.9623 49.6387 52.9623C51.8095 52.9623 53.5762 54.7289 53.5762 56.8998C53.5762 57.6243 54.1629 58.2123 54.8887 58.2123Z" fill="#494337"/>
<path d="M36.5325 52.9623H60.168C60.8938 52.9623 61.4805 52.3756 61.4805 51.6498C61.4805 50.924 60.8938 50.3373 60.168 50.3373H36.5312C35.8054 50.3373 35.2187 50.924 35.2187 51.6498C35.2187 52.3756 35.8067 52.9623 36.5325 52.9623Z" fill="#494337"/>
<path d="M15.543 60.8348C16.2688 60.8348 16.8555 60.2481 16.8555 59.5223V53.2223C16.8555 52.4965 16.2688 51.9098 15.543 51.9098C14.8172 51.9098 14.2305 52.4965 14.2305 53.2223V59.5223C14.2305 60.2468 14.8185 60.8348 15.543 60.8348Z" fill="#494337"/>
<path d="M23.418 60.8347C24.1438 60.8347 24.7305 60.248 24.7305 59.5222V53.2183C24.7305 52.4924 24.1438 51.9058 23.418 51.9058C22.6922 51.9058 22.1055 52.4924 22.1055 53.2183V59.5222C22.1055 60.2467 22.6935 60.8347 23.418 60.8347Z" fill="#494337"/>
<path d="M19.4785 55.5873C24.5435 55.5873 28.666 51.4647 28.666 46.3998C28.666 41.3348 24.5435 37.2123 19.4785 37.2123C14.4136 37.2123 10.291 41.3348 10.291 46.3998C10.291 51.4647 14.4136 55.5873 19.4785 55.5873ZM19.4785 39.8373C23.0971 39.8373 26.041 42.7812 26.041 46.3998C26.041 50.0183 23.0971 52.9623 19.4785 52.9623C15.86 52.9623 12.916 50.0183 12.916 46.3998C12.916 42.7812 15.8613 39.8373 19.4785 39.8373Z" fill="#494337"/>
<path d="M38.6977 52.9626C38.9707 52.9626 39.2476 52.8773 39.4839 52.7001L73.8163 26.9738C74.0985 26.7638 74.4476 26.6772 74.7901 26.727C75.138 26.7769 75.4438 26.958 75.6525 27.2389C76.0869 27.8177 75.9688 28.642 75.39 29.0751L46.6633 50.5988C46.0831 51.0332 45.965 51.8548 46.3995 52.435C46.8365 53.0112 47.6555 53.1345 48.237 52.6975L76.9636 31.1751C78.7014 29.8744 79.0558 27.4017 77.7551 25.6639C77.1251 24.8226 76.2037 24.2766 75.1616 24.1283C74.1234 23.9734 73.0839 24.2425 72.2413 24.8725L37.9089 50.6001C37.3288 51.0345 37.2106 51.8562 37.6464 52.4363C37.9036 52.7802 38.2974 52.9626 38.6977 52.9626Z" fill="#494337"/>
<path d="M43.0722 45.0873C43.3452 45.0873 43.6221 45.002 43.8584 44.8248L62.2636 31.0331C62.8437 30.5986 62.9618 29.777 62.5261 29.1969C62.0929 28.6181 61.27 28.4986 60.6899 28.9344L42.2847 42.7261C41.7046 43.1605 41.5864 43.9822 42.0222 44.5623C42.2781 44.9049 42.6719 45.0873 43.0722 45.0873V45.0873Z" fill="#494337"/>
<path d="M47.019 37.8988C47.292 37.8988 47.5689 37.8135 47.8052 37.6363L53.0604 33.6988C53.6406 33.2644 53.7587 32.4427 53.3229 31.8626C52.8898 31.2851 52.0669 31.1644 51.4868 31.6001L46.2315 35.5376C45.6514 35.9721 45.5333 36.7937 45.969 37.3738C46.2249 37.7164 46.6187 37.8988 47.019 37.8988V37.8988Z" fill="#494337"/>
<path d="M63.6825 34.2371C63.9555 34.2371 64.2324 34.1518 64.4686 33.9746C65.0488 33.5402 65.1669 32.7173 64.7311 32.1384L62.5261 29.1971C62.093 28.617 61.2701 28.4989 60.6899 28.9346C60.1098 29.3691 59.9917 30.192 60.4274 30.7708L62.6325 33.7121C62.8897 34.056 63.2821 34.2371 63.6825 34.2371Z" fill="#494337"/>
<path d="M45.3055 48.0289C45.5785 48.0289 45.8554 47.9435 46.0917 47.7664C46.6718 47.3319 46.7899 46.509 46.3542 45.9302L44.1492 42.9889C43.7148 42.41 42.8944 42.2906 42.313 42.7264C41.7329 43.1608 41.6148 43.9837 42.0505 44.5625L44.2555 47.5039C44.5128 47.8477 44.9052 48.0289 45.3055 48.0289V48.0289Z" fill="#494337"/>
<path d="M51.7039 38.6196C51.9783 38.6196 52.2539 38.5343 52.4901 38.3571C53.0703 37.9227 53.1884 37.0997 52.7526 36.5209L50.713 33.8014C50.2786 33.2213 49.4556 33.1045 48.8768 33.5389C48.2967 33.9734 48.1786 34.7963 48.6143 35.3751L50.6539 38.0946C50.9112 38.4385 51.3036 38.6196 51.7039 38.6196V38.6196Z" fill="#494337"/>
<path d="M10.2926 68.71H83.7637C84.4895 68.71 85.0762 68.1233 85.0762 67.3975C85.0762 66.6717 84.4895 66.085 83.7637 66.085H10.2926C9.56674 66.085 8.98005 66.6717 8.98005 67.3975C8.98005 68.1233 9.56805 68.71 10.2926 68.71V68.71Z" fill="#494337"/>
<path d="M83.7669 47.7111C88.8345 47.7111 92.957 43.5872 92.957 38.5197C92.957 37.7938 92.3703 37.2072 91.6445 37.2072C90.9187 37.2072 90.332 37.7938 90.332 38.5197C90.332 42.1408 87.3868 45.0861 83.7669 45.0861C83.0411 45.0861 82.4544 45.6728 82.4544 46.3986C82.4544 47.1244 83.0411 47.7111 83.7669 47.7111Z" fill="#494337"/>
<path d="M76.2456 37.1689L91.6982 34.0028C92.4092 33.8571 92.8662 33.1646 92.7205 32.4535C92.5748 31.7425 91.8823 31.2855 91.1712 31.4312L75.7174 34.5976C75.0063 34.7433 74.5494 35.4358 74.695 36.1469C74.8407 36.8579 75.5345 37.3146 76.2456 37.1689Z" fill="#494337"/>
<path d="M71.9512 60.835C72.677 60.835 73.2637 60.2483 73.2637 59.5225V39.835C73.2637 39.1091 72.677 38.5225 71.9512 38.5225C71.2254 38.5225 70.6387 39.1091 70.6387 39.835V59.5225C70.6387 60.247 71.2254 60.835 71.9512 60.835Z" fill="#494337"/>
<path d="M71.9492 41.1473C72.675 41.1473 73.2617 40.5606 73.2617 39.8348C73.2617 38.3858 74.4403 37.2058 75.8906 37.2058C76.6164 37.2058 77.2031 36.6191 77.2031 35.8933C77.2031 35.1675 76.6164 34.5808 75.8906 34.5808C72.9939 34.5808 70.6367 36.9381 70.6367 39.8348C70.6367 40.5593 71.2234 41.1473 71.9492 41.1473Z" fill="#494337"/>
<path d="M83.7656 60.8348C84.4914 60.8348 85.0781 60.2481 85.0781 59.5223V46.4209C85.0781 45.6951 84.4914 45.1084 83.7656 45.1084C83.0398 45.1084 82.4531 45.6951 82.4531 46.4209V59.5223C82.4531 60.2468 83.0398 60.8348 83.7656 60.8348Z" fill="#494337"/>
<path d="M75.8906 37.2057C76.6164 37.2057 77.2031 36.6191 77.2031 35.8932V30.3387C77.2031 29.6129 76.6164 29.0262 75.8906 29.0262C75.1648 29.0262 74.5781 29.6129 74.5781 30.3387V35.8932C74.5781 36.6177 75.1648 37.2057 75.8906 37.2057Z" fill="#494337"/>
<path d="M60.168 60.8347H65.418C66.1438 60.8347 66.7305 60.248 66.7305 59.5222V47.686C66.7305 46.9602 66.1438 46.3735 65.418 46.3735H60.168C59.4422 46.3735 58.8555 46.9602 58.8555 47.686V59.5222C58.8555 60.2467 59.4435 60.8347 60.168 60.8347ZM64.1055 58.2097H61.4805V48.9985H64.1055V58.2097Z" fill="#494337"/>
<path d="M54.7237 56.9302H60.168C60.8938 56.9302 61.4805 56.3435 61.4805 55.6177C61.4805 54.8919 60.8938 54.3052 60.168 54.3052H54.7237C53.9979 54.3052 53.4112 54.8919 53.4112 55.6177C53.4112 56.3435 53.9979 56.9302 54.7237 56.9302Z" fill="#494337"/>
<path d="M91.1471 41.5882C91.8302 41.5882 93 40.6617 93 38.1911V33.7127C93 32.6029 92.4478 31.7058 91.7647 31.7058C91.0816 31.7058 90.5294 32.6029 90.5294 33.7127L90.2206 40.3529C90.2206 41.4606 90.4652 41.5882 91.1471 41.5882Z" fill="#494337"/>
</g>
<defs>
<clipPath id="clip0">
<rect width="84" height="84" fill="white" transform="matrix(-1 0 0 1 93 7)"/>
</clipPath>
</defs>
</svg>
