<svg width="20" height="15" viewBox="0 0 20 15" fill="none" xmlns="http://www.w3.org/2000/svg">
<path d="M13.0449 7.61194L19.6792 12.2619V2.76562L13.0449 7.61194Z" fill="#494337"/>
<path d="M0 2.76562V12.2619L6.63427 7.61194L0 2.76562Z" fill="#494337"/>
<path d="M18.4483 0H1.22917C0.615432 0 0.128378 0.507268 0.0361328 1.16044L9.83872 8.32083L19.6413 1.16044C19.5491 0.507268 19.062 0 18.4483 0Z" fill="#494337"/>
<path d="M11.9188 8.43544L10.1784 9.70634C10.0751 9.78134 9.95823 9.81816 9.84016 9.81816C9.72209 9.81816 9.60524 9.78134 9.50193 9.70634L7.76157 8.43408L0.0400391 13.849C0.134744 14.4967 0.619338 14.9999 1.23062 14.9999H18.4497C19.061 14.9999 19.5456 14.4967 19.6403 13.849L11.9188 8.43544Z" fill="#494337"/>
</svg>
