<svg width="100" height="100" viewBox="0 0 100 100" fill="none" xmlns="http://www.w3.org/2000/svg">
<rect x="66.8965" y="21.0432" width="12.9902" height="45.8922" transform="rotate(90.0687 66.8965 21.0432)" fill="#E0C49C"/>
<rect x="63.4512" y="22.7686" width="12.9902" height="45.8922" transform="rotate(57.9545 63.4512 22.7686)" fill="#BC7C7C"/>
<rect x="61.0117" y="28.114" width="12.9902" height="45.8922" transform="rotate(28.9362 61.0117 28.114)" fill="#B1928B"/>
<rect x="61.9727" y="20.9878" width="16.0373" height="57.0216" fill="#C4C4C4"/>
<path fill-rule="evenodd" clip-rule="evenodd" d="M70 19.0833C63 19.0835 61.2234 19.4041 60.8497 19.9966C60.5731 20.4356 60.3753 29.5661 60.3708 42.137L60.3634 63.5299L57.3202 68.6719C55.6464 71.5003 54.1739 73.8139 54.0483 73.8139C53.4124 73.8139 40.9767 66.8192 40.6378 66.271C40.4953 66.0398 41.7655 63.4382 43.4612 60.4892C45.9991 56.0757 55.8163 39.0554 58.8291 33.8461C59.6747 32.3846 59.0717 31.081 57.7806 31.5783C57.4198 31.7173 54.2536 36.7517 50.745 42.7653L44.3656 53.6992L41.028 55.6028C39.1922 56.6497 36.763 58.0425 35.6293 58.6978L33.5688 59.8892L29.7303 53.3733C27.619 49.7895 26.0005 46.5879 26.1335 46.2585C26.2661 45.9291 29.9301 43.6125 34.2749 41.1105C59.8939 26.3575 58.9965 26.9296 58.0467 25.9624C57.2165 25.1172 56.4456 25.4641 46.3604 31.224L37.2254 36.4408H29.8584H22.4919V29.0434V21.6465L39.7438 21.359C50.0822 21.1871 57.1941 20.8736 57.4901 20.5776C58.9028 19.1649 57.0222 19 39.4822 19C22.8392 19 21.5949 19.0608 20.825 19.9114C20.1294 20.6803 20.0003 22.082 20.0003 28.881C20.0003 39.1656 19.8294 38.9229 27.1012 38.9548C32.8981 38.9797 32.9006 38.8955 26.9996 42.3772C22.0658 45.2888 22.0698 45.4911 27.2134 54.1527C32.5328 63.1098 32.632 63.1681 37.7521 60.3581C39.7737 59.2484 41.4276 58.4466 41.4276 58.5762C41.4276 58.7052 40.6428 60.1503 39.6835 61.7873C37.79 65.0178 37.5074 66.8326 38.7103 68.0356C40.1614 69.4866 52.7651 76.3055 53.996 76.3055C55.4545 76.3055 56.182 75.552 58.5684 71.5716L60.3609 68.5817L60.3619 72.7152C60.3634 76.5038 60.472 76.9573 61.6614 78.1472C61.6614 78.1472 62.4923 78.7398 63.104 78.8444C64.5 79.0833 66 79.0833 70.92 79.1493C75.84 79.2154 77.8126 79.3998 79.5 78.5833C81 76.5833 80.2947 73.204 80.2882 49.2115C80.2837 33.5541 80.1158 20.4974 79.9145 20.1959C79.5368 19.6309 78.5 19.083 77 19.0835C77 19.0835 74.5 19.0835 70 19.0833ZM77.6836 49.0366L77.8126 76.8307L70.4581 76.6927L63.104 76.5546L62.9755 49.0565L62.8464 21.5583L64.2213 21.3435C65.5 21.0833 68.2865 21.1537 71.5753 21.1851L77.555 21.2424L77.6836 49.0366ZM64.4395 35.0705C64.5925 36.1463 64.8222 36.1971 70.1312 36.3317C74.5447 36.4438 75.7875 36.3222 76.2783 35.7307C77.4753 34.2881 76.3317 33.9493 70.2652 33.9493C64.3438 33.9493 64.2821 33.9612 64.4395 35.0705Z" fill="#494337"/>
</svg>
