<svg width="62" height="62" viewBox="0 0 62 62" fill="none" xmlns="http://www.w3.org/2000/svg">
<path d="M16.7968 24.5244L13.3984 24.4353L13.3874 24.836L12.8812 43.2672L14.7102 43.4562L16.7968 24.5244Z" fill="#C4C4C4"/>
<path d="M47.1925 24.3611L43.8086 24.6797L43.848 25.0787L45.6585 43.4315L47.4974 43.4L47.1925 24.3611Z" fill="#C4C4C4"/>
<rect x="10.7188" y="19.7568" width="39.5614" height="4.21621" fill="#B1928B"/>
<path d="M49.0161 17.5808H11.9839C10.8716 17.5808 10 18.6862 10 20.0969V22.3335C10 23.7442 10.8716 24.8496 11.9839 24.8496H49.0161C50.1284 24.8496 51 23.7442 51 22.3335V20.0969C51 18.6862 50.1284 17.5808 49.0161 17.5808ZM49.6774 22.3335C49.6774 22.8194 49.3992 23.1722 49.0161 23.1722H11.9839C11.6008 23.1722 11.3226 22.8194 11.3226 22.3335V20.0969C11.3226 19.611 11.6008 19.2582 11.9839 19.2582H49.0161C49.3992 19.2582 49.6774 19.611 49.6774 20.0969V22.3335Z" fill="#494337"/>
<path d="M17.3665 23.1802C17.0063 23.1175 16.67 23.4335 16.6183 23.892L14.4951 42.7418H13.5257V24.0106C13.5257 23.547 13.2299 23.1719 12.8644 23.1719C12.4989 23.1719 12.2031 23.547 12.2031 24.0106V43.5805C12.2031 44.0434 12.4989 44.4192 12.8644 44.4192H15.0687C15.398 44.4192 15.6767 44.1122 15.7234 43.699L17.9277 24.1291C17.9792 23.6706 17.728 23.2456 17.3665 23.1802Z" fill="#494337"/>
<path d="M48.1364 23.1726C47.7714 23.1726 47.4751 23.5478 47.4751 24.0113V42.7425H46.5057L44.3825 23.8928C44.3304 23.4343 43.9927 23.1128 43.6343 23.181C43.2728 23.2464 43.0215 23.6714 43.0731 24.1299L45.2774 43.6998C45.3242 44.1129 45.6032 44.42 45.9321 44.42H48.1364C48.5014 44.42 48.7977 44.0442 48.7977 43.5813V24.0113C48.7977 23.5478 48.5014 23.1726 48.1364 23.1726Z" fill="#494337"/>
<path d="M43.7261 28.7634H17.2746C16.9091 28.7634 16.6133 29.1386 16.6133 29.6021C16.6133 30.0657 16.9091 30.4408 17.2746 30.4408H43.7262C44.0912 30.4408 44.3875 30.0657 44.3875 29.6021C44.3875 29.1386 44.0912 28.7634 43.7261 28.7634Z" fill="#494337"/>
</svg>
