<svg width="40" height="40" viewBox="0 0 40 40" fill="none" xmlns="http://www.w3.org/2000/svg">
<rect width="40" height="40" rx="8" fill="white"/>
<path d="M24.0897 23.6461C23.4648 23.6461 22.8743 23.9931 22.3189 24.6875V20.4944H20.5742V33.3332H22.3189V32.3952C22.8916 33.1074 23.4816 33.4633 24.0897 33.4633C24.8014 33.4633 25.2612 33.099 25.4697 32.3696C25.591 32.0044 25.652 31.3715 25.652 30.4682V26.666C25.652 25.7461 25.5909 25.1036 25.4697 24.7393C25.2612 24.0099 24.8014 23.6461 24.0897 23.6461ZM23.9335 30.5987C23.9335 31.4503 23.6816 31.8743 23.178 31.8743C22.8828 31.8743 22.5964 31.7358 22.3189 31.4584V25.6245C22.5964 25.3478 22.8828 25.2084 23.178 25.2084C23.6812 25.2084 23.9335 25.6426 23.9335 26.5106V30.5987Z" fill="#494337" fill-opacity="0.7"/>
<path d="M29.612 23.6465C28.7269 23.6465 28.0319 23.9771 27.5287 24.6362C27.1813 25.1041 27.0078 25.852 27.0078 26.8753V30.2355C27.0078 31.2597 27.1901 32.0054 27.5548 32.4746C28.058 33.1349 28.7613 33.4642 29.6643 33.4642C30.5845 33.4642 31.2788 33.1173 31.7476 32.4224C31.9561 32.1099 32.0862 31.7633 32.1384 31.3805C32.1729 31.1384 32.1902 30.764 32.1902 30.2603V30.0263H30.4193C30.4193 30.2174 30.4193 30.4037 30.4193 30.5856C30.4193 30.7675 30.4149 30.9109 30.4065 31.0158C30.3977 31.1194 30.3937 31.1805 30.3937 31.1978C30.2897 31.6496 30.029 31.8741 29.6125 31.8741C29.022 31.8741 28.7273 31.4314 28.7273 30.5468V28.8538H32.1906V26.875C32.1906 25.8689 32.0083 25.1223 31.6439 24.6358C31.1749 23.9771 30.4977 23.6465 29.612 23.6465ZM30.4455 27.4224H28.7268V26.5361C28.7268 25.6511 29.0132 25.2088 29.5859 25.2088C30.1591 25.2088 30.4455 25.6515 30.4455 26.5361V27.4224Z" fill="#494337" fill-opacity="0.7"/>
<path d="M17.342 31.0678C16.9601 31.606 16.5954 31.8746 16.2483 31.8746C16.0049 31.8746 15.8748 31.7445 15.858 31.4838C15.8403 31.4502 15.8319 31.2236 15.8319 30.8075V23.7764H14.1133V31.3284C14.1133 31.9887 14.1655 32.4566 14.2695 32.7341C14.4258 33.2214 14.7904 33.4635 15.3632 33.4635C16.0054 33.4635 16.6653 33.0727 17.3425 32.2916V33.3334H19.0872V23.7764H17.3425V31.0678H17.342Z" fill="#494337" fill-opacity="0.7"/>
<path d="M19.6108 13.9585C20.1662 13.9585 20.4442 13.515 20.4442 12.6298V8.56678C20.4442 7.66431 20.1662 7.21289 19.6108 7.21289C19.0548 7.21289 18.7773 7.66431 18.7773 8.56678V12.6298C18.7773 13.515 19.0548 13.9585 19.6108 13.9585Z" fill="#494337" fill-opacity="0.7"/>
<path d="M7.8125 22.3175H9.84359V33.3332H11.7707V22.3175H13.8539V20.4944H7.8125V22.3175Z" fill="#494337" fill-opacity="0.7"/>
<path d="M32.5002 0H7.50024C5.43422 0 3.66782 0.734259 2.20061 2.2001C0.733391 3.66826 0 5.43422 0 7.50017V32.4998C0 34.5656 0.733391 36.3325 2.20061 37.7985C3.66739 39.2652 5.43379 39.9999 7.50024 39.9999H32.5002C34.5658 39.9999 36.3321 39.2656 37.7993 37.7985C39.266 36.3325 39.9999 34.5657 39.9999 32.4998V7.50017C39.9999 5.43415 39.2661 3.66818 37.7993 2.2001C36.3322 0.734259 34.5658 0 32.5002 0ZM23.6199 5.78114H25.3647V12.864C25.3647 13.2809 25.3735 13.507 25.3908 13.5416C25.408 13.8204 25.547 13.9585 25.8072 13.9585C26.1542 13.9585 26.5189 13.6898 26.9009 13.1508V5.78114H28.6456V15.4164H26.9009V14.3746C26.1887 15.1558 25.5204 15.5466 24.8955 15.5466C24.3396 15.5466 23.9665 15.3125 23.7758 14.8437C23.6718 14.5313 23.6196 14.0541 23.6196 13.4115V5.78114H23.6199ZM17.0311 8.90592C17.0311 7.89988 17.2134 7.14393 17.5781 6.64073C18.0468 5.98168 18.724 5.65104 19.6092 5.65104C20.4594 5.65104 21.1366 5.98168 21.6402 6.64073C22.0049 7.14436 22.1869 7.89988 22.1869 8.90592V12.2913C22.1869 13.3327 22.0045 14.0888 21.6402 14.5565C21.1365 15.2169 20.4594 15.5462 19.6092 15.5462C18.724 15.5462 18.0468 15.2164 17.5781 14.5565C17.2134 14.0542 17.0311 13.2991 17.0311 12.2913V8.90592ZM12.344 2.47412L13.7244 7.55202L15.0522 2.47412H17.0054L14.6618 10.1828V15.4165H12.7348V10.1828C12.5436 9.22766 12.1444 7.85649 11.5367 6.06803C11.415 5.66926 11.2149 5.06995 10.9374 4.27068C10.6595 3.47314 10.451 2.87383 10.3125 2.47419H12.344V2.47412ZM33.8023 33.9058C33.6284 34.6534 33.2592 35.2864 32.6953 35.8073C32.131 36.3282 31.4756 36.6322 30.7293 36.7185C28.3507 36.9789 24.7742 37.1093 20.0004 37.1093C15.2256 37.1093 11.6495 36.9792 9.27142 36.7185C8.52472 36.6322 7.86929 36.3278 7.30542 35.8073C6.74111 35.2864 6.37199 34.6539 6.19893 33.9058C5.85151 32.448 5.67801 30.1907 5.67801 27.135C5.67801 24.1321 5.85151 21.8748 6.19893 20.3643C6.37242 19.6012 6.74154 18.9634 7.30542 18.4508C7.86929 17.9383 8.53362 17.6391 9.29753 17.5515C11.6583 17.2912 15.2261 17.1607 20.0008 17.1607C24.7923 17.1607 28.3685 17.2908 30.7297 17.5515C31.4764 17.6391 32.1363 17.9379 32.709 18.4508C33.2822 18.9634 33.6553 19.6012 33.8288 20.3643C34.1585 21.8057 34.3236 24.0622 34.3236 27.135C34.3229 30.1907 34.1493 32.448 33.8023 33.9058Z" fill="#494337" fill-opacity="0.7"/>
</svg>
