<svg width="100" height="100" viewBox="0 0 100 100" fill="none" xmlns="http://www.w3.org/2000/svg">
<g clip-path="url(#clip0)">
<rect x="23.1914" y="23.1915" width="3.57447" height="53.617" fill="#E0C49C"/>
<rect x="73.2344" y="23.1915" width="3.57447" height="53.617" fill="#E0C49C"/>
<ellipse cx="57.1487" cy="27.3617" rx="4.17021" ry="4.17021" fill="#85BAD8"/>
<ellipse cx="67.8714" cy="27.3617" rx="4.17021" ry="4.17021" fill="#85BAD8"/>
<ellipse cx="45.2347" cy="27.3617" rx="4.17021" ry="4.17021" fill="#85BAD8"/>
<circle cx="45.2347" cy="50" r="4.17021" fill="#B1928B"/>
<ellipse cx="34.5101" cy="50" rx="4.17021" ry="4.17021" fill="#B1928B"/>
<ellipse cx="42.8519" cy="72.6384" rx="4.17021" ry="4.17021" fill="#81967A"/>
<circle cx="54.7659" cy="72.6384" r="4.17021" fill="#81967A"/>
<ellipse cx="65.4886" cy="72.6384" rx="4.17021" ry="4.17021" fill="#81967A"/>
<ellipse cx="57.1487" cy="50" rx="4.17021" ry="4.17021" fill="#B1928B"/>
<mask id="path-12-outside-1" maskUnits="userSpaceOnUse" x="21" y="21" width="58" height="58" fill="black">
<rect fill="white" x="21" y="21" width="58" height="58"/>
<path d="M77.0667 22H73.3333C72.8179 22 72.4 22.4179 72.4 22.9333V26.6667H72.316C71.8036 23.6203 68.9187 21.566 65.8723 22.0784C63.5213 22.4738 61.6794 24.3157 61.284 26.6667H61.116C60.6036 23.6203 57.7187 21.566 54.6723 22.0784C52.3213 22.4738 50.4794 24.3157 50.084 26.6667H49.916C49.4036 23.6203 46.5187 21.566 43.4723 22.0784C41.1213 22.4738 39.2794 24.3157 38.884 26.6667H27.6V22.9333C27.6 22.4179 27.1821 22 26.6667 22H22.9333C22.4179 22 22 22.4179 22 22.9333V77.0667C22 77.5821 22.4179 78 22.9333 78H26.6667C27.1821 78 27.6 77.5821 27.6 77.0667V73.3333H38.884C39.3964 76.3797 42.2813 78.434 45.3277 77.9216C47.6787 77.5262 49.5206 75.6843 49.916 73.3333H50.084C50.5964 76.3797 53.4813 78.434 56.5277 77.9216C58.8787 77.5262 60.7206 75.6843 61.116 73.3333H61.284C61.7964 76.3797 64.6813 78.434 67.7277 77.9216C70.0787 77.5262 71.9206 75.6843 72.316 73.3333H72.4V77.0667C72.4 77.5821 72.8179 78 73.3333 78H77.0667C77.5821 78 78 77.5821 78 77.0667V22.9333C78 22.4179 77.5821 22 77.0667 22ZM25.7333 76.1333H23.8667V23.8667H25.7333V76.1333ZM66.8 23.8667C68.8619 23.8667 70.5333 25.5382 70.5333 27.6C70.5333 29.6619 68.8619 31.3333 66.8 31.3333C64.7382 31.3333 63.0667 29.6619 63.0667 27.6C63.0667 25.5382 64.7382 23.8667 66.8 23.8667ZM55.6 23.8667C57.6619 23.8667 59.3333 25.5382 59.3333 27.6C59.3333 29.6619 57.6619 31.3333 55.6 31.3333C53.5382 31.3333 51.8667 29.6619 51.8667 27.6C51.8667 25.5382 53.5382 23.8667 55.6 23.8667ZM44.4 23.8667C46.4619 23.8667 48.1333 25.5382 48.1333 27.6C48.1333 29.6619 46.4619 31.3333 44.4 31.3333C42.3382 31.3333 40.6667 29.6619 40.6667 27.6C40.6667 25.5382 42.3382 23.8667 44.4 23.8667ZM44.4 76.1333C42.3382 76.1333 40.6667 74.4619 40.6667 72.4C40.6667 70.3382 42.3382 68.6667 44.4 68.6667C46.4619 68.6667 48.1333 70.3382 48.1333 72.4C48.1333 74.4619 46.4619 76.1333 44.4 76.1333ZM55.6 76.1333C53.5382 76.1333 51.8667 74.4619 51.8667 72.4C51.8667 70.3382 53.5382 68.6667 55.6 68.6667C57.6619 68.6667 59.3333 70.3382 59.3333 72.4C59.3333 74.4619 57.6619 76.1333 55.6 76.1333ZM66.8 76.1333C64.7382 76.1333 63.0667 74.4619 63.0667 72.4C63.0667 70.3382 64.7382 68.6667 66.8 68.6667C68.8619 68.6667 70.5333 70.3382 70.5333 72.4C70.5333 74.4619 68.8619 76.1333 66.8 76.1333ZM72.4 71.4667H72.316C71.8588 68.7756 69.5297 66.805 66.8 66.8C64.0704 66.805 61.7412 68.7756 61.284 71.4667H61.116C60.6036 68.4203 57.7187 66.366 54.6723 66.8784C52.3213 67.2738 50.4794 69.1157 50.084 71.4667H49.916C49.4036 68.4203 46.5187 66.366 43.4723 66.8784C41.1213 67.2738 39.2794 69.1157 38.884 71.4667H27.6V50.9333H27.684C28.1964 53.9797 31.0813 56.034 34.1277 55.5216C36.4787 55.1262 38.3206 53.2843 38.716 50.9333H38.884C39.3964 53.9797 42.2813 56.034 45.3277 55.5216C47.6787 55.1262 49.5206 53.2843 49.916 50.9333H50.084C50.5964 53.9797 53.4813 56.034 56.5277 55.5216C58.8787 55.1262 60.7206 53.2843 61.116 50.9333H72.4V71.4667ZM29.4667 50C29.4667 47.9381 31.1382 46.2667 33.2 46.2667C35.2619 46.2667 36.9333 47.9381 36.9333 50C36.9333 52.0618 35.2619 53.7333 33.2 53.7333C31.1382 53.7333 29.4667 52.0618 29.4667 50ZM40.6667 50C40.6667 47.9381 42.3382 46.2667 44.4 46.2667C46.4619 46.2667 48.1333 47.9381 48.1333 50C48.1333 52.0618 46.4619 53.7333 44.4 53.7333C42.3382 53.7333 40.6667 52.0618 40.6667 50ZM51.8667 50C51.8667 47.9381 53.5382 46.2667 55.6 46.2667C57.6619 46.2667 59.3333 47.9381 59.3333 50C59.3333 52.0618 57.6619 53.7333 55.6 53.7333C53.5382 53.7333 51.8667 52.0618 51.8667 50ZM72.4 49.0667H61.116C60.6036 46.0203 57.7187 43.966 54.6723 44.4784C52.3213 44.8738 50.4794 46.7157 50.084 49.0667H49.916C49.4036 46.0203 46.5187 43.966 43.4723 44.4784C41.1213 44.8738 39.2794 46.7157 38.884 49.0667H38.716C38.2036 46.0203 35.3187 43.966 32.2723 44.4784C29.9213 44.8738 28.0794 46.7157 27.684 49.0667H27.6V28.5333H38.884C39.3964 31.5797 42.2813 33.634 45.3277 33.1216C47.6787 32.7262 49.5206 30.8843 49.916 28.5333H50.084C50.5964 31.5797 53.4813 33.634 56.5277 33.1216C58.8787 32.7262 60.7206 30.8843 61.116 28.5333H61.284C61.7964 31.5797 64.6813 33.634 67.7277 33.1216C70.0787 32.7262 71.9206 30.8843 72.316 28.5333H72.4V49.0667ZM76.1333 76.1333H74.2667V23.8667H76.1333V76.1333Z"/>
</mask>
<path d="M77.0667 22H73.3333C72.8179 22 72.4 22.4179 72.4 22.9333V26.6667H72.316C71.8036 23.6203 68.9187 21.566 65.8723 22.0784C63.5213 22.4738 61.6794 24.3157 61.284 26.6667H61.116C60.6036 23.6203 57.7187 21.566 54.6723 22.0784C52.3213 22.4738 50.4794 24.3157 50.084 26.6667H49.916C49.4036 23.6203 46.5187 21.566 43.4723 22.0784C41.1213 22.4738 39.2794 24.3157 38.884 26.6667H27.6V22.9333C27.6 22.4179 27.1821 22 26.6667 22H22.9333C22.4179 22 22 22.4179 22 22.9333V77.0667C22 77.5821 22.4179 78 22.9333 78H26.6667C27.1821 78 27.6 77.5821 27.6 77.0667V73.3333H38.884C39.3964 76.3797 42.2813 78.434 45.3277 77.9216C47.6787 77.5262 49.5206 75.6843 49.916 73.3333H50.084C50.5964 76.3797 53.4813 78.434 56.5277 77.9216C58.8787 77.5262 60.7206 75.6843 61.116 73.3333H61.284C61.7964 76.3797 64.6813 78.434 67.7277 77.9216C70.0787 77.5262 71.9206 75.6843 72.316 73.3333H72.4V77.0667C72.4 77.5821 72.8179 78 73.3333 78H77.0667C77.5821 78 78 77.5821 78 77.0667V22.9333C78 22.4179 77.5821 22 77.0667 22ZM25.7333 76.1333H23.8667V23.8667H25.7333V76.1333ZM66.8 23.8667C68.8619 23.8667 70.5333 25.5382 70.5333 27.6C70.5333 29.6619 68.8619 31.3333 66.8 31.3333C64.7382 31.3333 63.0667 29.6619 63.0667 27.6C63.0667 25.5382 64.7382 23.8667 66.8 23.8667ZM55.6 23.8667C57.6619 23.8667 59.3333 25.5382 59.3333 27.6C59.3333 29.6619 57.6619 31.3333 55.6 31.3333C53.5382 31.3333 51.8667 29.6619 51.8667 27.6C51.8667 25.5382 53.5382 23.8667 55.6 23.8667ZM44.4 23.8667C46.4619 23.8667 48.1333 25.5382 48.1333 27.6C48.1333 29.6619 46.4619 31.3333 44.4 31.3333C42.3382 31.3333 40.6667 29.6619 40.6667 27.6C40.6667 25.5382 42.3382 23.8667 44.4 23.8667ZM44.4 76.1333C42.3382 76.1333 40.6667 74.4619 40.6667 72.4C40.6667 70.3382 42.3382 68.6667 44.4 68.6667C46.4619 68.6667 48.1333 70.3382 48.1333 72.4C48.1333 74.4619 46.4619 76.1333 44.4 76.1333ZM55.6 76.1333C53.5382 76.1333 51.8667 74.4619 51.8667 72.4C51.8667 70.3382 53.5382 68.6667 55.6 68.6667C57.6619 68.6667 59.3333 70.3382 59.3333 72.4C59.3333 74.4619 57.6619 76.1333 55.6 76.1333ZM66.8 76.1333C64.7382 76.1333 63.0667 74.4619 63.0667 72.4C63.0667 70.3382 64.7382 68.6667 66.8 68.6667C68.8619 68.6667 70.5333 70.3382 70.5333 72.4C70.5333 74.4619 68.8619 76.1333 66.8 76.1333ZM72.4 71.4667H72.316C71.8588 68.7756 69.5297 66.805 66.8 66.8C64.0704 66.805 61.7412 68.7756 61.284 71.4667H61.116C60.6036 68.4203 57.7187 66.366 54.6723 66.8784C52.3213 67.2738 50.4794 69.1157 50.084 71.4667H49.916C49.4036 68.4203 46.5187 66.366 43.4723 66.8784C41.1213 67.2738 39.2794 69.1157 38.884 71.4667H27.6V50.9333H27.684C28.1964 53.9797 31.0813 56.034 34.1277 55.5216C36.4787 55.1262 38.3206 53.2843 38.716 50.9333H38.884C39.3964 53.9797 42.2813 56.034 45.3277 55.5216C47.6787 55.1262 49.5206 53.2843 49.916 50.9333H50.084C50.5964 53.9797 53.4813 56.034 56.5277 55.5216C58.8787 55.1262 60.7206 53.2843 61.116 50.9333H72.4V71.4667ZM29.4667 50C29.4667 47.9381 31.1382 46.2667 33.2 46.2667C35.2619 46.2667 36.9333 47.9381 36.9333 50C36.9333 52.0618 35.2619 53.7333 33.2 53.7333C31.1382 53.7333 29.4667 52.0618 29.4667 50ZM40.6667 50C40.6667 47.9381 42.3382 46.2667 44.4 46.2667C46.4619 46.2667 48.1333 47.9381 48.1333 50C48.1333 52.0618 46.4619 53.7333 44.4 53.7333C42.3382 53.7333 40.6667 52.0618 40.6667 50ZM51.8667 50C51.8667 47.9381 53.5382 46.2667 55.6 46.2667C57.6619 46.2667 59.3333 47.9381 59.3333 50C59.3333 52.0618 57.6619 53.7333 55.6 53.7333C53.5382 53.7333 51.8667 52.0618 51.8667 50ZM72.4 49.0667H61.116C60.6036 46.0203 57.7187 43.966 54.6723 44.4784C52.3213 44.8738 50.4794 46.7157 50.084 49.0667H49.916C49.4036 46.0203 46.5187 43.966 43.4723 44.4784C41.1213 44.8738 39.2794 46.7157 38.884 49.0667H38.716C38.2036 46.0203 35.3187 43.966 32.2723 44.4784C29.9213 44.8738 28.0794 46.7157 27.684 49.0667H27.6V28.5333H38.884C39.3964 31.5797 42.2813 33.634 45.3277 33.1216C47.6787 32.7262 49.5206 30.8843 49.916 28.5333H50.084C50.5964 31.5797 53.4813 33.634 56.5277 33.1216C58.8787 32.7262 60.7206 30.8843 61.116 28.5333H61.284C61.7964 31.5797 64.6813 33.634 67.7277 33.1216C70.0787 32.7262 71.9206 30.8843 72.316 28.5333H72.4V49.0667ZM76.1333 76.1333H74.2667V23.8667H76.1333V76.1333Z" fill="#494337"/>
<path d="M77.0667 22H73.3333C72.8179 22 72.4 22.4179 72.4 22.9333V26.6667H72.316C71.8036 23.6203 68.9187 21.566 65.8723 22.0784C63.5213 22.4738 61.6794 24.3157 61.284 26.6667H61.116C60.6036 23.6203 57.7187 21.566 54.6723 22.0784C52.3213 22.4738 50.4794 24.3157 50.084 26.6667H49.916C49.4036 23.6203 46.5187 21.566 43.4723 22.0784C41.1213 22.4738 39.2794 24.3157 38.884 26.6667H27.6V22.9333C27.6 22.4179 27.1821 22 26.6667 22H22.9333C22.4179 22 22 22.4179 22 22.9333V77.0667C22 77.5821 22.4179 78 22.9333 78H26.6667C27.1821 78 27.6 77.5821 27.6 77.0667V73.3333H38.884C39.3964 76.3797 42.2813 78.434 45.3277 77.9216C47.6787 77.5262 49.5206 75.6843 49.916 73.3333H50.084C50.5964 76.3797 53.4813 78.434 56.5277 77.9216C58.8787 77.5262 60.7206 75.6843 61.116 73.3333H61.284C61.7964 76.3797 64.6813 78.434 67.7277 77.9216C70.0787 77.5262 71.9206 75.6843 72.316 73.3333H72.4V77.0667C72.4 77.5821 72.8179 78 73.3333 78H77.0667C77.5821 78 78 77.5821 78 77.0667V22.9333C78 22.4179 77.5821 22 77.0667 22ZM25.7333 76.1333H23.8667V23.8667H25.7333V76.1333ZM66.8 23.8667C68.8619 23.8667 70.5333 25.5382 70.5333 27.6C70.5333 29.6619 68.8619 31.3333 66.8 31.3333C64.7382 31.3333 63.0667 29.6619 63.0667 27.6C63.0667 25.5382 64.7382 23.8667 66.8 23.8667ZM55.6 23.8667C57.6619 23.8667 59.3333 25.5382 59.3333 27.6C59.3333 29.6619 57.6619 31.3333 55.6 31.3333C53.5382 31.3333 51.8667 29.6619 51.8667 27.6C51.8667 25.5382 53.5382 23.8667 55.6 23.8667ZM44.4 23.8667C46.4619 23.8667 48.1333 25.5382 48.1333 27.6C48.1333 29.6619 46.4619 31.3333 44.4 31.3333C42.3382 31.3333 40.6667 29.6619 40.6667 27.6C40.6667 25.5382 42.3382 23.8667 44.4 23.8667ZM44.4 76.1333C42.3382 76.1333 40.6667 74.4619 40.6667 72.4C40.6667 70.3382 42.3382 68.6667 44.4 68.6667C46.4619 68.6667 48.1333 70.3382 48.1333 72.4C48.1333 74.4619 46.4619 76.1333 44.4 76.1333ZM55.6 76.1333C53.5382 76.1333 51.8667 74.4619 51.8667 72.4C51.8667 70.3382 53.5382 68.6667 55.6 68.6667C57.6619 68.6667 59.3333 70.3382 59.3333 72.4C59.3333 74.4619 57.6619 76.1333 55.6 76.1333ZM66.8 76.1333C64.7382 76.1333 63.0667 74.4619 63.0667 72.4C63.0667 70.3382 64.7382 68.6667 66.8 68.6667C68.8619 68.6667 70.5333 70.3382 70.5333 72.4C70.5333 74.4619 68.8619 76.1333 66.8 76.1333ZM72.4 71.4667H72.316C71.8588 68.7756 69.5297 66.805 66.8 66.8C64.0704 66.805 61.7412 68.7756 61.284 71.4667H61.116C60.6036 68.4203 57.7187 66.366 54.6723 66.8784C52.3213 67.2738 50.4794 69.1157 50.084 71.4667H49.916C49.4036 68.4203 46.5187 66.366 43.4723 66.8784C41.1213 67.2738 39.2794 69.1157 38.884 71.4667H27.6V50.9333H27.684C28.1964 53.9797 31.0813 56.034 34.1277 55.5216C36.4787 55.1262 38.3206 53.2843 38.716 50.9333H38.884C39.3964 53.9797 42.2813 56.034 45.3277 55.5216C47.6787 55.1262 49.5206 53.2843 49.916 50.9333H50.084C50.5964 53.9797 53.4813 56.034 56.5277 55.5216C58.8787 55.1262 60.7206 53.2843 61.116 50.9333H72.4V71.4667ZM29.4667 50C29.4667 47.9381 31.1382 46.2667 33.2 46.2667C35.2619 46.2667 36.9333 47.9381 36.9333 50C36.9333 52.0618 35.2619 53.7333 33.2 53.7333C31.1382 53.7333 29.4667 52.0618 29.4667 50ZM40.6667 50C40.6667 47.9381 42.3382 46.2667 44.4 46.2667C46.4619 46.2667 48.1333 47.9381 48.1333 50C48.1333 52.0618 46.4619 53.7333 44.4 53.7333C42.3382 53.7333 40.6667 52.0618 40.6667 50ZM51.8667 50C51.8667 47.9381 53.5382 46.2667 55.6 46.2667C57.6619 46.2667 59.3333 47.9381 59.3333 50C59.3333 52.0618 57.6619 53.7333 55.6 53.7333C53.5382 53.7333 51.8667 52.0618 51.8667 50ZM72.4 49.0667H61.116C60.6036 46.0203 57.7187 43.966 54.6723 44.4784C52.3213 44.8738 50.4794 46.7157 50.084 49.0667H49.916C49.4036 46.0203 46.5187 43.966 43.4723 44.4784C41.1213 44.8738 39.2794 46.7157 38.884 49.0667H38.716C38.2036 46.0203 35.3187 43.966 32.2723 44.4784C29.9213 44.8738 28.0794 46.7157 27.684 49.0667H27.6V28.5333H38.884C39.3964 31.5797 42.2813 33.634 45.3277 33.1216C47.6787 32.7262 49.5206 30.8843 49.916 28.5333H50.084C50.5964 31.5797 53.4813 33.634 56.5277 33.1216C58.8787 32.7262 60.7206 30.8843 61.116 28.5333H61.284C61.7964 31.5797 64.6813 33.634 67.7277 33.1216C70.0787 32.7262 71.9206 30.8843 72.316 28.5333H72.4V49.0667ZM76.1333 76.1333H74.2667V23.8667H76.1333V76.1333Z" stroke="#494337" stroke-width="0.2" mask="url(#path-12-outside-1)"/>
</g>
<defs>
<clipPath id="clip0">
<rect width="56" height="56" fill="white" transform="translate(22 22)"/>
</clipPath>
</defs>
</svg>
