<svg width="62" height="62" viewBox="0 0 62 62" fill="none" xmlns="http://www.w3.org/2000/svg">
<g clip-path="url(#clip0)">
<g clip-path="url(#clip1)">
<path d="M29.8608 19.5508L15.7984 19.7499C15.7984 19.7499 14.2046 20.1216 13.7978 21.3165C13.3911 22.5114 13.3984 26.7999 13.3984 26.7999L15.1337 28.3135H16.5948H17.3752H22.8376H27.9099C28.5342 28.3135 29.4706 28.8446 29.8608 29.1101L31.8117 30.305L32.9822 29.1101L35.3233 28.3135H47.4188L48.5893 26.322L50.9303 25.9237V21.5423L50.5402 20.3474L48.8964 19.5508H32.6252L30.9981 21.144L29.8608 19.5508Z" fill="#D1A4A4"/>
<path d="M28.1537 28.712L15.1367 28.3137V33.89C16.2215 34.0228 18.5537 34.2086 19.2045 33.89C19.8554 33.5713 31.6791 34.0228 37.5096 34.2883L46.8655 33.4917V28.3137H34.6621L31.4079 29.9069L30.1876 30.3052L28.1537 28.712Z" fill="#E7E7E7"/>
<path d="M14.3231 26.7203L12.6008 26.4083C11.6245 26.4083 9.80078 26.4083 9.80078 28.3666L9.80094 29.9333C9.80094 29.9333 9.80057 32.4556 9.80095 34.6333C9.80109 35.4299 9.78722 36.18 10.6008 37.3749C11.4143 38.5699 12.2893 38.6695 12.2893 38.6695H13.5096H41.301H52.1537C52.8045 38.6695 53.374 37.4746 53.7808 36.678V26.7203L52.9671 26.322H50.5265L48.0858 26.7203L47.679 27.5169V33.8898H14.7298L14.3231 26.7203Z" fill="#64775E" fill-opacity="0.58"/>
<path d="M13.5078 43.4496L14.7282 39.8649L17.9824 39.4666V40.2632L15.9485 43.0513L13.5078 43.4496Z" fill="#D1A4A4"/>
<path d="M48.6059 43.7981L46.8973 39.677L43.609 39.5653L43.7192 40.5113L46.1258 43.5961L48.6059 43.7981Z" fill="#D1A4A4"/>
<mask id="path-6-outside-1" maskUnits="userSpaceOnUse" x="6" y="17.3635" width="50" height="28" fill="black">
<rect fill="white" x="6" y="17.3635" width="50" height="28"/>
<path d="M52.6211 25.5545H51.6675V22.0841C51.6675 20.0326 49.9629 18.3635 47.8677 18.3635H34.0967C32.8201 18.3635 31.6893 18.9838 31 19.932C30.3107 18.9837 29.1799 18.3635 27.9033 18.3635H19.2519C18.8636 18.3635 18.5488 18.6718 18.5488 19.052C18.5488 19.4322 18.8636 19.7405 19.2519 19.7405H27.9033C29.2232 19.7405 30.2969 20.7918 30.2969 22.0841V28.9698C30.2822 28.956 30.2666 28.943 30.2517 28.9293C29.4183 28.1684 28.2887 27.7298 27.1485 27.7298H15.4365C15.3745 26.8054 14.7309 25.9924 13.8428 25.6841C13.5926 25.5973 13.328 25.5545 13.0626 25.5545H11.7388V22.0841C11.7388 20.7918 12.8125 19.7405 14.1323 19.7405H21.6121C22.0004 19.7405 21.8085 19.3805 21.8085 19.0002C21.8085 18.62 20.5147 18.3635 20.1264 18.3635H14.1323C12.0371 18.3635 10.3325 20.0326 10.3325 22.0841V25.5545H9.37891C8.06716 25.5545 7 26.5996 7 27.8839V35.0726C7 37.7473 9.22244 39.9235 11.9541 39.9235H12.3075L11.537 41.9527C11.0513 43.2318 12.0511 44.6369 13.4425 44.6369H14.5737C15.2069 44.6369 15.813 44.3417 16.195 43.8472L19.226 39.9235H42.7742L45.8052 43.8472C46.1872 44.3417 46.7933 44.6369 47.4264 44.6369H48.5575C49.9506 44.6369 50.9486 43.2315 50.463 41.9527L49.6924 39.9235H50.0459C52.7776 39.9235 55 37.7473 55 35.0726V27.8839C55 26.5996 53.9328 25.5545 52.6211 25.5545ZM31.7031 22.0843C31.7031 20.7919 32.7768 19.7406 34.0967 19.7406H47.8677C49.1875 19.7406 50.2612 20.7919 50.2612 22.0842V25.5546H48.9373C48.0024 25.5546 47.1056 26.1421 46.743 26.985C46.6414 27.221 46.5806 27.4745 46.5635 27.73H34.8515C33.6937 27.73 32.5397 28.1862 31.7031 28.97V22.0843ZM15.4416 29.1069H27.1485C28.8845 29.107 30.2969 30.4899 30.2969 32.1898V33.1688H15.4416V29.1069ZM15.0735 43.0165C14.9557 43.169 14.7688 43.2599 14.5736 43.2599C14.5736 43.2599 13.4463 43.2599 13.4424 43.2599C13.0119 43.2599 12.7051 42.8275 12.8551 42.4326L13.8077 39.9235H17.4627L15.0735 43.0165ZM48.5575 43.2598H47.4264C47.2312 43.2598 47.0444 43.1689 46.9266 43.0165L44.5373 39.9235H48.1922C48.1922 39.9235 49.1417 42.4238 49.1449 42.4325C49.2952 42.8283 48.9862 43.2598 48.5575 43.2598ZM50.0459 38.5465H11.9541C9.99784 38.5466 8.40625 36.9881 8.40625 35.0726V27.8839C8.40625 27.3587 8.84256 26.9315 9.37891 26.9315H13.0626C13.599 26.9315 14.0353 27.3587 14.0353 27.8839V33.8572C14.0353 34.2374 14.3501 34.5457 14.7384 34.5457H40.5644C40.9527 34.5457 47.6643 34.2375 47.6643 33.8573C47.6643 33.4771 44.043 33.1688 43.6547 33.1688L31.7031 33.1687V32.1897C31.7031 30.4898 33.1155 29.1069 34.8515 29.1069H46.5584V33.1688H43.3769C42.9886 33.1688 27.9362 33.62 27.9362 34.0002C27.9362 34.3805 40.2476 34.5443 40.636 34.5443L47.2615 34.5458C47.6498 34.5458 47.9646 34.2375 47.9646 33.8573V27.884C47.9646 27.3588 48.4009 26.9316 48.9373 26.9316H52.621C53.1573 26.9316 53.5937 27.3588 53.5937 27.884V35.0726C53.5937 36.9881 52.0022 38.5465 50.0459 38.5465Z"/>
</mask>
<path d="M52.6211 25.5545H51.6675V22.0841C51.6675 20.0326 49.9629 18.3635 47.8677 18.3635H34.0967C32.8201 18.3635 31.6893 18.9838 31 19.932C30.3107 18.9837 29.1799 18.3635 27.9033 18.3635H19.2519C18.8636 18.3635 18.5488 18.6718 18.5488 19.052C18.5488 19.4322 18.8636 19.7405 19.2519 19.7405H27.9033C29.2232 19.7405 30.2969 20.7918 30.2969 22.0841V28.9698C30.2822 28.956 30.2666 28.943 30.2517 28.9293C29.4183 28.1684 28.2887 27.7298 27.1485 27.7298H15.4365C15.3745 26.8054 14.7309 25.9924 13.8428 25.6841C13.5926 25.5973 13.328 25.5545 13.0626 25.5545H11.7388V22.0841C11.7388 20.7918 12.8125 19.7405 14.1323 19.7405H21.6121C22.0004 19.7405 21.8085 19.3805 21.8085 19.0002C21.8085 18.62 20.5147 18.3635 20.1264 18.3635H14.1323C12.0371 18.3635 10.3325 20.0326 10.3325 22.0841V25.5545H9.37891C8.06716 25.5545 7 26.5996 7 27.8839V35.0726C7 37.7473 9.22244 39.9235 11.9541 39.9235H12.3075L11.537 41.9527C11.0513 43.2318 12.0511 44.6369 13.4425 44.6369H14.5737C15.2069 44.6369 15.813 44.3417 16.195 43.8472L19.226 39.9235H42.7742L45.8052 43.8472C46.1872 44.3417 46.7933 44.6369 47.4264 44.6369H48.5575C49.9506 44.6369 50.9486 43.2315 50.463 41.9527L49.6924 39.9235H50.0459C52.7776 39.9235 55 37.7473 55 35.0726V27.8839C55 26.5996 53.9328 25.5545 52.6211 25.5545ZM31.7031 22.0843C31.7031 20.7919 32.7768 19.7406 34.0967 19.7406H47.8677C49.1875 19.7406 50.2612 20.7919 50.2612 22.0842V25.5546H48.9373C48.0024 25.5546 47.1056 26.1421 46.743 26.985C46.6414 27.221 46.5806 27.4745 46.5635 27.73H34.8515C33.6937 27.73 32.5397 28.1862 31.7031 28.97V22.0843ZM15.4416 29.1069H27.1485C28.8845 29.107 30.2969 30.4899 30.2969 32.1898V33.1688H15.4416V29.1069ZM15.0735 43.0165C14.9557 43.169 14.7688 43.2599 14.5736 43.2599C14.5736 43.2599 13.4463 43.2599 13.4424 43.2599C13.0119 43.2599 12.7051 42.8275 12.8551 42.4326L13.8077 39.9235H17.4627L15.0735 43.0165ZM48.5575 43.2598H47.4264C47.2312 43.2598 47.0444 43.1689 46.9266 43.0165L44.5373 39.9235H48.1922C48.1922 39.9235 49.1417 42.4238 49.1449 42.4325C49.2952 42.8283 48.9862 43.2598 48.5575 43.2598ZM50.0459 38.5465H11.9541C9.99784 38.5466 8.40625 36.9881 8.40625 35.0726V27.8839C8.40625 27.3587 8.84256 26.9315 9.37891 26.9315H13.0626C13.599 26.9315 14.0353 27.3587 14.0353 27.8839V33.8572C14.0353 34.2374 14.3501 34.5457 14.7384 34.5457H40.5644C40.9527 34.5457 47.6643 34.2375 47.6643 33.8573C47.6643 33.4771 44.043 33.1688 43.6547 33.1688L31.7031 33.1687V32.1897C31.7031 30.4898 33.1155 29.1069 34.8515 29.1069H46.5584V33.1688H43.3769C42.9886 33.1688 27.9362 33.62 27.9362 34.0002C27.9362 34.3805 40.2476 34.5443 40.636 34.5443L47.2615 34.5458C47.6498 34.5458 47.9646 34.2375 47.9646 33.8573V27.884C47.9646 27.3588 48.4009 26.9316 48.9373 26.9316H52.621C53.1573 26.9316 53.5937 27.3588 53.5937 27.884V35.0726C53.5937 36.9881 52.0022 38.5465 50.0459 38.5465Z" fill="#494337"/>
<path d="M52.6211 25.5545H51.6675V22.0841C51.6675 20.0326 49.9629 18.3635 47.8677 18.3635H34.0967C32.8201 18.3635 31.6893 18.9838 31 19.932C30.3107 18.9837 29.1799 18.3635 27.9033 18.3635H19.2519C18.8636 18.3635 18.5488 18.6718 18.5488 19.052C18.5488 19.4322 18.8636 19.7405 19.2519 19.7405H27.9033C29.2232 19.7405 30.2969 20.7918 30.2969 22.0841V28.9698C30.2822 28.956 30.2666 28.943 30.2517 28.9293C29.4183 28.1684 28.2887 27.7298 27.1485 27.7298H15.4365C15.3745 26.8054 14.7309 25.9924 13.8428 25.6841C13.5926 25.5973 13.328 25.5545 13.0626 25.5545H11.7388V22.0841C11.7388 20.7918 12.8125 19.7405 14.1323 19.7405H21.6121C22.0004 19.7405 21.8085 19.3805 21.8085 19.0002C21.8085 18.62 20.5147 18.3635 20.1264 18.3635H14.1323C12.0371 18.3635 10.3325 20.0326 10.3325 22.0841V25.5545H9.37891C8.06716 25.5545 7 26.5996 7 27.8839V35.0726C7 37.7473 9.22244 39.9235 11.9541 39.9235H12.3075L11.537 41.9527C11.0513 43.2318 12.0511 44.6369 13.4425 44.6369H14.5737C15.2069 44.6369 15.813 44.3417 16.195 43.8472L19.226 39.9235H42.7742L45.8052 43.8472C46.1872 44.3417 46.7933 44.6369 47.4264 44.6369H48.5575C49.9506 44.6369 50.9486 43.2315 50.463 41.9527L49.6924 39.9235H50.0459C52.7776 39.9235 55 37.7473 55 35.0726V27.8839C55 26.5996 53.9328 25.5545 52.6211 25.5545ZM31.7031 22.0843C31.7031 20.7919 32.7768 19.7406 34.0967 19.7406H47.8677C49.1875 19.7406 50.2612 20.7919 50.2612 22.0842V25.5546H48.9373C48.0024 25.5546 47.1056 26.1421 46.743 26.985C46.6414 27.221 46.5806 27.4745 46.5635 27.73H34.8515C33.6937 27.73 32.5397 28.1862 31.7031 28.97V22.0843ZM15.4416 29.1069H27.1485C28.8845 29.107 30.2969 30.4899 30.2969 32.1898V33.1688H15.4416V29.1069ZM15.0735 43.0165C14.9557 43.169 14.7688 43.2599 14.5736 43.2599C14.5736 43.2599 13.4463 43.2599 13.4424 43.2599C13.0119 43.2599 12.7051 42.8275 12.8551 42.4326L13.8077 39.9235H17.4627L15.0735 43.0165ZM48.5575 43.2598H47.4264C47.2312 43.2598 47.0444 43.1689 46.9266 43.0165L44.5373 39.9235H48.1922C48.1922 39.9235 49.1417 42.4238 49.1449 42.4325C49.2952 42.8283 48.9862 43.2598 48.5575 43.2598ZM50.0459 38.5465H11.9541C9.99784 38.5466 8.40625 36.9881 8.40625 35.0726V27.8839C8.40625 27.3587 8.84256 26.9315 9.37891 26.9315H13.0626C13.599 26.9315 14.0353 27.3587 14.0353 27.8839V33.8572C14.0353 34.2374 14.3501 34.5457 14.7384 34.5457H40.5644C40.9527 34.5457 47.6643 34.2375 47.6643 33.8573C47.6643 33.4771 44.043 33.1688 43.6547 33.1688L31.7031 33.1687V32.1897C31.7031 30.4898 33.1155 29.1069 34.8515 29.1069H46.5584V33.1688H43.3769C42.9886 33.1688 27.9362 33.62 27.9362 34.0002C27.9362 34.3805 40.2476 34.5443 40.636 34.5443L47.2615 34.5458C47.6498 34.5458 47.9646 34.2375 47.9646 33.8573V27.884C47.9646 27.3588 48.4009 26.9316 48.9373 26.9316H52.621C53.1573 26.9316 53.5937 27.3588 53.5937 27.884V35.0726C53.5937 36.9881 52.0022 38.5465 50.0459 38.5465Z" stroke="#494337" stroke-width="0.2" mask="url(#path-6-outside-1)"/>
</g>
</g>
<defs>
<clipPath id="clip0">
<rect width="50" height="46" fill="white" transform="matrix(-1 0 0 1 56 8)"/>
</clipPath>
<clipPath id="clip1">
<rect width="48" height="47" fill="white" transform="translate(7 8)"/>
</clipPath>
</defs>
</svg>
