<svg width="62" height="62" viewBox="0 0 62 62" fill="none" xmlns="http://www.w3.org/2000/svg">
<g clip-path="url(#clip0)">
<path d="M30.5 37.0106H44.2193V11.7847H30.5" fill="#BC7C7C" fill-opacity="0.7"/>
<path d="M16.7812 42.2866H44.22V47.5756H16.7812V42.2866Z" fill="#BC7C7C" fill-opacity="0.7"/>
<path d="M16.7812 37.0105H44.22V42.2866H16.7812V37.0105Z" fill="#E5CAA2" fill-opacity="0.5"/>
<path d="M30.5007 16.2843V11.7847H16.7812V37.0106H30.5007V22.6961" fill="#E5CAA2" fill-opacity="0.5"/>
<path d="M15.875 47.5757C15.875 48.009 16.2805 48.3604 16.7804 48.3604H18.2286V49.2438C18.2286 50.2513 20.0394 50.2528 20.0394 49.2438V48.3604H40.9601V49.2438C40.9601 50.2513 42.771 50.2528 42.771 49.2438V48.3604H44.2191C44.7191 48.3604 45.1245 48.009 45.1245 47.5757V11.7847C45.1245 11.3514 44.7191 11 44.2191 11H30.4998H16.7804C16.2805 11 15.875 11.3514 15.875 11.7847V47.5757ZM43.3138 37.7954V41.502H17.6859V37.7954H43.3138ZM43.3138 36.226H31.4052V22.6961C31.4052 21.6885 29.5943 21.6871 29.5943 22.6961V36.226H17.6859V12.5694H29.5943V16.2844C29.5943 17.2919 31.4052 17.2933 31.4052 16.2844V12.5694H43.3137V36.226H43.3138ZM43.3138 46.791H17.6859V43.0714H43.3138V46.791Z" fill="#494337"/>
<path d="M31.3373 39.3483C31.1504 38.9534 30.6094 38.7595 30.1548 38.9238C29.6996 39.0883 29.4759 39.553 29.665 39.9487C29.8538 40.3436 30.3927 40.5359 30.8475 40.3724C31.3026 40.2087 31.5271 39.7435 31.3373 39.3483V39.3483Z" fill="#494337"/>
<path d="M29.6651 45.2305C29.8108 45.5387 30.1849 45.7387 30.5682 45.7129C30.954 45.6869 31.2843 45.4465 31.3793 45.1212C31.5771 44.4433 30.6852 43.8991 30.0119 44.2715C29.6486 44.4724 29.4992 44.8855 29.6651 45.2305Z" fill="#494337"/>
<path d="M34.1554 28.1795C34.6554 28.1795 35.0609 27.8282 35.0609 27.3948V25.2474C35.0609 24.2399 33.25 24.2384 33.25 25.2474V27.3948C33.25 27.8282 33.6555 28.1795 34.1554 28.1795V28.1795Z" fill="#494337"/>
<path d="M26.7765 24.4626C26.2765 24.4626 25.8711 24.814 25.8711 25.2474V27.3948C25.8711 28.4023 27.6819 28.4037 27.6819 27.3948V25.2474C27.6819 24.814 27.2766 24.4626 26.7765 24.4626Z" fill="#494337"/>
<path d="M29.6644 19.7502C29.8539 20.1441 30.3916 20.3382 30.8469 20.1739C31.3026 20.0095 31.5254 19.5458 31.3368 19.1498C31.1487 18.7553 30.6095 18.5609 30.1543 18.7254C29.6977 18.8903 29.4771 19.3538 29.6644 19.7502V19.7502Z" fill="#494337"/>
</g>
<defs>
<clipPath id="clip0">
<rect width="45" height="39" fill="white" transform="translate(8 11)"/>
</clipPath>
</defs>
</svg>
