<svg width="100" height="100" viewBox="0 0 100 100" fill="none" xmlns="http://www.w3.org/2000/svg">
<path d="M86.5815 42.6H19.3254H17.6299V62.6727V69.1963C17.6299 69.1963 16.6285 70.2 20.4558 70.2H76.4083H85.4512L86.5815 67.1891V42.6Z" fill="#E0C49C"/>
<path d="M86.6932 28.7142H18.0394H16.3086V33.7012V35.322L19.1932 35.5714H76.3086H85.5394L86.6932 34.8233V28.7142Z" fill="#E0C49C"/>
<path d="M57.8457 61.6087L62.7624 57.236L64.4932 56.1428L70.2624 61.6087L65.07 68.7143L57.8457 61.6087Z" fill="white"/>
<path d="M67.0762 61.6087L71.9929 57.236L73.7237 56.1428L79.4929 61.6087L74.3005 68.7143L67.0762 61.6087Z" fill="white"/>
<path d="M67.0762 61.8216L72.2685 57.2786L73.9993 56.1428L79.7685 61.8216L73.4223 67.5714L67.0762 61.8216Z" fill="#BC7C7C"/>
<path d="M59.2754 60.4658L64.1921 56.0932L65.9229 55L71.6921 60.4658L66.4997 67.5714L59.2754 60.4658Z" fill="#81B2CE"/>
<path d="M83.9792 26.6977H83.979L19.019 26.6977L19.0188 26.6977C17.9642 26.6989 16.9529 27.1148 16.2068 27.8545C15.4607 28.5943 15.0407 29.5976 15.0395 30.6444V30.6445L15.0395 71.3527L15.0395 71.3528C15.0407 72.3996 15.4607 73.4029 16.2068 74.1427C16.9529 74.8824 17.9642 75.2983 19.0188 75.2995H19.019H83.979H83.9792C85.0338 75.2983 86.045 74.8824 86.7911 74.1427C87.5373 73.4029 87.9573 72.3996 87.9585 71.3528V71.3527V30.6445V30.6444C87.9573 29.5976 87.5373 28.5943 86.7911 27.8545C86.045 27.1148 85.0338 26.6989 83.9792 26.6977ZM19.0192 28.9664H83.9788C84.4283 28.967 84.859 29.1443 85.1765 29.459C85.4939 29.7738 85.6723 30.2002 85.6728 30.6447V34.5743H17.3251L17.3251 30.6447C17.3251 30.6447 17.3251 30.6446 17.3251 30.6445C17.3257 30.2001 17.5041 29.7737 17.8215 29.459C18.1389 29.1443 18.5696 28.967 19.0192 28.9664ZM85.6728 41.4475H17.3251V36.8431H85.6728V41.4475ZM83.9788 73.0308H19.0192C18.5696 73.0302 18.1389 72.8529 17.8215 72.5382C17.5041 72.2235 17.3257 71.7971 17.3251 71.3527C17.3251 71.3526 17.3251 71.3525 17.3251 71.3525L17.3251 43.7152H85.6728V71.3525C85.6723 71.797 85.4939 72.2234 85.1765 72.5382C84.859 72.8529 84.4283 73.0302 83.9788 73.0308Z" fill="#494337" stroke="#494337" stroke-width="0.3"/>
<mask id="path-8-outside-1" maskUnits="userSpaceOnUse" x="55.875" y="53.4723" width="26" height="17" fill="black">
<rect fill="white" x="55.875" y="53.4723" width="26" height="17"/>
<path d="M76.0795 55.5844C75.7239 55.2318 75.3018 54.9522 74.8372 54.7614C74.3727 54.5705 73.8747 54.4723 73.3719 54.4723C72.869 54.4723 72.3711 54.5705 71.9065 54.7614C71.4419 54.9522 71.0198 55.2318 70.6643 55.5844L68.9186 57.3174L67.1712 55.5844C66.8156 55.2318 66.3934 54.9521 65.9288 54.7613C65.4641 54.5705 64.9662 54.4723 64.4633 54.4723C63.9604 54.4723 63.4624 54.5705 62.9978 54.7613C62.5331 54.9521 62.111 55.2318 61.7554 55.5844L57.9945 59.3138C57.2776 60.0264 56.875 60.9918 56.875 61.9983C56.875 63.0048 57.2776 63.9702 57.9945 64.6828L61.7554 68.4122C62.111 68.7648 62.5331 69.0444 62.9978 69.2353C63.4624 69.4261 63.9604 69.5243 64.4633 69.5243C64.9662 69.5243 65.4641 69.4261 65.9288 69.2353C66.3934 69.0444 66.8156 68.7648 67.1712 68.4122L68.9186 66.6791L70.666 68.4122C71.0215 68.7647 71.4436 69.0444 71.9082 69.2352C72.3728 69.426 72.8707 69.5242 73.3736 69.5242C73.8764 69.5242 74.3744 69.426 74.8389 69.2352C75.3035 69.0444 75.7256 68.7647 76.0812 68.4122L79.8426 64.6828C80.5595 63.9702 80.9621 63.0048 80.9621 61.9983C80.9621 60.9918 80.5595 60.0264 79.8426 59.3138L76.0795 55.5844ZM65.7653 67.02C65.4138 67.3527 64.9464 67.5384 64.4604 67.5384C63.9744 67.5384 63.5071 67.3527 63.1556 67.02L59.3947 63.2912C59.0489 62.9479 58.8547 62.4826 58.8547 61.9974C58.8547 61.5123 59.0489 61.047 59.3947 60.7037L63.1556 56.9749C63.507 56.6419 63.9743 56.4561 64.4604 56.4561C64.9465 56.4561 65.4139 56.6419 65.7653 56.9749L69.5256 60.7043C69.6974 60.8739 69.8336 61.0756 69.9266 61.2976C70.0196 61.5196 70.0674 61.7576 70.0674 61.998C70.0674 62.2384 70.0196 62.4764 69.9266 62.6984C69.8336 62.9204 69.6974 63.1221 69.5256 63.2918L68.2145 64.5917L65.7653 67.02ZM78.4368 63.2912L74.6759 67.02C74.3245 67.353 73.8571 67.5388 73.371 67.5388C72.8849 67.5388 72.4176 67.353 72.0661 67.02L70.3204 65.2858L70.9298 64.6817C71.2855 64.3292 71.5677 63.9107 71.7603 63.45C71.9528 62.9893 72.0519 62.4955 72.0519 61.9969C72.0519 61.4982 71.9528 61.0045 71.7603 60.5438C71.5677 60.0831 71.2855 59.6646 70.9298 59.3121L70.3204 58.7074L72.0684 56.9749C72.4197 56.6417 72.8871 56.4557 73.3733 56.4557C73.8595 56.4557 74.3269 56.6417 74.6782 56.9749L78.439 60.7037C78.7845 61.0473 78.9783 61.5128 78.9778 61.9979C78.9774 62.483 78.7828 62.9482 78.4368 63.2912Z"/>
</mask>
<path d="M76.0795 55.5844C75.7239 55.2318 75.3018 54.9522 74.8372 54.7614C74.3727 54.5705 73.8747 54.4723 73.3719 54.4723C72.869 54.4723 72.3711 54.5705 71.9065 54.7614C71.4419 54.9522 71.0198 55.2318 70.6643 55.5844L68.9186 57.3174L67.1712 55.5844C66.8156 55.2318 66.3934 54.9521 65.9288 54.7613C65.4641 54.5705 64.9662 54.4723 64.4633 54.4723C63.9604 54.4723 63.4624 54.5705 62.9978 54.7613C62.5331 54.9521 62.111 55.2318 61.7554 55.5844L57.9945 59.3138C57.2776 60.0264 56.875 60.9918 56.875 61.9983C56.875 63.0048 57.2776 63.9702 57.9945 64.6828L61.7554 68.4122C62.111 68.7648 62.5331 69.0444 62.9978 69.2353C63.4624 69.4261 63.9604 69.5243 64.4633 69.5243C64.9662 69.5243 65.4641 69.4261 65.9288 69.2353C66.3934 69.0444 66.8156 68.7648 67.1712 68.4122L68.9186 66.6791L70.666 68.4122C71.0215 68.7647 71.4436 69.0444 71.9082 69.2352C72.3728 69.426 72.8707 69.5242 73.3736 69.5242C73.8764 69.5242 74.3744 69.426 74.8389 69.2352C75.3035 69.0444 75.7256 68.7647 76.0812 68.4122L79.8426 64.6828C80.5595 63.9702 80.9621 63.0048 80.9621 61.9983C80.9621 60.9918 80.5595 60.0264 79.8426 59.3138L76.0795 55.5844ZM65.7653 67.02C65.4138 67.3527 64.9464 67.5384 64.4604 67.5384C63.9744 67.5384 63.5071 67.3527 63.1556 67.02L59.3947 63.2912C59.0489 62.9479 58.8547 62.4826 58.8547 61.9974C58.8547 61.5123 59.0489 61.047 59.3947 60.7037L63.1556 56.9749C63.507 56.6419 63.9743 56.4561 64.4604 56.4561C64.9465 56.4561 65.4139 56.6419 65.7653 56.9749L69.5256 60.7043C69.6974 60.8739 69.8336 61.0756 69.9266 61.2976C70.0196 61.5196 70.0674 61.7576 70.0674 61.998C70.0674 62.2384 70.0196 62.4764 69.9266 62.6984C69.8336 62.9204 69.6974 63.1221 69.5256 63.2918L68.2145 64.5917L65.7653 67.02ZM78.4368 63.2912L74.6759 67.02C74.3245 67.353 73.8571 67.5388 73.371 67.5388C72.8849 67.5388 72.4176 67.353 72.0661 67.02L70.3204 65.2858L70.9298 64.6817C71.2855 64.3292 71.5677 63.9107 71.7603 63.45C71.9528 62.9893 72.0519 62.4955 72.0519 61.9969C72.0519 61.4982 71.9528 61.0045 71.7603 60.5438C71.5677 60.0831 71.2855 59.6646 70.9298 59.3121L70.3204 58.7074L72.0684 56.9749C72.4197 56.6417 72.8871 56.4557 73.3733 56.4557C73.8595 56.4557 74.3269 56.6417 74.6782 56.9749L78.439 60.7037C78.7845 61.0473 78.9783 61.5128 78.9778 61.9979C78.9774 62.483 78.7828 62.9482 78.4368 63.2912Z" fill="#494337"/>
<path d="M76.0795 55.5844L75.8682 55.7974L75.8683 55.7975L76.0795 55.5844ZM73.3719 54.4723V54.1723V54.4723ZM70.6643 55.5844L70.453 55.3714L70.4529 55.3715L70.6643 55.5844ZM68.9186 57.3174L68.7073 57.5305L68.9187 57.7401L69.1299 57.5303L68.9186 57.3174ZM67.1712 55.5844L67.3824 55.3714L67.3824 55.3713L67.1712 55.5844ZM61.7554 55.5844L61.5441 55.3713L61.5441 55.3714L61.7554 55.5844ZM57.9945 59.3138L57.7833 59.1007L57.783 59.101L57.9945 59.3138ZM57.9945 64.6828L57.783 64.8956L57.7833 64.8958L57.9945 64.6828ZM61.7554 68.4122L61.5441 68.6252L61.5441 68.6252L61.7554 68.4122ZM67.1712 68.4122L67.3824 68.6252L67.3824 68.6252L67.1712 68.4122ZM68.9186 66.6791L69.1298 66.4661L68.9186 66.2566L68.7073 66.4661L68.9186 66.6791ZM70.666 68.4122L70.4547 68.6252L70.4547 68.6252L70.666 68.4122ZM76.0812 68.4122L75.87 68.1991L75.8699 68.1992L76.0812 68.4122ZM79.8426 64.6828L80.0538 64.8959L80.0541 64.8956L79.8426 64.6828ZM80.9621 61.9983H80.6621H80.9621ZM79.8426 59.3138L80.0541 59.101L80.0538 59.1007L79.8426 59.3138ZM65.7653 67.02L65.9716 67.2379L65.9765 67.233L65.7653 67.02ZM63.1556 67.02L62.9443 67.2331L62.9493 67.2379L63.1556 67.02ZM59.3947 63.2912L59.1833 63.5041L59.1835 63.5042L59.3947 63.2912ZM59.3947 60.7037L59.1835 60.4907L59.1833 60.4908L59.3947 60.7037ZM63.1556 56.9749L62.9492 56.7571L62.9443 56.7618L63.1556 56.9749ZM65.7653 56.9749L65.9766 56.7618L65.9716 56.7571L65.7653 56.9749ZM69.5256 60.7043L69.3144 60.9173L69.3148 60.9177L69.5256 60.7043ZM69.5256 63.2918L69.3148 63.0783L69.3144 63.0787L69.5256 63.2918ZM68.2145 64.5917L68.4257 64.8047L68.4257 64.8047L68.2145 64.5917ZM78.4368 63.2912L78.2256 63.0781L78.2255 63.0781L78.4368 63.2912ZM74.6759 67.02L74.8823 67.2378L74.8871 67.233L74.6759 67.02ZM72.0661 67.02L71.8547 67.2329L71.8598 67.2378L72.0661 67.02ZM70.3204 65.2858L70.1092 65.0728L69.8946 65.2856L70.109 65.4986L70.3204 65.2858ZM70.9298 64.6817L70.7186 64.4686L70.7185 64.4686L70.9298 64.6817ZM72.0519 61.9969L72.3519 61.9969L72.0519 61.9969ZM70.9298 59.3121L70.7185 59.525L70.7186 59.5252L70.9298 59.3121ZM70.3204 58.7074L70.1093 58.4943L69.8944 58.7072L70.1091 58.9203L70.3204 58.7074ZM72.0684 56.9749L71.8619 56.7572L71.8572 56.7618L72.0684 56.9749ZM74.6782 56.9749L74.8894 56.7618L74.8846 56.7572L74.6782 56.9749ZM78.439 60.7037L78.6506 60.491L78.6503 60.4907L78.439 60.7037ZM76.2907 55.3714C75.9072 54.9911 75.452 54.6895 74.9512 54.4838L74.7233 55.0389C75.1516 55.2148 75.5407 55.4726 75.8682 55.7974L76.2907 55.3714ZM74.9512 54.4838C74.4504 54.2782 73.9138 54.1723 73.3719 54.1723V54.7723C73.8357 54.7723 74.2949 54.8629 74.7233 55.0389L74.9512 54.4838ZM73.3719 54.1723C72.83 54.1723 72.2933 54.2782 71.7925 54.4838L72.0205 55.0389C72.4488 54.8629 72.9081 54.7723 73.3719 54.7723V54.1723ZM71.7925 54.4838C71.2917 54.6895 70.8366 54.9911 70.453 55.3714L70.8755 55.7974C71.2031 55.4726 71.5921 55.2148 72.0205 55.0389L71.7925 54.4838ZM70.4529 55.3715L68.7072 57.1045L69.1299 57.5303L70.8756 55.7973L70.4529 55.3715ZM69.1298 57.1044L67.3824 55.3714L66.9599 55.7974L68.7073 57.5305L69.1298 57.1044ZM67.3824 55.3713C66.9988 54.991 66.5436 54.6895 66.0427 54.4838L65.8148 55.0388C66.2432 55.2148 66.6323 55.4726 66.9599 55.7974L67.3824 55.3713ZM66.0427 54.4838C65.5419 54.2781 65.0052 54.1723 64.4633 54.1723V54.7723C64.9271 54.7723 65.3864 54.8629 65.8148 55.0388L66.0427 54.4838ZM64.4633 54.1723C63.9213 54.1723 63.3846 54.2781 62.8838 54.4838L63.1117 55.0388C63.5401 54.8629 63.9994 54.7723 64.4633 54.7723V54.1723ZM62.8838 54.4838C62.383 54.6895 61.9277 54.991 61.5441 55.3713L61.9666 55.7974C62.2942 55.4726 62.6833 55.2148 63.1117 55.0388L62.8838 54.4838ZM61.5441 55.3714L57.7833 59.1007L58.2057 59.5268L61.9666 55.7974L61.5441 55.3714ZM57.783 59.101C57.0097 59.8696 56.575 60.9115 56.575 61.9983H57.175C57.175 61.072 57.5455 60.1831 58.206 59.5265L57.783 59.101ZM56.575 61.9983C56.575 63.085 57.0097 64.1269 57.783 64.8956L58.206 64.47C57.5455 63.8135 57.175 62.9245 57.175 61.9983H56.575ZM57.7833 64.8958L61.5441 68.6252L61.9666 68.1992L58.2057 64.4698L57.7833 64.8958ZM61.5441 68.6252C61.9277 69.0055 62.383 69.3071 62.8838 69.5128L63.1117 68.9577C62.6833 68.7818 62.2942 68.524 61.9666 68.1991L61.5441 68.6252ZM62.8838 69.5128C63.3846 69.7184 63.9213 69.8243 64.4633 69.8243V69.2243C63.9994 69.2243 63.5401 69.1337 63.1117 68.9577L62.8838 69.5128ZM64.4633 69.8243C65.0052 69.8243 65.5419 69.7184 66.0427 69.5128L65.8148 68.9577C65.3864 69.1337 64.9271 69.2243 64.4633 69.2243V69.8243ZM66.0427 69.5128C66.5436 69.3071 66.9988 69.0055 67.3824 68.6252L66.9599 68.1991C66.6323 68.524 66.2432 68.7818 65.8148 68.9577L66.0427 69.5128ZM67.3824 68.6252L69.1298 66.8921L68.7073 66.4661L66.9599 68.1992L67.3824 68.6252ZM68.7073 66.8921L70.4547 68.6252L70.8772 68.1992L69.1298 66.4661L68.7073 66.8921ZM70.4547 68.6252C70.8383 69.0055 71.2934 69.307 71.7942 69.5127L72.0222 68.9577C71.5938 68.7818 71.2048 68.524 70.8772 68.1992L70.4547 68.6252ZM71.7942 69.5127C72.295 69.7184 72.8317 69.8242 73.3736 69.8242V69.2242C72.9098 69.2242 72.4505 69.1336 72.0222 68.9577L71.7942 69.5127ZM73.3736 69.8242C73.9155 69.8242 74.4521 69.7184 74.9529 69.5127L74.725 68.9577C74.2966 69.1336 73.8374 69.2242 73.3736 69.2242V69.8242ZM74.9529 69.5127C75.4537 69.307 75.9089 69.0055 76.2924 68.6252L75.8699 68.1992C75.5424 68.524 75.1533 68.7818 74.725 68.9577L74.9529 69.5127ZM76.2924 68.6252L80.0538 64.8959L79.6314 64.4698L75.87 68.1991L76.2924 68.6252ZM80.0541 64.8956C80.8274 64.1269 81.2621 63.085 81.2621 61.9983H80.6621C80.6621 62.9245 80.2917 63.8135 79.6311 64.47L80.0541 64.8956ZM81.2621 61.9983C81.2621 60.9115 80.8274 59.8696 80.0541 59.101L79.6311 59.5265C80.2917 60.1831 80.6621 61.072 80.6621 61.9983H81.2621ZM80.0538 59.1007L76.2907 55.3713L75.8683 55.7975L79.6314 59.5268L80.0538 59.1007ZM65.5591 66.8021C65.2635 67.0819 64.8701 67.2384 64.4604 67.2384V67.8384C65.0228 67.8384 65.564 67.6236 65.9715 67.2379L65.5591 66.8021ZM64.4604 67.2384C64.0508 67.2384 63.6574 67.0819 63.3618 66.8021L62.9493 67.2379C63.3569 67.6236 63.8981 67.8384 64.4604 67.8384V67.2384ZM63.3668 66.807L59.6059 63.0781L59.1835 63.5042L62.9443 67.233L63.3668 66.807ZM59.6061 63.0783C59.3168 62.7911 59.1547 62.4023 59.1547 61.9974H58.5547C58.5547 62.5629 58.7811 63.1047 59.1833 63.5041L59.6061 63.0783ZM59.1547 61.9974C59.1547 61.5926 59.3168 61.2038 59.6061 60.9166L59.1833 60.4908C58.7811 60.8901 58.5547 61.432 58.5547 61.9974H59.1547ZM59.6059 60.9167L63.3668 57.1879L62.9443 56.7618L59.1835 60.4907L59.6059 60.9167ZM63.3619 57.1927C63.6573 56.9127 64.0508 56.7561 64.4604 56.7561V56.1561C63.8979 56.1561 63.3566 56.3711 62.9492 56.7571L63.3619 57.1927ZM64.4604 56.7561C64.8701 56.7561 65.2635 56.9127 65.559 57.1927L65.9716 56.7571C65.5642 56.3711 65.0229 56.1561 64.4604 56.1561V56.7561ZM65.554 57.1879L69.3144 60.9173L69.7369 60.4912L65.9766 56.7619L65.554 57.1879ZM69.3148 60.9177C69.4584 61.0596 69.5723 61.2281 69.6499 61.4135L70.2033 61.1817C70.095 60.923 69.9363 60.6883 69.7365 60.4908L69.3148 60.9177ZM69.6499 61.4135C69.7275 61.5988 69.7674 61.7975 69.7674 61.998H70.3674C70.3674 61.7178 70.3116 61.4404 70.2033 61.1817L69.6499 61.4135ZM69.7674 61.998C69.7674 62.1985 69.7275 62.3972 69.6499 62.5825L70.2033 62.8143C70.3116 62.5557 70.3674 62.2782 70.3674 61.998H69.7674ZM69.6499 62.5825C69.5723 62.7679 69.4584 62.9364 69.3148 63.0783L69.7365 63.5052C69.9363 63.3077 70.095 63.073 70.2033 62.8143L69.6499 62.5825ZM69.3144 63.0787L68.0033 64.3787L68.4257 64.8047L69.7368 63.5048L69.3144 63.0787ZM68.0033 64.3787L65.5541 66.807L65.9765 67.233L68.4257 64.8047L68.0033 64.3787ZM78.2255 63.0781L74.4647 66.807L74.8871 67.233L78.648 63.5042L78.2255 63.0781ZM74.4695 66.8022C74.1741 67.0822 73.7807 67.2388 73.371 67.2388V67.8388C73.9335 67.8388 74.4748 67.6238 74.8822 67.2378L74.4695 66.8022ZM73.371 67.2388C72.9613 67.2388 72.5679 67.0822 72.2725 66.8022L71.8598 67.2378C72.2672 67.6238 72.8085 67.8388 73.371 67.8388V67.2388ZM72.2776 66.8072L70.5319 65.073L70.109 65.4986L71.8547 67.2328L72.2776 66.8072ZM70.5317 65.4989L71.141 64.8947L70.7185 64.4686L70.1092 65.0728L70.5317 65.4989ZM71.1409 64.8948C71.5247 64.5146 71.8292 64.0629 72.0371 63.5657L71.4835 63.3343C71.3062 63.7584 71.0464 64.1438 70.7186 64.4686L71.1409 64.8948ZM72.0371 63.5657C72.2449 63.0684 72.3519 62.5353 72.3519 61.9969L71.7519 61.9969C71.7519 62.4558 71.6607 62.9102 71.4835 63.3343L72.0371 63.5657ZM72.3519 61.9969C72.3519 61.4585 72.2449 60.9254 72.0371 60.4281L71.4835 60.6595C71.6607 61.0835 71.7519 61.538 71.7519 61.9969L72.3519 61.9969ZM72.0371 60.4281C71.8292 59.9308 71.5247 59.4792 71.1409 59.099L70.7186 59.5252C71.0464 59.8499 71.3062 60.2354 71.4835 60.6595L72.0371 60.4281ZM71.1411 59.0991L70.5318 58.4944L70.1091 58.9203L70.7185 59.525L71.1411 59.0991ZM70.5316 58.9205L72.2796 57.188L71.8572 56.7618L70.1093 58.4943L70.5316 58.9205ZM72.2749 57.1925C72.5702 56.9124 72.9636 56.7557 73.3733 56.7557V56.1557C72.8106 56.1557 72.2692 56.3709 71.8619 56.7572L72.2749 57.1925ZM73.3733 56.7557C73.783 56.7557 74.1764 56.9124 74.4717 57.1925L74.8846 56.7572C74.4773 56.3709 73.9359 56.1557 73.3733 56.1557V56.7557ZM74.4669 57.1879L78.2278 60.9167L78.6503 60.4907L74.8894 56.7618L74.4669 57.1879ZM78.2275 60.9164C78.5165 61.2039 78.6782 61.5928 78.6778 61.9976L79.2778 61.9982C79.2783 61.4327 79.0524 60.8907 78.6506 60.491L78.2275 60.9164ZM78.6778 61.9976C78.6775 62.4025 78.5151 62.7911 78.2256 63.0781L78.648 63.5043C79.0505 63.1053 79.2774 62.5636 79.2778 61.9982L78.6778 61.9976Z" fill="#494337" mask="url(#path-8-outside-1)"/>
<path d="M48.3836 67.4057H21.8561C21.5534 67.4057 21.2629 67.5249 21.0485 67.7375C20.834 67.9501 20.7133 68.2388 20.7133 68.54C20.7133 68.8413 20.834 69.13 21.0485 69.3426C21.2629 69.5552 21.5534 69.6744 21.8561 69.6744H48.3836C48.6863 69.6744 48.9769 69.5552 49.1913 69.3426C49.4057 69.13 49.5265 68.8413 49.5265 68.54C49.5265 68.2388 49.4057 67.9501 49.1913 67.7375C48.9769 67.5249 48.6863 67.4057 48.3836 67.4057Z" fill="#494337" stroke="#494337" stroke-width="0.3"/>
<path d="M48.3836 62.5924H21.8561C21.5534 62.5924 21.2629 62.7116 21.0485 62.9242C20.834 63.1369 20.7133 63.4255 20.7133 63.7268C20.7133 64.0281 20.834 64.3168 21.0485 64.5294C21.2629 64.742 21.5534 64.8612 21.8561 64.8612H48.3836C48.6863 64.8612 48.9769 64.742 49.1913 64.5294C49.4057 64.3168 49.5265 64.0281 49.5265 63.7268C49.5265 63.4255 49.4057 63.1369 49.1913 62.9242C48.9769 62.7116 48.6863 62.5924 48.3836 62.5924Z" fill="#494337" stroke="#494337" stroke-width="0.3"/>
<path d="M48.3836 57.7798H21.8561C21.5534 57.7798 21.2629 57.899 21.0485 58.1116C20.834 58.3242 20.7133 58.6129 20.7133 58.9142C20.7133 59.2155 20.834 59.5041 21.0485 59.7168C21.2629 59.9294 21.5534 60.0486 21.8561 60.0486H48.3836C48.6863 60.0486 48.9769 59.9294 49.1913 59.7168C49.4057 59.5041 49.5265 59.2155 49.5265 58.9142C49.5265 58.6129 49.4057 58.3242 49.1913 58.1116C48.9769 57.899 48.6863 57.7798 48.3836 57.7798Z" fill="#494337" stroke="#494337" stroke-width="0.3"/>
</svg>
