<svg width="23" height="26" viewBox="0 0 23 26" fill="none" xmlns="http://www.w3.org/2000/svg">
<path fill-rule="evenodd" clip-rule="evenodd" d="M11.0336 4.38689C11.2113 4.28824 11.4276 4.28801 11.6055 4.38628L17.3496 7.55802C17.6342 7.71521 17.7372 8.07276 17.5796 8.35663C17.422 8.6405 17.0634 8.74319 16.7787 8.586L11.3208 5.57226L6.15609 8.43851C5.87176 8.5963 5.51298 8.49437 5.35474 8.21084C5.1965 7.92731 5.29872 7.56954 5.58305 7.41175L11.0336 4.38689ZM11.3216 17.6194C11.647 17.6205 11.9099 17.8844 11.9088 18.2089L11.9008 20.5294L16.4831 17.9872C16.7675 17.8295 17.1262 17.9315 17.2844 18.215C17.4426 18.4986 17.3404 18.8563 17.056 19.0141L11.5946 22.0439C11.414 22.1441 11.194 22.1426 11.0148 22.04L5.72347 19.0102C5.44128 18.8486 5.34389 18.4895 5.50592 18.2081C5.66796 17.9267 6.02808 17.8296 6.31026 17.9911L10.7224 20.5176L10.7304 18.2049C10.7315 17.8804 10.9962 17.6183 11.3216 17.6194Z" fill="url(#paint0_linear)"/>
<path fill-rule="evenodd" clip-rule="evenodd" d="M19.1806 8.62208C19.3574 8.73074 19.4658 8.92816 19.4658 9.14141V16.9878C19.4658 17.3212 19.2055 17.5914 18.8844 17.5914C18.5632 17.5914 18.3029 17.3212 18.3029 16.9878V10.1606L12.0413 13.7238V15.8418C12.0413 16.1752 11.781 16.4454 11.4599 16.4454C11.1388 16.4454 10.8785 16.1752 10.8785 15.8418V13.7262L4.78491 10.3049V17.2896C4.78491 17.6229 4.5246 17.8932 4.20349 17.8932C3.88238 17.8932 3.62207 17.6229 3.62207 17.2896V9.2923C3.62207 9.07967 3.72986 8.88271 3.90581 8.77384C4.08176 8.66497 4.29991 8.66025 4.48009 8.76141L11.458 12.6792L18.6049 8.61215C18.785 8.50964 19.0039 8.51342 19.1806 8.62208Z" fill="url(#paint1_linear)"/>
<path fill-rule="evenodd" clip-rule="evenodd" d="M10.0562 1.19434C10.8219 0.726942 11.6479 0.722277 12.4106 1.19435L22.3298 6.55295C22.8838 6.89585 23.1197 7.46864 22.7734 8.01728C22.4271 8.56592 21.7008 8.36018 21.1468 8.01728L11.2391 2.59924L1.91148 7.87086V18.3317L11.387 23.5392L21.0115 18.1246C21.5787 17.8036 22.4492 17.7059 22.7734 18.2676C23.0976 18.8294 22.7653 19.403 22.198 19.724L12.8657 25.2964C12.1597 25.6959 10.9215 25.6754 10.204 25.2964L1.18358 20.1713C0.412587 19.7641 0.000577639 19.5145 0.000577639 18.6492L0.000631776 8.31015C-0.0147947 7.46637 0.250647 6.68645 0.97764 6.297L10.0562 1.19434Z" fill="url(#paint2_linear)"/>
<defs>
<linearGradient id="paint0_linear" x1="5.28027" y1="12.886" x2="17.6535" y2="12.9797" gradientUnits="userSpaceOnUse">
<stop stop-color="#1758A0"/>
<stop offset="1" stop-color="#0A3D76"/>
</linearGradient>
<linearGradient id="paint1_linear" x1="3.62207" y1="12.6826" x2="19.4634" y2="12.8952" gradientUnits="userSpaceOnUse">
<stop stop-color="#CD1732"/>
<stop offset="0.5" stop-color="#B6142C"/>
<stop offset="1" stop-color="#8B1022"/>
</linearGradient>
<linearGradient id="paint2_linear" x1="1.29845e-07" y1="11.8056" x2="22.9351" y2="11.9741" gradientUnits="userSpaceOnUse">
<stop stop-color="#B6142C"/>
<stop offset="1" stop-color="#A62E41"/>
</linearGradient>
</defs>
</svg>
