<svg width="62" height="62" viewBox="0 0 62 62" fill="none" xmlns="http://www.w3.org/2000/svg">
<g clip-path="url(#clip0)">
<rect x="16.4648" y="19.5254" width="14.0345" height="21.9492" fill="#DBB680" fill-opacity="0.73"/>
<rect x="14.9844" y="41.2422" width="31.0323" height="4.17743" fill="#64775E" fill-opacity="0.56"/>
<rect x="12.5977" y="15.5806" width="35.8065" height="4.17742" fill="#64775E" fill-opacity="0.56"/>
<path d="M47.5547 15.274H13.4453C12.6208 15.274 11.95 15.9447 11.95 16.7693V18.5759C11.95 19.1178 12.2404 19.592 12.6727 19.8542V40.9783C12.6727 41.5202 12.9631 41.9943 13.3953 42.2565V44.9529C13.3953 45.3796 13.7412 45.7255 14.168 45.7255H46.832C47.2587 45.7255 47.6047 45.3796 47.6047 44.9529V42.2565C48.0368 41.9943 48.3273 41.5202 48.3273 40.9783V19.8542C48.7595 19.592 49.0499 19.1178 49.0499 18.5759V16.7693C49.05 15.9447 48.3792 15.274 47.5547 15.274ZM47.5047 16.8192V18.5259H13.4953L13.4952 16.8192H47.5047ZM46.782 40.9283H31.2727V35.9198C31.2727 35.4931 30.9267 35.1472 30.5 35.1472C30.0733 35.1472 29.7273 35.4931 29.7273 35.9198V40.9283H14.218V20.0712H29.7273V29.4158C29.7273 29.8426 30.0733 30.1885 30.5 30.1885C30.9267 30.1885 31.2727 29.8426 31.2727 29.4158V20.0712H46.782V40.9283ZM14.9406 44.1802V42.4736H46.0594V44.1802H14.9406Z" fill="#494337" stroke="#494337" stroke-width="0.1"/>
<path d="M33.3906 30.1887H36.2812C36.7079 30.1887 37.0539 29.8428 37.0539 29.416V22.1895C37.0539 21.7627 36.7079 21.4168 36.2812 21.4168H33.3906C32.964 21.4168 32.618 21.7627 32.618 22.1895V29.416C32.618 29.8428 32.964 30.1887 33.3906 30.1887ZM34.1633 22.962H35.5086V28.6433H34.1633V22.962Z" fill="#494337" stroke="#494337" stroke-width="0.1"/>
<path d="M27.6094 21.4168H24.7188C24.292 21.4168 23.9461 21.7627 23.9461 22.1895V29.416C23.9461 29.8428 24.292 30.1887 24.7188 30.1887H27.6094C28.0361 30.1887 28.382 29.8428 28.382 29.416V22.1895C28.382 21.7627 28.036 21.4168 27.6094 21.4168ZM26.8367 28.6434H25.4914V22.9622H26.8367V28.6434Z" fill="#494337" stroke="#494337" stroke-width="0.1"/>
<path d="M30.5 31.8953C30.0732 31.8953 29.7273 32.2415 29.7273 32.6682C29.7273 33.0949 30.0733 33.4408 30.5 33.4408C30.9267 33.4408 31.2727 33.0949 31.2727 32.6682V32.6677C31.2727 32.2409 30.9267 31.8953 30.5 31.8953Z" fill="#494337" stroke="#494337" stroke-width="0.1"/>
</g>
<defs>
<clipPath id="clip0">
<rect width="37" height="37" fill="white" transform="translate(12 12)"/>
</clipPath>
</defs>
</svg>
