<svg width="100" height="100" viewBox="0 0 100 100" fill="none" xmlns="http://www.w3.org/2000/svg">
<path d="M68.725 63.6161L58.1508 63.3876C53.6454 62.3338 49.0315 64.6549 47.1924 68.9008L42.7617 79.4547C53.965 79.1759 63.6661 72.8489 68.725 63.6161Z" fill="#132413" fill-opacity="0.6"/>
<path d="M12.1711 55.2673C12.1521 55.1759 12.1335 55.0844 12.1152 54.9927C12.1334 55.0844 12.1519 55.1759 12.1711 55.2673Z" fill="#7EC4D3" fill-opacity="0.53"/>
<path d="M11.9027 53.8138C11.891 53.7397 11.8783 53.666 11.8672 53.5918C11.8783 53.666 11.8908 53.7397 11.9027 53.8138Z" fill="#7EC4D3" fill-opacity="0.53"/>
<path d="M12.0331 54.5597C12.0167 54.4704 12.0001 54.3813 11.9844 54.2917C12.0001 54.3813 12.0168 54.4704 12.0331 54.5597Z" fill="#7EC4D3" fill-opacity="0.53"/>
<path d="M11.7699 52.8922C11.7648 52.8526 11.7607 52.8126 11.7559 52.7729C11.7609 52.8126 11.7648 52.8525 11.7699 52.8922Z" fill="#7EC4D3" fill-opacity="0.53"/>
<path d="M11.5731 50.7293C11.5679 50.6382 11.5629 50.5471 11.5586 50.4558C11.5629 50.5472 11.5679 50.6382 11.5731 50.7293Z" fill="#7EC4D3" fill-opacity="0.53"/>
<path d="M11.6898 52.1824C11.6812 52.1 11.6739 52.0174 11.666 51.9348C11.6739 52.0174 11.6812 52.1 11.6898 52.1824Z" fill="#7EC4D3" fill-opacity="0.53"/>
<path d="M11.6239 51.4609C11.6166 51.3696 11.6101 51.2781 11.6035 51.1865C11.6101 51.2781 11.6166 51.3695 11.6239 51.4609Z" fill="#7EC4D3" fill-opacity="0.53"/>
<path d="M12.4885 56.6411C12.4722 56.578 12.4573 56.5145 12.4414 56.4514C12.4573 56.5145 12.4722 56.578 12.4885 56.6411Z" fill="#7EC4D3" fill-opacity="0.53"/>
<path d="M12.3223 55.9582C12.3022 55.872 12.2832 55.7853 12.2637 55.6987C12.2832 55.7853 12.3022 55.872 12.3223 55.9582Z" fill="#7EC4D3" fill-opacity="0.53"/>
<path d="M13.1732 58.9115C13.141 58.8182 13.1094 58.7245 13.0781 58.6306C13.1094 58.7246 13.141 58.8182 13.1732 58.9115Z" fill="#7EC4D3" fill-opacity="0.53"/>
<path d="M13.4064 59.568C13.3726 59.4764 13.3397 59.3842 13.3066 59.2922C13.3397 59.3844 13.3726 59.4764 13.4064 59.568Z" fill="#7EC4D3" fill-opacity="0.53"/>
<path d="M12.9525 58.2386C12.9239 58.1485 12.8949 58.0585 12.8672 57.968C12.8951 58.0585 12.924 58.1485 12.9525 58.2386Z" fill="#7EC4D3" fill-opacity="0.53"/>
<path d="M11.5408 49.9651C11.5384 49.8856 11.535 49.8062 11.5332 49.7266C11.5352 49.8062 11.5384 49.8856 11.5408 49.9651Z" fill="#7EC4D3" fill-opacity="0.53"/>
<path d="M12.7336 57.5179C12.7124 57.4454 12.6905 57.3732 12.6699 57.3005C12.6905 57.3735 12.7126 57.4456 12.7336 57.5179Z" fill="#7EC4D3" fill-opacity="0.53"/>
<path d="M11.5332 48.3003C11.5346 48.2422 11.5359 48.1844 11.5376 48.1265C11.5359 48.1844 11.5344 48.2422 11.5332 48.3003Z" fill="#7EC4D3" fill-opacity="0.53"/>
<path d="M12.4727 41.4234C12.4848 41.376 12.4976 41.329 12.51 41.2817C12.4976 41.329 12.4848 41.376 12.4727 41.4234Z" fill="#7EC4D3" fill-opacity="0.53"/>
<path d="M12.2812 42.2221C12.2945 42.1639 12.3076 42.1056 12.3212 42.0474C12.3076 42.1056 12.2945 42.1638 12.2812 42.2221Z" fill="#7EC4D3" fill-opacity="0.53"/>
<path d="M12.6484 40.7687C12.6652 40.7091 12.6816 40.6494 12.6987 40.5898C12.6816 40.6494 12.665 40.7091 12.6484 40.7687Z" fill="#7EC4D3" fill-opacity="0.53"/>
<path d="M12.8809 39.9866C12.8975 39.9328 12.9148 39.8793 12.9317 39.8257C12.915 39.8796 12.8976 39.9329 12.8809 39.9866Z" fill="#7EC4D3" fill-opacity="0.53"/>
<path d="M13.3516 38.5797C13.3733 38.5199 13.3957 38.4607 13.4178 38.4011C13.3957 38.4607 13.3732 38.5201 13.3516 38.5797Z" fill="#7EC4D3" fill-opacity="0.53"/>
<path d="M12.1367 42.8886C12.1449 42.8484 12.1538 42.8083 12.1622 42.7681C12.1538 42.8083 12.1449 42.8484 12.1367 42.8886Z" fill="#7EC4D3" fill-opacity="0.53"/>
<path d="M13.6544 60.2141C13.6224 60.1332 13.5919 60.0517 13.5605 59.9705C13.5919 60.0517 13.6224 60.1333 13.6544 60.2141Z" fill="#7EC4D3" fill-opacity="0.53"/>
<path d="M13.0859 39.3426C13.1062 39.2821 13.126 39.2215 13.1466 39.1611C13.126 39.2215 13.1062 39.2821 13.0859 39.3426Z" fill="#7EC4D3" fill-opacity="0.53"/>
<path d="M11.6094 46.7459C11.6136 46.6884 11.6178 46.6312 11.6223 46.5737C11.6178 46.6312 11.6136 46.6884 11.6094 46.7459Z" fill="#7EC4D3" fill-opacity="0.53"/>
<path d="M11.6797 45.8981C11.6821 45.8745 11.6849 45.851 11.6875 45.8274C11.6849 45.851 11.682 45.8745 11.6797 45.8981Z" fill="#7EC4D3" fill-opacity="0.53"/>
<path d="M11.9844 43.7037C11.9944 43.6463 12.0045 43.5887 12.0148 43.5312C12.0043 43.5887 11.9944 43.6463 11.9844 43.7037Z" fill="#7EC4D3" fill-opacity="0.53"/>
<path d="M11.5645 47.4382C11.5651 47.4248 11.5662 47.4115 11.5668 47.3982C11.5662 47.4115 11.5652 47.4248 11.5645 47.4382Z" fill="#7EC4D3" fill-opacity="0.53"/>
<path d="M11.7578 45.2123C11.7648 45.1553 11.772 45.0983 11.7793 45.0415C11.7718 45.0983 11.7648 45.1553 11.7578 45.2123Z" fill="#7EC4D3" fill-opacity="0.53"/>
<path d="M13.5898 37.9509C13.6142 37.8883 13.6383 37.8255 13.663 37.7632C13.6383 37.8255 13.6142 37.8883 13.5898 37.9509Z" fill="#7EC4D3" fill-opacity="0.53"/>
<path d="M11.873 44.3806C11.8779 44.3485 11.8834 44.3163 11.8884 44.2842C11.8834 44.3163 11.8779 44.3485 11.873 44.3806Z" fill="#7EC4D3" fill-opacity="0.53"/>
<path d="M24.0574 73.6262C23.9123 73.5205 23.7681 73.4138 23.625 73.3057C23.7679 73.414 23.9123 73.5205 24.0574 73.6262Z" fill="#7EC4D3" fill-opacity="0.53"/>
<path d="M23.5979 73.2877C23.1285 72.9318 22.6699 72.5625 22.2227 72.1809C22.6702 72.5627 23.1286 72.932 23.5979 73.2877Z" fill="#7EC4D3" fill-opacity="0.53"/>
<path d="M14.0037 61.058C13.97 60.9802 13.9354 60.9028 13.9023 60.8245C13.9354 60.9028 13.97 60.98 14.0037 61.058Z" fill="#7EC4D3" fill-opacity="0.53"/>
<path d="M25.1166 74.3672C24.9654 74.2664 24.8153 74.164 24.666 74.0605C24.8155 74.1638 24.9654 74.2664 25.1166 74.3672Z" fill="#7EC4D3" fill-opacity="0.53"/>
<path d="M21.1939 71.2611C21.0777 71.1525 20.9621 71.0436 20.8477 70.9331C20.9619 71.0437 21.0777 71.1526 21.1939 71.2611Z" fill="#7EC4D3" fill-opacity="0.53"/>
<path d="M21.6748 71.7018C21.5564 71.5959 21.439 71.489 21.3223 71.3811C21.439 71.489 21.5564 71.5958 21.6748 71.7018Z" fill="#7EC4D3" fill-opacity="0.53"/>
<path d="M22.1753 72.1397C22.0481 72.0307 21.9223 71.9201 21.7969 71.8091C21.9223 71.9201 22.0481 72.0307 22.1753 72.1397Z" fill="#7EC4D3" fill-opacity="0.53"/>
<path d="M31.1386 77.4731C30.9556 77.4034 30.7732 77.3321 30.5918 77.2588C30.7732 77.3321 30.9556 77.4034 31.1386 77.4731Z" fill="#7EC4D3" fill-opacity="0.53"/>
<path d="M30.5753 77.2518C29.811 76.9427 29.0621 76.6036 28.3301 76.2358C29.0622 76.6037 29.8112 76.9427 30.5753 77.2518Z" fill="#7EC4D3" fill-opacity="0.53"/>
<path d="M19.5268 69.5775C19.4257 69.4672 19.326 69.3556 19.2266 69.2439C19.3262 69.3556 19.4258 69.4672 19.5268 69.5775Z" fill="#7EC4D3" fill-opacity="0.53"/>
<path d="M31.7494 77.6985C31.5644 77.6325 31.3805 77.5646 31.1973 77.4951C31.3805 77.5646 31.5644 77.6325 31.7494 77.6985Z" fill="#7EC4D3" fill-opacity="0.53"/>
<path d="M27.1954 75.6346C26.493 75.2435 25.8076 74.8258 25.1406 74.3823C25.8074 74.8259 26.493 75.2435 27.1954 75.6346Z" fill="#7EC4D3" fill-opacity="0.53"/>
<path d="M28.3217 76.2306C28.1503 76.1444 27.98 76.0563 27.8105 75.967C27.9801 76.0563 28.1503 76.1444 28.3217 76.2306Z" fill="#7EC4D3" fill-opacity="0.53"/>
<path d="M27.7419 75.9318C27.5765 75.8441 27.4118 75.7549 27.248 75.6643C27.4118 75.7549 27.5765 75.8441 27.7419 75.9318Z" fill="#7EC4D3" fill-opacity="0.53"/>
<path d="M24.5773 73.9986C24.4341 73.8987 24.2918 73.7977 24.1504 73.6953C24.2918 73.7977 24.4341 73.8987 24.5773 73.9986Z" fill="#7EC4D3" fill-opacity="0.53"/>
<path d="M15.2353 63.5824C15.1833 63.4873 15.1331 63.3913 15.082 63.2957C15.1331 63.3913 15.1833 63.4873 15.2353 63.5824Z" fill="#7EC4D3" fill-opacity="0.53"/>
<path d="M15.7093 64.4148C15.618 64.2597 15.5281 64.1037 15.4395 63.9468C15.5281 64.1037 15.618 64.2597 15.7093 64.4148Z" fill="#7EC4D3" fill-opacity="0.53"/>
<path d="M14.9172 62.9784C14.8666 62.8808 14.8171 62.7823 14.7676 62.6841C14.8171 62.7823 14.8668 62.8806 14.9172 62.9784Z" fill="#7EC4D3" fill-opacity="0.53"/>
<path d="M14.3053 61.7345C14.2619 61.6404 14.2183 61.5465 14.1758 61.4519C14.2183 61.5465 14.2619 61.6405 14.3053 61.7345Z" fill="#7EC4D3" fill-opacity="0.53"/>
<path d="M16.0744 65.021C16.0115 64.9196 15.9484 64.8183 15.8867 64.7161C15.9484 64.8183 16.0115 64.9196 16.0744 65.021Z" fill="#7EC4D3" fill-opacity="0.53"/>
<path d="M19.0796 69.0796C18.9859 68.9728 18.8931 68.8651 18.8008 68.7571C18.8931 68.8652 18.986 68.9728 19.0796 69.0796Z" fill="#7EC4D3" fill-opacity="0.53"/>
<path d="M14.6046 62.3636C14.5569 62.2661 14.5095 62.1684 14.4629 62.0703C14.5097 62.1684 14.5569 62.2661 14.6046 62.3636Z" fill="#7EC4D3" fill-opacity="0.53"/>
<path d="M18.2283 68.0634C18.1393 67.9528 18.0503 67.8422 17.9629 67.7302C18.0502 67.8422 18.1393 67.9528 18.2283 68.0634Z" fill="#7EC4D3" fill-opacity="0.53"/>
<path d="M17.858 67.5952C17.682 67.3673 17.5094 67.1367 17.3398 66.9036C17.5094 67.1368 17.6822 67.3673 17.858 67.5952Z" fill="#7EC4D3" fill-opacity="0.53"/>
<path d="M18.6467 68.5733C18.5568 68.4662 18.4674 68.3588 18.3789 68.2505C18.4673 68.3588 18.5568 68.4662 18.6467 68.5733Z" fill="#7EC4D3" fill-opacity="0.53"/>
<path d="M17.2041 66.7148C17.1285 66.6094 17.0547 66.5027 16.9805 66.3962C17.0545 66.5027 17.1285 66.6094 17.2041 66.7148Z" fill="#7EC4D3" fill-opacity="0.53"/>
<path d="M16.8152 66.1615C16.7446 66.058 16.6749 65.9538 16.6055 65.8496C16.6749 65.9538 16.7447 66.058 16.8152 66.1615Z" fill="#7EC4D3" fill-opacity="0.53"/>
<path d="M16.4392 65.5962C16.3723 65.4935 16.3059 65.3905 16.2402 65.2871C16.3059 65.3905 16.3723 65.4934 16.4392 65.5962Z" fill="#7EC4D3" fill-opacity="0.53"/>
<path d="M15.8789 33.295C15.9264 33.2163 15.9744 33.138 16.0226 33.0598C15.9744 33.1381 15.9264 33.2164 15.8789 33.295Z" fill="#7EC4D3" fill-opacity="0.53"/>
<path d="M21.7891 26.1922C21.9533 26.0467 22.119 25.9027 22.2865 25.7607C22.119 25.9027 21.9533 26.0465 21.7891 26.1922Z" fill="#7EC4D3" fill-opacity="0.53"/>
<path d="M18.7871 29.2578C18.9024 29.1224 19.0188 28.988 19.1364 28.8547C19.019 28.988 18.9024 29.1224 18.7871 29.2578Z" fill="#7EC4D3" fill-opacity="0.53"/>
<path d="M16.2188 32.7413C16.273 32.6554 16.3274 32.5694 16.3824 32.4841C16.3274 32.5694 16.273 32.6554 16.2188 32.7413Z" fill="#7EC4D3" fill-opacity="0.53"/>
<path d="M15.4746 33.9855C15.5142 33.9156 15.5534 33.8455 15.5936 33.7759C15.5535 33.8455 15.5144 33.9156 15.4746 33.9855Z" fill="#7EC4D3" fill-opacity="0.53"/>
<path d="M24.7598 23.8721C24.8704 23.7961 24.9811 23.7205 25.0926 23.646C24.9811 23.7205 24.8704 23.7961 24.7598 23.8721Z" fill="#7EC4D3" fill-opacity="0.53"/>
<path d="M25.1582 23.6033C25.3771 23.458 25.5982 23.3154 25.8211 23.1755C25.5982 23.3154 25.3771 23.458 25.1582 23.6033Z" fill="#7EC4D3" fill-opacity="0.53"/>
<path d="M21.3574 26.5835C21.4497 26.4985 21.5427 26.4138 21.6361 26.3298C21.5427 26.4138 21.4499 26.4985 21.3574 26.5835Z" fill="#7EC4D3" fill-opacity="0.53"/>
<path d="M24.002 24.4083C24.2002 24.2631 24.4002 24.1202 24.6019 23.9797C24.4 24.1204 24.2002 24.2633 24.002 24.4083Z" fill="#7EC4D3" fill-opacity="0.53"/>
<path d="M19.3242 28.6407C19.4018 28.5543 19.4799 28.4685 19.5585 28.3831C19.4799 28.4685 19.4018 28.5543 19.3242 28.6407Z" fill="#7EC4D3" fill-opacity="0.53"/>
<path d="M17.0215 31.5353C17.099 31.4247 17.1772 31.3145 17.2561 31.2048C17.1772 31.3145 17.099 31.4247 17.0215 31.5353Z" fill="#7EC4D3" fill-opacity="0.53"/>
<path d="M17.877 30.3757C17.974 30.2503 18.0718 30.1258 18.1707 30.002C18.0718 30.126 17.9738 30.2503 17.877 30.3757Z" fill="#7EC4D3" fill-opacity="0.53"/>
<path d="M22.8789 25.2732C23.0596 25.1274 23.2419 24.9837 23.426 24.842C23.2419 24.9837 23.0596 25.1275 22.8789 25.2732Z" fill="#7EC4D3" fill-opacity="0.53"/>
<path d="M17.4922 30.8832C17.5546 30.7989 17.6177 30.715 17.6811 30.6313C17.6177 30.715 17.5548 30.7988 17.4922 30.8832Z" fill="#7EC4D3" fill-opacity="0.53"/>
<path d="M22.4473 25.6271C22.5464 25.5443 22.6458 25.4617 22.746 25.3799C22.6458 25.4615 22.5463 25.5441 22.4473 25.6271Z" fill="#7EC4D3" fill-opacity="0.53"/>
<path d="M16.6582 32.0689C16.7129 31.9872 16.7682 31.906 16.8236 31.825C16.7682 31.9062 16.7129 31.9872 16.6582 32.0689Z" fill="#7EC4D3" fill-opacity="0.53"/>
<path d="M18.3828 29.7396C18.4527 29.654 18.5231 29.569 18.594 29.4841C18.5231 29.5688 18.4527 29.654 18.3828 29.7396Z" fill="#7EC4D3" fill-opacity="0.53"/>
<path d="M23.5801 24.7243C23.6853 24.6444 23.7911 24.5647 23.8974 24.4861C23.7911 24.5647 23.6853 24.6444 23.5801 24.7243Z" fill="#7EC4D3" fill-opacity="0.53"/>
<path d="M14.1582 36.592C14.187 36.5273 14.2155 36.4625 14.2449 36.3979C14.2155 36.4624 14.187 36.5273 14.1582 36.592Z" fill="#7EC4D3" fill-opacity="0.53"/>
<path d="M15.1582 34.5627C15.1986 34.4879 15.2396 34.4136 15.2805 34.3391C15.2396 34.4136 15.1986 34.4879 15.1582 34.5627Z" fill="#7EC4D3" fill-opacity="0.53"/>
<path d="M20.7441 27.1664C20.8925 27.022 21.0424 26.8789 21.1937 26.7375C21.0424 26.8789 20.8925 27.0218 20.7441 27.1664Z" fill="#7EC4D3" fill-opacity="0.53"/>
<path d="M19.7422 28.1875C19.874 28.0466 20.0073 27.907 20.1416 27.7686C20.0071 27.907 19.874 28.0466 19.7422 28.1875Z" fill="#7EC4D3" fill-opacity="0.53"/>
<path d="M19.6152 69.6741C19.9809 70.0696 20.3568 70.455 20.7426 70.8305C20.3567 70.4551 19.9807 70.0694 19.6152 69.6741Z" fill="#7EC4D3" fill-opacity="0.53"/>
<path d="M13.8906 37.2062C13.9182 37.1407 13.9464 37.0755 13.9744 37.0103C13.9465 37.0755 13.9182 37.1405 13.8906 37.2062Z" fill="#7EC4D3" fill-opacity="0.53"/>
<path d="M20.3145 27.5885C20.3996 27.5022 20.4852 27.4165 20.5715 27.3313C20.4852 27.4165 20.3996 27.5021 20.3145 27.5885Z" fill="#7EC4D3" fill-opacity="0.53"/>
<path d="M14.4941 35.8663C14.5277 35.7962 14.5619 35.7264 14.5961 35.6565C14.5619 35.7264 14.5277 35.796 14.4941 35.8663Z" fill="#7EC4D3" fill-opacity="0.53"/>
<path d="M14.7852 35.2698C14.819 35.2028 14.8525 35.1356 14.8868 35.0688C14.8525 35.1356 14.8191 35.2029 14.7852 35.2698Z" fill="#7EC4D3" fill-opacity="0.53"/>
<path d="M72.4545 48.9981C72.4545 34.0471 61.6846 21.6123 47.4797 19.0264C40.9284 20.2189 35.109 23.507 30.7387 28.1701L33.7544 31.7922C35.0674 33.3693 35.1477 35.635 33.9495 37.301L30.6636 41.8698C28.5218 44.8478 30.65 48.9998 34.3182 48.9998H37.954C39.3372 48.9998 40.6169 49.7329 41.3164 50.9261C42.464 52.8832 41.7041 55.4033 39.6658 56.3995L38.1347 57.148C32.9724 59.6712 30.3722 65.5263 31.9369 71.0377C36.1484 75.0583 41.511 77.8831 47.4797 78.9698C61.6846 76.384 72.4545 63.9492 72.4545 48.9981Z" fill="#219BB6" fill-opacity="0.32"/>
<path d="M20.5742 27.331C20.6303 27.2755 20.687 27.2207 20.7436 27.1655C20.6871 27.2207 20.6304 27.2755 20.5742 27.331Z" fill="#132413" fill-opacity="0.6"/>
<path d="M22.7422 25.3812C22.7865 25.3451 22.8313 25.3095 22.8758 25.2737C22.8313 25.3095 22.7865 25.3451 22.7422 25.3812Z" fill="#132413" fill-opacity="0.6"/>
<path d="M16.6057 65.8483C16.5499 65.7643 16.4944 65.6802 16.4395 65.5957C16.4944 65.6802 16.5499 65.7645 16.6057 65.8483Z" fill="#132413" fill-opacity="0.6"/>
<path d="M15.8866 64.715C15.8266 64.6155 15.7679 64.5149 15.709 64.4146C15.7679 64.5148 15.8266 64.6153 15.8866 64.715Z" fill="#132413" fill-opacity="0.6"/>
<path d="M21.1934 26.7369C21.2482 26.6857 21.3029 26.6344 21.3582 26.5835C21.303 26.6342 21.2482 26.6856 21.1934 26.7369Z" fill="#132413" fill-opacity="0.6"/>
<path d="M15.0812 63.2956C15.0251 63.1903 14.9691 63.085 14.9141 62.979C14.9691 63.085 15.0251 63.1903 15.0812 63.2956Z" fill="#132413" fill-opacity="0.6"/>
<path d="M17.9628 67.7304C17.9279 67.6858 17.894 67.6404 17.8594 67.5955C17.894 67.6404 17.9279 67.6858 17.9628 67.7304Z" fill="#132413" fill-opacity="0.6"/>
<path d="M21.6367 26.3297C21.6878 26.2838 21.7394 26.2384 21.7907 26.1929C21.7394 26.2387 21.6878 26.2838 21.6367 26.3297Z" fill="#132413" fill-opacity="0.6"/>
<path d="M16.9797 66.3959C16.925 66.3176 16.8703 66.2393 16.8164 66.1604C16.8702 66.2393 16.925 66.3176 16.9797 66.3959Z" fill="#132413" fill-opacity="0.6"/>
<path d="M15.4379 63.9458C15.3697 63.8247 15.3011 63.7037 15.2344 63.5815C15.301 63.7037 15.3695 63.8247 15.4379 63.9458Z" fill="#132413" fill-opacity="0.6"/>
<path d="M22.2852 25.7614C22.3377 25.7168 22.3904 25.672 22.4433 25.6277C22.3904 25.672 22.3379 25.7167 22.2852 25.7614Z" fill="#132413" fill-opacity="0.6"/>
<path d="M17.3392 66.9027C17.2932 66.8395 17.2466 66.7769 17.2012 66.7134C17.2466 66.7769 17.2932 66.8395 17.3392 66.9027Z" fill="#132413" fill-opacity="0.6"/>
<path d="M16.2428 65.2868C16.1866 65.1982 16.1315 65.109 16.0762 65.0198C16.1315 65.1092 16.1866 65.1985 16.2428 65.2868Z" fill="#132413" fill-opacity="0.6"/>
<path d="M24.6016 23.9801C24.6532 23.9442 24.7049 23.9082 24.7568 23.8726C24.7047 23.9081 24.6531 23.9442 24.6016 23.9801Z" fill="#132413" fill-opacity="0.6"/>
<path d="M27.2464 75.6642C27.2287 75.6545 27.211 75.6444 27.1934 75.6345C27.211 75.6444 27.2286 75.6543 27.2464 75.6642Z" fill="#132413" fill-opacity="0.6"/>
<path d="M25.1385 74.3823C25.1314 74.3776 25.1242 74.373 25.1172 74.3682C25.1242 74.3728 25.1313 74.3775 25.1385 74.3823Z" fill="#132413" fill-opacity="0.6"/>
<path d="M25.8223 23.1748C25.875 23.1417 25.9277 23.1087 25.9807 23.0759C25.9277 23.1087 25.875 23.1417 25.8223 23.1748Z" fill="#132413" fill-opacity="0.6"/>
<path d="M24.6679 74.0613C24.6373 74.0402 24.6066 74.019 24.5762 73.9978C24.6068 74.019 24.6376 74.04 24.6679 74.0613Z" fill="#132413" fill-opacity="0.6"/>
<path d="M24.1491 73.6942C24.1182 73.6718 24.0874 73.6493 24.0566 73.6267C24.0874 73.6493 24.1182 73.6718 24.1491 73.6942Z" fill="#132413" fill-opacity="0.6"/>
<path d="M27.8066 75.9684C27.7839 75.9563 27.761 75.9444 27.7383 75.9324C27.761 75.9444 27.7839 75.9563 27.8066 75.9684Z" fill="#132413" fill-opacity="0.6"/>
<path d="M31.1963 77.4951C31.1771 77.4878 31.1579 77.4805 31.1387 77.4731C31.1579 77.4806 31.1771 77.4879 31.1963 77.4951Z" fill="#132413" fill-opacity="0.6"/>
<path d="M31.768 77.7052C31.7614 77.7028 31.7547 77.7006 31.748 77.6982C31.7547 77.7005 31.7614 77.7028 31.768 77.7052Z" fill="#132413" fill-opacity="0.6"/>
<path d="M25.0898 23.6463C25.112 23.6317 25.1342 23.6173 25.1563 23.6025C25.1341 23.6172 25.1118 23.6315 25.0898 23.6463Z" fill="#132413" fill-opacity="0.6"/>
<path d="M30.5934 77.2593C30.5869 77.2566 30.5806 77.2541 30.5742 77.2515C30.5806 77.254 30.5869 77.2566 30.5934 77.2593Z" fill="#132413" fill-opacity="0.6"/>
<path d="M28.3306 76.2363C28.3271 76.2345 28.3238 76.2329 28.3203 76.2312C28.3238 76.2329 28.3273 76.2345 28.3306 76.2363Z" fill="#132413" fill-opacity="0.6"/>
<path d="M22.2231 72.1813C22.2068 72.1673 22.1901 72.1537 22.1738 72.1396C22.1901 72.1535 22.2068 72.1673 22.2231 72.1813Z" fill="#132413" fill-opacity="0.6"/>
<path d="M19.6153 69.674C19.5854 69.6417 19.5551 69.6098 19.5254 69.5774C19.5549 69.6098 19.5853 69.6417 19.6153 69.674Z" fill="#132413" fill-opacity="0.6"/>
<path d="M19.2242 69.244C19.1755 69.1892 19.1266 69.1345 19.0781 69.0793C19.1266 69.1346 19.1755 69.1893 19.2242 69.244Z" fill="#132413" fill-opacity="0.6"/>
<path d="M23.4258 24.8421C23.4771 24.8026 23.5283 24.763 23.58 24.7239C23.5283 24.7632 23.4771 24.8026 23.4258 24.8421Z" fill="#132413" fill-opacity="0.6"/>
<path d="M18.8038 68.7567C18.7517 68.6956 18.7001 68.6344 18.6484 68.573C18.7002 68.6344 18.7519 68.6956 18.8038 68.7567Z" fill="#132413" fill-opacity="0.6"/>
<path d="M20.8491 70.9338C20.8139 70.8999 20.7792 70.8654 20.7441 70.8313C20.7792 70.8654 20.8139 70.8999 20.8491 70.9338Z" fill="#132413" fill-opacity="0.6"/>
<path d="M21.7976 71.8092C21.7577 71.7739 21.7176 71.7385 21.6777 71.7029C21.7176 71.7385 21.7576 71.7739 21.7976 71.8092Z" fill="#132413" fill-opacity="0.6"/>
<path d="M14.7647 62.6849C14.711 62.5784 14.6579 62.4718 14.6055 62.3645C14.658 62.4718 14.711 62.5784 14.7647 62.6849Z" fill="#132413" fill-opacity="0.6"/>
<path d="M18.3771 68.2503C18.3265 68.1884 18.2767 68.1258 18.2266 68.0635C18.2767 68.1258 18.3265 68.1884 18.3771 68.2503Z" fill="#132413" fill-opacity="0.6"/>
<path d="M23.8945 24.4862C23.9296 24.4603 23.9652 24.4347 24.0004 24.4089C23.9652 24.4347 23.9297 24.4601 23.8945 24.4862Z" fill="#132413" fill-opacity="0.6"/>
<path d="M23.623 73.3061C23.6152 73.3001 23.6074 73.2941 23.5996 73.2881C23.6076 73.2941 23.6152 73.3002 23.623 73.3061Z" fill="#132413" fill-opacity="0.6"/>
<path d="M21.3235 71.3826C21.2799 71.3424 21.2366 71.3018 21.1934 71.2615C21.2366 71.302 21.2799 71.3424 21.3235 71.3826Z" fill="#132413" fill-opacity="0.6"/>
<path d="M17.2578 31.2058C17.3357 31.0978 17.4138 30.9902 17.493 30.8833C17.4138 30.9901 17.3355 31.0978 17.2578 31.2058Z" fill="#132413" fill-opacity="0.6"/>
<path d="M11.7793 45.0414C11.8079 44.8205 11.8384 44.6002 11.8718 44.3809C11.8383 44.6002 11.8079 44.8205 11.7793 45.0414Z" fill="#132413" fill-opacity="0.6"/>
<path d="M11.6172 46.5738C11.635 46.348 11.6545 46.1227 11.6772 45.8984C11.6545 46.1228 11.635 46.348 11.6172 46.5738Z" fill="#132413" fill-opacity="0.6"/>
<path d="M15.5918 33.7761C15.6847 33.6152 15.7795 33.4554 15.8753 33.2964C15.7795 33.4554 15.6847 33.6152 15.5918 33.7761Z" fill="#132413" fill-opacity="0.6"/>
<path d="M11.6895 45.8281C11.7108 45.6224 11.7344 45.4173 11.7598 45.2129C11.7344 45.4175 11.7108 45.6224 11.6895 45.8281Z" fill="#132413" fill-opacity="0.6"/>
<path d="M15.2773 34.3384C15.3424 34.2202 15.4082 34.1024 15.4748 33.9851C15.4082 34.1024 15.3424 34.2202 15.2773 34.3384Z" fill="#132413" fill-opacity="0.6"/>
<path d="M11.8867 44.2843C11.9169 44.0902 11.949 43.8967 11.9828 43.7039C11.949 43.8967 11.9169 44.0902 11.8867 44.2843Z" fill="#132413" fill-opacity="0.6"/>
<path d="M11.5234 48.9936C11.5234 48.7617 11.5269 48.5308 11.5323 48.3003C11.5271 48.5309 11.5234 48.7619 11.5234 48.9936Z" fill="#132413" fill-opacity="0.6"/>
<path d="M11.5326 49.727C11.5269 49.4877 11.5234 49.2479 11.5234 49.0073C11.5234 49.248 11.5268 49.4878 11.5326 49.727Z" fill="#132413" fill-opacity="0.6"/>
<path d="M14.4643 62.0712C14.411 61.9591 14.3587 61.8465 14.3066 61.7336C14.3586 61.8465 14.411 61.9593 14.4643 62.0712Z" fill="#132413" fill-opacity="0.6"/>
<path d="M11.5371 48.1265C11.5435 47.8963 11.5517 47.6666 11.5633 47.4377C11.5519 47.6667 11.5437 47.8963 11.5371 48.1265Z" fill="#132413" fill-opacity="0.6"/>
<path d="M11.5645 47.3981C11.5757 47.1798 11.5899 46.9622 11.6057 46.7451C11.59 46.9622 11.5759 47.1798 11.5645 47.3981Z" fill="#132413" fill-opacity="0.6"/>
<path d="M16.0215 33.0608C16.0874 32.9534 16.1543 32.8466 16.2215 32.7402C16.1543 32.8466 16.0876 32.9534 16.0215 33.0608Z" fill="#132413" fill-opacity="0.6"/>
<path d="M12.5098 41.2818C12.5546 41.1099 12.601 40.9387 12.6487 40.7681C12.6009 40.9387 12.5546 41.1099 12.5098 41.2818Z" fill="#132413" fill-opacity="0.6"/>
<path d="M14.2441 36.3983C14.3253 36.2198 14.4084 36.0423 14.4929 35.8657C14.4084 36.0423 14.3255 36.2198 14.2441 36.3983Z" fill="#132413" fill-opacity="0.6"/>
<path d="M13.1445 39.1604C13.211 38.9657 13.2792 38.772 13.3493 38.5791C13.2792 38.772 13.211 38.9657 13.1445 39.1604Z" fill="#132413" fill-opacity="0.6"/>
<path d="M12.9297 39.8257C12.9806 39.6641 13.0328 39.5032 13.0865 39.3428C13.0328 39.5032 12.9806 39.6641 12.9297 39.8257Z" fill="#132413" fill-opacity="0.6"/>
<path d="M13.418 38.4011C13.4739 38.2503 13.531 38.1002 13.5892 37.9504C13.531 38.1002 13.4739 38.2504 13.418 38.4011Z" fill="#132413" fill-opacity="0.6"/>
<path d="M13.9746 37.0101C14.0345 36.8704 14.0954 36.7312 14.1573 36.5925C14.0954 36.7312 14.0345 36.8704 13.9746 37.0101Z" fill="#132413" fill-opacity="0.6"/>
<path d="M12.6973 40.5889C12.7552 40.3872 12.8147 40.1861 12.8766 39.9861C12.8147 40.1863 12.7552 40.3872 12.6973 40.5889Z" fill="#132413" fill-opacity="0.6"/>
<path d="M14.8887 35.0686C14.9761 34.8987 15.0654 34.73 15.1559 34.562C15.0654 34.73 14.9761 34.8987 14.8887 35.0686Z" fill="#132413" fill-opacity="0.6"/>
<path d="M12.3203 42.0469C12.3691 41.8381 12.4196 41.63 12.4725 41.4229C12.4196 41.6302 12.3691 41.8383 12.3203 42.0469Z" fill="#132413" fill-opacity="0.6"/>
<path d="M12.1641 42.7684C12.202 42.5856 12.2418 42.4035 12.283 42.2219C12.2419 42.4035 12.2021 42.5856 12.1641 42.7684Z" fill="#132413" fill-opacity="0.6"/>
<path d="M14.5918 35.6569C14.6549 35.5276 14.719 35.3987 14.7839 35.2703C14.719 35.3987 14.655 35.5276 14.5918 35.6569Z" fill="#132413" fill-opacity="0.6"/>
<path d="M16.3848 32.4831C16.4746 32.3442 16.5656 32.206 16.6576 32.0686C16.5656 32.206 16.4746 32.3442 16.3848 32.4831Z" fill="#132413" fill-opacity="0.6"/>
<path d="M12.0117 43.5325C12.0507 43.3174 12.0914 43.1031 12.135 42.8896C12.0914 43.1031 12.0507 43.3176 12.0117 43.5325Z" fill="#132413" fill-opacity="0.6"/>
<path d="M12.8659 57.9674C12.82 57.8184 12.776 57.6686 12.7324 57.5186C12.776 57.6686 12.82 57.8184 12.8659 57.9674Z" fill="#132413" fill-opacity="0.6"/>
<path d="M13.0806 58.631C13.0372 58.5006 12.9949 58.3696 12.9531 58.2383C12.9949 58.3696 13.0372 58.5005 13.0806 58.631Z" fill="#132413" fill-opacity="0.6"/>
<path d="M19.1367 28.8554C19.1999 28.7836 19.2632 28.712 19.327 28.6409C19.263 28.712 19.1999 28.7836 19.1367 28.8554Z" fill="#132413" fill-opacity="0.6"/>
<path d="M11.5596 50.4557C11.5518 50.2926 11.546 50.129 11.541 49.9653C11.546 50.1291 11.5518 50.2927 11.5596 50.4557Z" fill="#132413" fill-opacity="0.6"/>
<path d="M12.6691 57.3011C12.6071 57.0819 12.5474 56.8616 12.4902 56.6404C12.5474 56.8616 12.6071 57.0819 12.6691 57.3011Z" fill="#132413" fill-opacity="0.6"/>
<path d="M13.3061 59.2916C13.2605 59.1648 13.2157 59.0379 13.1719 58.9104C13.2157 59.0379 13.2607 59.165 13.3061 59.2916Z" fill="#132413" fill-opacity="0.6"/>
<path d="M20.1406 27.7686C20.1991 27.7084 20.2576 27.6481 20.3166 27.5884C20.2576 27.6481 20.1991 27.7083 20.1406 27.7686Z" fill="#132413" fill-opacity="0.6"/>
<path d="M12.4462 56.4516C12.4051 56.2882 12.3647 56.1242 12.3262 55.9597C12.3646 56.1242 12.4051 56.288 12.4462 56.4516Z" fill="#132413" fill-opacity="0.6"/>
<path d="M14.1777 61.4512C14.1192 61.3207 14.0624 61.1896 14.0059 61.0581C14.0625 61.1897 14.1194 61.3211 14.1777 61.4512Z" fill="#132413" fill-opacity="0.6"/>
<path d="M13.5631 59.9714C13.5115 59.8377 13.46 59.7038 13.4102 59.5691C13.46 59.7038 13.5115 59.8375 13.5631 59.9714Z" fill="#132413" fill-opacity="0.6"/>
<path d="M19.5566 28.3822C19.617 28.3165 19.6781 28.2515 19.739 28.1863C19.6779 28.2515 19.617 28.3165 19.5566 28.3822Z" fill="#132413" fill-opacity="0.6"/>
<path d="M13.9058 60.8249C13.8205 60.6224 13.7373 60.4189 13.6562 60.2141C13.7374 60.4187 13.8205 60.6224 13.9058 60.8249Z" fill="#132413" fill-opacity="0.6"/>
<path d="M18.5938 29.4842C18.6568 29.4086 18.7207 29.3335 18.7845 29.2585C18.7207 29.3335 18.657 29.4086 18.5938 29.4842Z" fill="#132413" fill-opacity="0.6"/>
<path d="M11.7571 52.7725C11.7329 52.5759 11.71 52.3789 11.6895 52.1812C11.71 52.3789 11.7327 52.576 11.7571 52.7725Z" fill="#132413" fill-opacity="0.6"/>
<path d="M13.6602 37.7628C13.7342 37.5762 13.8101 37.3906 13.8878 37.2058C13.8102 37.3905 13.7343 37.5762 13.6602 37.7628Z" fill="#132413" fill-opacity="0.6"/>
<path d="M11.6649 51.9336C11.6499 51.7766 11.6357 51.6193 11.623 51.4617C11.6357 51.6195 11.6499 51.7766 11.6649 51.9336Z" fill="#132413" fill-opacity="0.6"/>
<path d="M16.8223 31.8247C16.8884 31.728 16.9553 31.6319 17.0224 31.5359C16.9551 31.6319 16.8882 31.728 16.8223 31.8247Z" fill="#132413" fill-opacity="0.6"/>
<path d="M11.8675 53.592C11.8323 53.3595 11.7994 53.1262 11.7695 52.8921C11.7994 53.1265 11.8323 53.3596 11.8675 53.592Z" fill="#132413" fill-opacity="0.6"/>
<path d="M18.1719 30.0011C18.2418 29.9135 18.3119 29.8261 18.3827 29.7393C18.3119 29.8259 18.2418 29.9135 18.1719 30.0011Z" fill="#132413" fill-opacity="0.6"/>
<path d="M11.6033 51.1877C11.5925 51.0352 11.5827 50.8824 11.5742 50.7292C11.5827 50.8824 11.5925 51.0352 11.6033 51.1877Z" fill="#132413" fill-opacity="0.6"/>
<path d="M12.2621 55.6998C12.2298 55.5561 12.1983 55.412 12.168 55.2676C12.1983 55.4123 12.23 55.5561 12.2621 55.6998Z" fill="#132413" fill-opacity="0.6"/>
<path d="M12.1122 54.9919C12.0835 54.8481 12.056 54.704 12.0293 54.5596C12.056 54.704 12.0835 54.8481 12.1122 54.9919Z" fill="#132413" fill-opacity="0.6"/>
<path d="M11.9837 54.2924C11.9558 54.1333 11.9297 53.9737 11.9043 53.8137C11.9299 53.9737 11.9558 54.1333 11.9837 54.2924Z" fill="#132413" fill-opacity="0.6"/>
<path d="M17.6797 30.6315C17.7447 30.5456 17.8104 30.4603 17.8764 30.375C17.8104 30.4602 17.7447 30.5456 17.6797 30.6315Z" fill="#132413" fill-opacity="0.6"/>
<path d="M31.938 71.0377C30.3732 65.5265 32.9733 59.6713 38.1358 57.148L39.6668 56.3996C41.7052 55.4032 42.4653 52.8833 41.3175 50.9262C40.6178 49.733 39.3382 48.9999 37.9551 48.9999H34.3193C30.6511 48.9999 28.5229 44.8478 30.6647 41.8699L33.9506 37.3011C35.1488 35.635 35.0685 33.3694 33.7554 31.7923L30.7398 28.1702C25.6339 33.6182 22.5059 40.9423 22.5059 48.9981C22.5059 57.6668 26.1265 65.4898 31.938 71.0377Z" fill="#608857"/>
<path d="M60.5917 29.0783C60.5906 28.4232 60.6226 27.7818 60.6834 27.1546C61.2354 21.4682 64.1645 16.9648 66.4094 14.2805C64.9271 12.5083 63.7475 11.5256 63.7475 11.5256C63.6843 11.5765 56.2647 17.7477 55.3515 27.1546C55.2906 27.7818 55.2587 28.4232 55.2598 29.0783C55.277 39.559 63.7925 38.8457 63.7925 38.8457C63.7925 38.8457 64.9835 38.9491 66.474 38.5309C63.973 37.8325 60.6025 35.6686 60.5917 29.0783Z" fill="white"/>
<path d="M72.2934 29.1073C72.2923 28.4522 72.258 27.8105 72.1945 27.1827C71.6205 21.5015 68.6646 16.9771 66.4095 14.2812C64.1646 16.9659 61.2355 21.469 60.6835 27.1554C60.6226 27.7826 60.5908 28.424 60.5918 29.0791C60.6026 35.6693 63.9733 37.8331 66.4743 38.5317C68.9697 37.8319 72.3042 35.669 72.2934 29.1073Z" fill="#608857"/>
<path d="M51.3421 46.5189C46.7203 41.8818 45.3797 35.8292 45.0244 31.9389C42.708 31.727 41.1568 31.8698 41.1246 31.8733C41.1246 31.8733 40.1148 42.9242 47.5134 50.3475C54.912 57.7707 60.4109 51.2234 60.4109 51.2234C60.4109 51.2234 61.3275 50.4485 62.0841 49.0888C59.8195 50.3465 55.9493 51.1415 51.3421 46.5189Z" fill="white"/>
<path d="M59.5389 38.2841C54.9093 33.6393 48.8978 32.2939 45.0254 31.9397C45.3807 35.83 46.7213 41.8825 51.3431 46.5197C55.9505 51.1421 59.8205 50.3472 62.0852 49.0896C63.3476 46.8212 64.1647 42.9251 59.5389 38.2841Z" fill="#608857"/>
<path d="M71.8191 42.089C76.4589 37.4338 82.4864 36.093 86.3579 35.7425C86.568 33.4192 86.4269 31.8735 86.4269 31.8735C86.3408 31.8642 75.4124 30.8604 68.0135 38.2836C60.6146 45.7067 67.1404 51.2235 67.1404 51.2235C67.1404 51.2235 67.918 52.1492 69.2815 52.9095C68.0143 50.6436 67.1828 46.7408 71.8191 42.089Z" fill="white"/>
<path d="M80.0389 50.347C84.6708 45.6997 86.007 39.6311 86.3589 35.7417C82.4872 36.0924 76.4599 37.4332 71.82 42.0882C67.1836 46.74 68.0152 50.6428 69.2824 52.9088C71.5451 54.1713 75.4219 54.9791 80.0389 50.347Z" fill="#608857"/>
<path d="M55.2596 30.6014C55.2604 30.6014 55.2613 30.6014 55.2621 30.6014C56.1035 30.6 56.7843 29.9169 56.7829 29.0757C56.782 28.4872 56.8105 27.8903 56.8676 27.3016C56.9315 26.6438 57.0313 26.003 57.1592 25.379L62.0463 30.2661C62.1106 30.3304 62.18 30.3864 62.2521 30.4369V34.1469C62.2521 34.9883 62.9343 35.6702 63.7754 35.6702C64.6165 35.6702 65.2987 34.9881 65.2987 34.1469V26.2829L69.4045 22.1771C70.0235 23.7505 70.491 25.4797 70.6784 27.3351C70.738 27.9226 70.7686 28.5193 70.7697 29.1092C70.7712 29.9497 71.4529 30.6297 72.293 30.6297C72.2939 30.6297 72.2948 30.6297 72.2959 30.6297C73.1371 30.6282 73.8178 29.9449 73.8163 29.1037C73.815 28.4137 73.7791 27.7157 73.7096 27.0288C72.7075 17.1073 65.0475 10.6258 64.7221 10.3548C64.1643 9.89048 63.3564 9.88408 62.7915 10.3394C62.7119 10.4036 54.8188 16.8726 53.8352 27.0074C53.7685 27.6953 53.7353 28.3927 53.7364 29.0807C53.7376 29.9212 54.4193 30.6014 55.2596 30.6014ZM68.01 19.2624L65.2982 21.9741V15.3389C66.1614 16.3805 67.13 17.7047 68.01 19.2624ZM62.2518 15.2576V25.6184C62.2513 25.6418 62.2513 25.665 62.2518 25.6884V26.1631L58.1498 22.0611C59.2761 19.2001 60.9013 16.8744 62.2518 15.2576Z" fill="#494337"/>
<path d="M86.4726 84.9504H86.4549C85.6137 84.9504 84.9316 85.6326 84.9316 86.4737C84.9316 87.315 85.6138 87.997 86.4549 87.997H86.4726C87.3138 87.997 87.9959 87.3148 87.9959 86.4737C87.9959 85.6326 87.3137 84.9504 86.4726 84.9504Z" fill="#494337"/>
<path d="M81.4954 84.9505H65.2975V79.3808L67.5426 77.1357C68.1375 76.5408 68.1375 75.5765 67.5426 74.9813C66.9477 74.3868 65.9835 74.3865 65.3881 74.9813L65.2974 75.0721V70.9064C68.3902 67.618 70.7114 63.8012 72.1946 59.5575C72.4723 58.7631 72.0535 57.8945 71.2592 57.6169C70.4647 57.339 69.5961 57.7581 69.3186 58.5523C68.359 61.2975 67.0103 63.8447 65.2972 66.1622V55.2297L67.1852 53.3354C68.3074 54.2163 70.1609 55.3042 72.5575 55.4062C72.6816 55.4114 72.8056 55.4142 72.9297 55.4142C75.7224 55.4142 78.4744 54.0729 81.1154 51.4233C88.9272 43.5857 87.9861 32.2155 87.9424 31.7351C87.8762 31.0122 87.3093 30.4364 86.5875 30.3591C86.4714 30.3467 74.905 29.2103 66.9331 37.2084C65.4843 38.6619 64.4322 40.1489 63.7742 41.6576C63.1162 40.1493 62.0643 38.6621 60.6155 37.2084C52.6438 29.2105 41.0769 30.3467 40.9611 30.3591C40.2393 30.4364 39.6724 31.0124 39.6061 31.7351C39.5624 32.2153 38.6214 43.5857 46.4332 51.4233C49.0742 54.0732 51.8258 55.4142 54.6188 55.4142C54.7426 55.4142 54.8669 55.4114 54.9909 55.4062C57.3876 55.304 59.2412 54.2161 60.3632 53.3353L62.2505 55.2288V68.7316L61.2453 67.7265C60.6502 67.1317 59.6861 67.1317 59.0908 67.7265C58.4959 68.3214 58.4959 69.2859 59.0908 69.8809L62.2503 73.0404V78.7489V78.7504V84.9505H11.5233C10.682 84.9505 10 85.6327 10 86.4738C10 87.3151 10.6822 87.9971 11.5233 87.9971H81.4946C82.3358 87.9971 83.0179 87.3149 83.0179 86.4738C83.0181 85.6326 82.3366 84.9505 81.4954 84.9505ZM71.7958 37.1304C75.5718 34.5808 79.7873 33.726 82.6929 33.4606L71.7958 44.3937V37.1304ZM83.5771 41.622H78.86L84.8267 35.6356C84.671 37.3123 84.3224 39.4177 83.5771 41.622ZM78.9579 49.2724C76.8399 51.3974 74.7415 52.4363 72.7206 52.3635C71.2987 52.3114 70.1334 51.7064 69.3575 51.1563L75.8237 44.6687H82.2882C81.4577 46.2736 80.3752 47.8503 78.9579 49.2724ZM68.7492 39.7135V47.4505L67.207 48.9979C66.664 48.2253 66.07 47.0703 66.0099 45.6595C65.9273 43.7306 66.8496 41.732 68.7492 39.7135ZM61.5408 45.6259C61.4887 47.0503 60.8888 48.218 60.3414 48.9971L58.8 47.4505V39.7134C60.6883 41.7201 61.6109 43.7074 61.5408 45.6259ZM44.8559 33.4607C47.7617 33.7263 51.9773 34.5809 55.753 37.1304V44.3937L44.8559 33.4607ZM42.722 35.6356L48.6888 41.622H43.9717C43.2266 39.4175 42.8781 37.3121 42.722 35.6356ZM54.8615 52.3621C52.8292 52.4483 50.7207 51.4089 48.5913 49.2724C47.174 47.8504 46.0911 46.2738 45.2612 44.6685H51.7254L56.199 49.1569L58.1925 51.1569C57.4231 51.7027 56.2702 52.3021 54.8615 52.3621Z" fill="#494337"/>
<path d="M50.5809 21.3497L50.6133 21.3597C50.7623 21.4055 50.9128 21.4272 51.0609 21.4272C51.7125 21.4272 52.3154 21.0059 52.5167 20.3508C52.7636 19.5464 52.3118 18.6943 51.5076 18.4474L51.4897 18.4417C50.6876 18.191 49.8324 18.6384 49.5815 19.4413C49.3306 20.2441 49.7778 21.0988 50.5809 21.3497Z" fill="#494337"/>
<path d="M33.6448 79.8814C33.7197 79.9082 33.7966 79.9291 33.8754 79.944C36.4678 80.6244 39.1869 80.9879 41.9899 80.9879C47.6845 80.9879 53.2765 79.4724 58.1614 76.6051C58.887 76.1791 59.1298 75.2459 58.704 74.5201C58.2782 73.7943 57.345 73.5515 56.619 73.9775C53.0677 76.0621 49.1016 77.3548 45.0057 77.7823L48.5907 69.506C50.1383 65.9334 54.0143 63.9841 57.8043 64.8706L59.4041 65.2449C60.2232 65.436 61.0427 64.9279 61.2345 64.1088C61.4261 63.2894 60.9173 62.4701 60.0983 62.2783L58.4984 61.904C53.2704 60.6815 47.9287 63.3691 45.7951 68.295L41.6188 77.9361C39.4704 77.909 37.3776 77.6479 35.3652 77.1749L33.4444 70.7694C31.9847 65.9014 34.2394 60.748 38.8051 58.516L40.3363 57.7677C41.6876 57.1072 42.7118 55.9024 43.146 54.4625C43.5803 53.0227 43.3931 51.4526 42.6322 50.1551C41.6632 48.5027 39.8712 47.4761 37.9558 47.4761H34.3199C33.1804 47.4761 32.1894 46.8705 31.6696 45.8564C31.1497 44.8422 31.2365 43.6841 31.9019 42.7589L35.1879 38.19C36.7917 35.9599 36.6843 32.9281 34.9267 30.8171L28.6728 23.3061C32.6617 21.2302 37.1909 20.0549 41.9897 20.0549C42.8954 20.0549 43.8098 20.0972 44.7079 20.1807C45.543 20.2583 46.2877 19.6426 46.3657 18.8051C46.4437 17.9673 45.8276 17.2251 44.99 17.1472C43.9987 17.0551 42.9894 17.0083 41.99 17.0083C36.0512 17.0083 30.4864 18.637 25.7151 21.4683C25.6033 21.5171 25.4962 21.5806 25.3955 21.6582C16.1719 27.2771 10 37.4304 10 48.998C10 63.7509 20.0396 76.2012 33.6448 79.8814ZM26.015 24.8751L32.5857 32.7668C33.4545 33.8104 33.5076 35.3091 32.7147 36.4115L29.4288 40.9804C28.1026 42.8243 27.9224 45.2254 28.9583 47.2467C29.9943 49.2678 32.0488 50.5233 34.3199 50.5233H37.9559C38.7951 50.5233 39.5798 50.9729 40.0042 51.6967C40.3424 52.2733 40.4223 52.9433 40.2294 53.5833C40.0362 54.2233 39.5991 54.7374 38.9987 55.031L37.4675 55.7793C31.5554 58.6693 28.6361 65.3415 30.5263 71.6448L31.866 76.1126C20.885 71.999 13.0469 61.3975 13.0469 48.998C13.0466 38.9392 18.2054 30.0642 26.015 24.8751Z" fill="#494337"/>
</svg>
