<svg width="100" height="100" viewBox="0 0 100 100" fill="none" xmlns="http://www.w3.org/2000/svg">
<rect x="77.1973" y="63.575" width="7.26437" height="20.8851" fill="#8CB1B3"/>
<path d="M77.0962 34.8904L43.0072 68.9795L39.7606 70.0617L20.8223 51.6644L55.9935 16.4932L77.6373 13.2466L77.0962 34.8904Z" fill="#C47979" fill-opacity="0.74"/>
<path d="M40.4984 65.9848C35.6214 65.9848 34.7404 69.785 34.9098 71.115C34.9098 71.115 42.0218 71.685 44.5619 71.685C47.102 71.6851 49.6421 71.685 55.7383 69.975C61.8346 68.2649 73.3084 70.0618 73.3084 70.0618C73.3084 70.0618 75.0431 62.5646 64.3747 61.9946C53.7062 61.4246 48.627 65.9848 48.627 65.9848H40.4984Z" fill="white"/>
<path d="M32.5803 65.1854L34.326 63.4396L20.3864 49.5L54.9489 14.9375H75.4219V19.875H72.7409C72.4497 19.0514 71.8767 18.3573 71.1232 17.9153C70.3698 17.4733 69.4843 17.3119 68.6233 17.4596C67.7623 17.6073 66.9813 18.0546 66.4183 18.7225C65.8552 19.3904 65.5464 20.2358 65.5464 21.1094C65.5464 21.9829 65.8552 22.8284 66.4183 23.4962C66.9813 24.1641 67.7623 24.6115 68.6233 24.7592C69.4843 24.9069 70.3698 24.7455 71.1232 24.3035C71.8767 23.8615 72.4497 23.1673 72.7409 22.3438H75.4219V35.4105L51.0959 59.7365L52.8417 61.4822L77.5292 36.7947C77.6438 36.6801 77.7347 36.544 77.7967 36.3943C77.8588 36.2445 77.8907 36.084 77.8907 35.9219V29.75H81.5938C82.9033 29.75 84.1592 29.2298 85.0851 28.3038C86.0111 27.3779 86.5313 26.122 86.5313 24.8125C86.5313 23.503 86.0111 22.2471 85.0851 21.3212C84.1592 20.3952 82.9033 19.875 81.5938 19.875H77.8907V13.7031C77.8907 13.3757 77.7606 13.0618 77.5291 12.8303C77.2976 12.5988 76.9837 12.4688 76.6563 12.4688H54.4375C54.2754 12.4687 54.1149 12.5007 53.9652 12.5627C53.8154 12.6247 53.6793 12.7156 53.5647 12.8303L17.7678 48.6271C17.6532 48.7418 17.5623 48.8778 17.5002 49.0276C17.4382 49.1774 17.4062 49.3379 17.4062 49.5C17.4062 49.6621 17.4382 49.8226 17.5002 49.9724C17.5623 50.1222 17.6532 50.2582 17.7678 50.3729L32.5803 65.1854ZM68.0157 21.1094C68.016 20.7821 68.1462 20.4684 68.3776 20.2369C68.609 20.0055 68.9228 19.8754 69.2501 19.875V22.3438C68.9228 22.3434 68.609 22.2132 68.3776 21.9818C68.1462 21.7504 68.016 21.4366 68.0157 21.1094V21.1094ZM81.5938 22.3438C82.2486 22.3438 82.8765 22.6039 83.3395 23.0668C83.8025 23.5298 84.0626 24.1577 84.0626 24.8125C84.0626 25.4673 83.8025 26.0952 83.3395 26.5582C82.8765 27.0211 82.2486 27.2812 81.5938 27.2812H77.8907V22.3438H81.5938Z" fill="#494337"/>
<path d="M45.9799 36.8251C46.1664 37.421 46.4921 37.9639 46.9299 38.4091C47.3678 38.8542 47.9053 39.1887 48.4981 39.385C48.5146 39.9714 48.6656 40.5461 48.9395 41.0649C49.2134 41.5836 49.6029 42.0325 50.0778 42.3768C50.5877 42.7626 51.1815 43.0226 51.8108 43.1357C52.4402 43.2489 53.0873 43.2119 53.6997 43.028C54.0856 43.507 54.574 43.8935 55.1289 44.159C55.6838 44.4246 56.2912 44.5624 56.9063 44.5624C57.5215 44.5624 58.1288 44.4246 58.6837 44.159C59.2386 43.8935 59.727 43.507 60.1129 43.028C60.7253 43.2119 61.3725 43.2489 62.0018 43.1357C62.6311 43.0226 63.2249 42.7626 63.7349 42.3768C64.2098 42.0325 64.5992 41.5836 64.8731 41.0649C65.147 40.5461 65.298 39.9714 65.3146 39.385C65.9073 39.1887 66.4448 38.8542 66.8827 38.4091C67.3206 37.9639 67.6462 37.421 67.8327 36.8251C68.0178 36.2622 68.0678 35.6636 67.9787 35.0778C67.8895 34.492 67.6638 33.9355 67.3197 33.4531C67.6638 32.9707 67.8895 32.4141 67.9787 31.8283C68.0678 31.2425 68.0178 30.644 67.8327 30.0811C67.6462 29.4852 67.3206 28.9422 66.8827 28.4971C66.4448 28.052 65.9073 27.7174 65.3146 27.5211C65.298 26.9348 65.147 26.36 64.8731 25.8413C64.5992 25.3225 64.2098 24.8737 63.7349 24.5293C63.2249 24.1435 62.6312 23.8835 62.0018 23.7704C61.3725 23.6572 60.7253 23.6942 60.1129 23.8782C59.727 23.3991 59.2386 23.0127 58.6837 22.7471C58.1288 22.4816 57.5215 22.3438 56.9063 22.3438C56.2912 22.3438 55.6838 22.4816 55.1289 22.7471C54.574 23.0127 54.0856 23.3991 53.6997 23.8782C53.0873 23.6942 52.4402 23.6573 51.8108 23.7704C51.1815 23.8836 50.5877 24.1436 50.0778 24.5293C49.6029 24.8737 49.2134 25.3226 48.9396 25.8413C48.6657 26.36 48.5146 26.9348 48.4981 27.5211C47.9053 27.7174 47.3678 28.052 46.9299 28.4971C46.4921 28.9422 46.1664 29.4852 45.9799 30.0811C45.7948 30.644 45.7448 31.2425 45.834 31.8283C45.9231 32.4141 46.1489 32.9707 46.493 33.4531C46.1489 33.9355 45.9231 34.492 45.834 35.0778C45.7448 35.6636 45.7948 36.2622 45.9799 36.8251ZM48.9306 32.4235C48.6637 32.2647 48.4591 32.0195 48.3507 31.7285C48.2423 31.4375 48.2365 31.1182 48.3344 30.8236C48.4348 30.5015 48.6412 30.2229 48.92 30.0329C49.1988 29.8429 49.5336 29.7528 49.8701 29.7771C50.0717 29.7825 50.2715 29.7384 50.4522 29.6487C50.6328 29.559 50.7887 29.4264 50.9062 29.2625C51.0237 29.0987 51.0993 28.9085 51.1263 28.7086C51.1534 28.5088 51.131 28.3053 51.0612 28.1161C50.9524 27.8308 50.9421 27.5173 51.032 27.2254C51.1219 26.9336 51.3068 26.6802 51.5573 26.5056C51.8334 26.2887 52.1741 26.1703 52.5253 26.1692C52.8764 26.1681 53.2178 26.2844 53.4953 26.4995C53.654 26.6174 53.8388 26.6955 54.034 26.7271C54.2292 26.7587 54.4291 26.7429 54.617 26.6811C54.8048 26.6193 54.9751 26.5133 55.1134 26.372C55.2517 26.2307 55.354 26.0582 55.4118 25.8691C55.6497 25.0902 56.3399 24.8125 56.9063 24.8125C57.4727 24.8125 58.1629 25.0902 58.4008 25.8691C58.4586 26.0582 58.5609 26.2307 58.6993 26.372C58.8376 26.5133 59.0078 26.6193 59.1957 26.6811C59.3835 26.7429 59.5835 26.7587 59.7787 26.7271C59.9739 26.6955 60.1586 26.6174 60.3174 26.4995C60.5948 26.2842 60.9362 26.1678 61.2874 26.1689C61.6386 26.17 61.9793 26.2885 62.2553 26.5056C62.5058 26.6802 62.6908 26.9336 62.7806 27.2254C62.8705 27.5173 62.8602 27.8308 62.7514 28.1161C62.6816 28.3053 62.6593 28.5088 62.6863 28.7086C62.7133 28.9085 62.7889 29.0987 62.9064 29.2625C63.024 29.4264 63.1799 29.559 63.3605 29.6487C63.5411 29.7384 63.741 29.7825 63.9426 29.7771C64.2789 29.7534 64.6135 29.8438 64.8922 30.0336C65.1708 30.2235 65.3773 30.5018 65.4783 30.8236C65.5761 31.1182 65.5704 31.4375 65.4619 31.7285C65.3535 32.0195 65.1489 32.2647 64.8821 32.4235C64.7119 32.536 64.5723 32.6889 64.4757 32.8686C64.3791 33.0483 64.3286 33.2491 64.3286 33.4531C64.3286 33.6571 64.3791 33.8579 64.4757 34.0376C64.5723 34.2172 64.7119 34.3702 64.8821 34.4827C65.1489 34.6415 65.3535 34.8867 65.4619 35.1777C65.5704 35.4686 65.5761 35.7879 65.4783 36.0826C65.3777 36.4046 65.1713 36.6831 64.8925 36.873C64.6138 37.063 64.279 37.1532 63.9426 37.1291C63.741 37.1237 63.5411 37.1677 63.3605 37.2574C63.1799 37.3471 63.024 37.4797 62.9064 37.6436C62.7889 37.8075 62.7133 37.9977 62.6863 38.1976C62.6593 38.3974 62.6816 38.6008 62.7514 38.7901C62.8602 39.0754 62.8705 39.3889 62.7806 39.6807C62.6908 39.9726 62.5058 40.226 62.2553 40.4006C61.9792 40.6175 61.6385 40.7359 61.2874 40.737C60.9363 40.7381 60.5948 40.6218 60.3174 40.4066C60.1586 40.2887 59.9739 40.2107 59.7787 40.1791C59.5835 40.1475 59.3835 40.1632 59.1957 40.225C59.0078 40.2868 58.8376 40.3928 58.6993 40.5342C58.5609 40.6755 58.4586 40.848 58.4008 41.0371C58.1629 41.816 57.4727 42.0937 56.9063 42.0937C56.3399 42.0937 55.6497 41.816 55.4118 41.0371C55.354 40.848 55.2517 40.6755 55.1134 40.5342C54.9751 40.3928 54.8048 40.2868 54.617 40.225C54.4291 40.1632 54.2292 40.1475 54.034 40.1791C53.8388 40.2107 53.654 40.2887 53.4953 40.4066C53.2178 40.6217 52.8764 40.738 52.5253 40.7369C52.1741 40.7358 51.8335 40.6175 51.5573 40.4006C51.3068 40.226 51.1219 39.9726 51.032 39.6807C50.9421 39.3889 50.9524 39.0754 51.0612 38.7901C51.131 38.6008 51.1534 38.3974 51.1263 38.1976C51.0993 37.9977 51.0237 37.8075 50.9062 37.6436C50.7887 37.4797 50.6328 37.3471 50.4522 37.2574C50.2715 37.1677 50.0717 37.1237 49.8701 37.1291C49.5335 37.1536 49.1986 37.0636 48.9197 36.8736C48.6409 36.6836 48.4346 36.4048 48.3344 36.0826C48.2365 35.7879 48.2423 35.4686 48.3507 35.1777C48.4591 34.8867 48.6637 34.6415 48.9306 34.4827C49.1007 34.3702 49.2403 34.2172 49.3369 34.0376C49.4335 33.8579 49.4841 33.6571 49.4841 33.4531C49.4841 33.2491 49.4335 33.0483 49.3369 32.8686C49.2403 32.6889 49.1007 32.536 48.9306 32.4235V32.4235Z" fill="#494337"/>
<path d="M31.3457 42.4554L23.9395 49.8616L25.6851 51.6072L33.0914 44.201L31.3457 42.4554Z" fill="#494337"/>
<path d="M35.0488 46.1585L27.6426 53.5647L29.3882 55.3104L36.7945 47.9042L35.0488 46.1585Z" fill="#494337"/>
<path d="M38.7519 49.8616L31.3457 57.2678L33.0914 59.0135L40.4976 51.6073L38.7519 49.8616Z" fill="#494337"/>
<path d="M42.455 53.5647L35.0488 60.9709L36.7945 62.7166L44.2007 55.3104L42.455 53.5647Z" fill="#494337"/>
<path d="M46.1582 57.2678L42.4551 60.9709L44.2007 62.7166L47.9039 59.0135L46.1582 57.2678Z" fill="#494337"/>
<path d="M39.6253 38.9024C40.1074 39.3845 40.8894 39.385 41.3715 38.9029C41.8536 38.4209 41.853 37.6388 41.371 37.1567C40.8889 36.6747 40.1068 36.6742 39.6248 37.1562C39.1427 37.6383 39.1433 38.4204 39.6253 38.9024Z" fill="#494337"/>
<path d="M44.4351 39.9655L42.6895 41.7112L51.5058 50.5276L53.2515 48.7819L44.4351 39.9655Z" fill="#494337"/>
<path d="M71.5143 46.7242L62.2051 56.0334L63.9507 57.7791L73.26 48.4699L71.5143 46.7242Z" fill="#494337"/>
<path d="M74.1892 45.7967C74.6713 46.2787 75.4556 46.276 75.9376 45.7939C76.4197 45.3119 76.4224 44.5276 75.9404 44.0455C75.4583 43.5635 74.674 43.5662 74.192 44.0483C73.7099 44.5303 73.7072 45.3146 74.1892 45.7967Z" fill="#494337"/>
<path d="M85.297 61.8438H74.1876C73.8602 61.8438 73.5463 61.9738 73.3148 62.2053C73.0833 62.4368 72.9532 62.7508 72.9532 63.0781V64.248C69.9575 62.0952 66.409 60.843 62.7255 60.639C59.0421 60.435 55.377 61.2876 52.1617 63.0964L49.9997 64.3125H39.6251C38.5019 64.312 37.3999 64.6182 36.4379 65.198C35.4759 65.7779 34.6904 66.6093 34.1663 67.6027C33.6421 68.5961 33.399 69.7137 33.4634 70.8351C33.5277 71.9565 33.897 73.039 34.5313 73.966L21.3655 67.425C20.578 67.0351 19.7125 66.8285 18.8338 66.8205L18.3031 66.8165C16.995 66.8064 15.7221 67.2396 14.6917 68.0456C13.6613 68.8515 12.9342 69.9825 12.6288 71.2545C12.3234 72.5265 12.4577 73.8644 13.0099 75.0503C13.5621 76.2362 14.4995 77.2001 15.6696 77.7851L30.8162 85.3586C32.3595 86.128 34.0601 86.5294 35.7845 86.5313H85.297C85.6244 86.5313 85.9383 86.4012 86.1698 86.1697C86.4013 85.9382 86.5314 85.6243 86.5314 85.2969V63.0781C86.5314 62.7508 86.4013 62.4368 86.1698 62.2053C85.9383 61.9738 85.6244 61.8438 85.297 61.8438ZM31.9202 83.1503L16.7738 75.577C16.1046 75.2424 15.568 74.6917 15.2508 74.0141C14.9337 73.3365 14.8546 72.5717 15.0264 71.8435C15.1983 71.1154 15.6109 70.4666 16.1975 70.0022C16.7841 69.5379 17.5103 69.2852 18.2584 69.285H18.2845L18.8148 69.2891C19.3188 69.2937 19.8153 69.4122 20.267 69.6358L34.1383 76.5273C34.309 76.612 34.497 76.6562 34.6876 76.6563H50.7345C51.0619 76.6563 51.3758 76.5262 51.6073 76.2947C51.8388 76.0632 51.9689 75.7493 51.9689 75.4219C51.9689 75.0945 51.8388 74.7806 51.6073 74.5491C51.3758 74.3176 51.0619 74.1875 50.7345 74.1875H39.6251C38.643 74.1875 37.7011 73.7974 37.0066 73.1029C36.3121 72.4084 35.922 71.4665 35.922 70.4844C35.922 69.5023 36.3121 68.5604 37.0066 67.8659C37.7011 67.1714 38.643 66.7813 39.6251 66.7813H50.323C50.535 66.7813 50.7434 66.7267 50.9281 66.6228L53.372 65.248C56.3074 63.597 59.6692 62.8608 63.0259 63.134C66.3827 63.4072 69.5812 64.6773 72.2109 66.7813L72.9532 67.3745V84.0625H35.7844C34.4431 84.0609 33.1205 83.7487 31.9202 83.1503ZM84.0626 84.0625H75.422V64.3125H84.0626V84.0625Z" fill="#494337"/>
<path d="M79.7422 80.3594C80.1084 80.3594 80.4664 80.2508 80.7709 80.0473C81.0753 79.8439 81.3127 79.5547 81.4528 79.2164C81.5929 78.878 81.6296 78.5058 81.5582 78.1466C81.4867 77.7874 81.3104 77.4575 81.0514 77.1986C80.7925 76.9396 80.4626 76.7633 80.1034 76.6918C79.7442 76.6204 79.372 76.6571 79.0336 76.7972C78.6953 76.9373 78.4061 77.1747 78.2027 77.4791C77.9992 77.7836 77.8906 78.1416 77.8906 78.5078C77.8912 78.9987 78.0864 79.4694 78.4335 79.8165C78.7806 80.1636 79.2513 80.3588 79.7422 80.3594Z" fill="#494337"/>
<path d="M38.0289 41.2209L36.2832 42.9666L46.1582 52.8416L47.9039 51.0959L38.0289 41.2209Z" fill="#494337"/>
</svg>
