<svg width="100" height="100" viewBox="0 0 100 100" fill="none" xmlns="http://www.w3.org/2000/svg">
<path d="M55.1234 14.4841C53.6325 14.4841 52.2456 14.9226 51.082 15.6751C51.5265 16.8836 51.7576 18.2757 51.7576 19.8378V21.8981C58.1074 23.3552 62.5585 27.1467 62.5585 34.2878V21.8901C62.5583 17.7998 59.2295 14.4841 55.1234 14.4841V14.4841Z" fill="#9C9B9B"/>
<path d="M44.7976 21.1813C47.2687 21.1813 49.6214 21.4076 51.7593 21.8982V19.8379C51.7593 13.7273 48.2451 10.2012 42.1102 10.2012H38.1431C32.0082 10.2012 27.0352 15.155 27.0352 21.2656V34.2879C27.0352 24.7426 34.9874 21.1813 44.7976 21.1813V21.1813Z" fill="#757575" fill-opacity="0.69"/>
<path d="M32.0184 24.3013V21.2656C32.0184 15.3098 36.7432 10.4553 42.6627 10.2129C42.4808 10.2058 42.2974 10.2012 42.1102 10.2012H38.1431C32.0082 10.2012 27.0352 15.155 27.0352 21.2656V34.2879C27.0352 29.6249 28.9335 26.3907 32.0184 24.3013V24.3013Z" fill="#626262"/>
<path d="M56.4216 74.7073C56.4216 70.861 57.8667 67.3517 60.245 64.6865H53.1379C52.6836 68.8089 49.124 72.0185 44.7989 72.0185C40.4736 72.0185 36.9143 68.8089 36.4598 64.6865H24.5308C20.1956 64.6865 16.668 68.1276 16.668 72.3572V83.6966C16.668 84.2592 17.1311 84.7155 17.7024 84.7155H60.2338C57.8626 82.0516 56.4216 78.5472 56.4216 74.7073V74.7073Z" fill="#85BAD8"/>
<path d="M23.3711 83.6966V72.3572C23.3711 68.1278 26.8986 64.6865 31.234 64.6865H24.5308C20.1956 64.6865 16.668 68.1276 16.668 72.3572V83.6966C16.668 84.2592 17.1311 84.7155 17.7024 84.7155H24.4056C23.8343 84.7157 23.3711 84.2592 23.3711 83.6966Z" fill="#4992B1"/>
<path d="M49.7608 59.5239C48.8229 59.6947 47.856 59.785 46.8674 59.785H42.7288C41.7403 59.785 40.7734 59.6947 39.8356 59.5239V64.6869H36.459C36.9135 68.8093 40.473 72.0188 44.7982 72.0188C49.1233 72.0188 52.6828 68.8093 53.1372 64.6869H49.7608V59.5239Z" fill="#FFF6F3"/>
<path d="M42.7288 59.785C41.7403 59.785 40.7734 59.6947 39.8356 59.5239V64.6869H36.459C36.6683 66.5846 37.5367 68.2877 38.8335 69.5745H42.3854C43.2699 69.5745 43.987 68.8575 43.987 67.973V59.785H42.7288Z" fill="#FFE5DD"/>
<path d="M27.037 44.4547V39.8253V36.5715H24.616C22.8135 36.5715 21.3516 37.9844 21.3516 39.7272V43.5476C21.3516 45.2906 22.8135 46.7033 24.616 46.7033H27.2054C27.0949 45.9692 27.037 45.2185 27.037 44.4547Z" fill="#FFE5DD"/>
<path d="M64.9846 36.571H62.5632V44.4544C62.5632 45.2182 62.505 45.9689 62.3945 46.7029H64.9846C66.7876 46.7029 68.2484 45.2901 68.2484 43.5471V39.7268C68.2482 37.9841 66.7874 36.571 64.9846 36.571V36.571Z" fill="#FFE5DD"/>
<path d="M44.7976 21.1814C34.9874 21.1814 27.0352 24.7426 27.0352 34.2879V44.455C27.0352 52.9212 34.0612 59.785 42.7282 59.785H46.8668C55.5343 59.785 62.5602 52.9213 62.5602 44.455V34.2879C62.5602 24.7426 54.6078 21.1814 44.7976 21.1814V21.1814Z" fill="#FFE5DD"/>
<path d="M32.0184 44.4548V34.2877C32.0184 25.5654 38.659 21.8404 47.2893 21.2628C46.4751 21.2084 45.6435 21.1812 44.7976 21.1812C34.9874 21.1812 27.0352 24.7424 27.0352 34.2877V44.4548C27.0352 52.9209 34.0612 59.7848 42.7282 59.7848H46.8668C47.0081 59.7848 47.1489 59.7827 47.2893 59.7791C38.8174 59.5604 32.0184 52.783 32.0184 44.4548V44.4548Z" fill="#FFF6F3"/>
<path d="M71.9526 81.205C71.4972 81.7048 70.8488 81.9914 70.174 81.9914H70.1688C69.4921 81.99 68.8437 81.7009 68.3891 81.198L61.7463 73.8542C61.6746 73.775 61.6371 73.6705 61.6425 73.5636C61.6477 73.4568 61.6949 73.3562 61.7738 73.2842L64.749 70.5718C64.8259 70.5016 64.9227 70.4671 65.0191 70.4671C65.1284 70.4671 65.2376 70.5116 65.3169 70.5993L69.9839 75.7588C70.0344 75.8147 70.1066 75.8468 70.1818 75.8469C70.2572 75.8469 70.3294 75.8151 70.3798 75.7595L79.0131 66.2907C76.7275 64.0524 73.5988 62.6719 70.1473 62.6719C63.1485 62.6719 57.4746 68.3457 57.4746 75.3446C57.4746 82.3435 63.1485 88.0173 70.1473 88.0173C77.1462 88.0173 82.8201 82.3433 82.8201 75.3446C82.8201 73.5861 82.4616 71.9115 81.8143 70.3892L71.9526 81.205Z" fill="#608857" fill-opacity="0.65"/>
<path d="M57.625 74.7076C57.625 82.0437 63.3663 88.0686 70.6092 88.564C65.2276 86.2486 61.4593 80.9181 61.4593 74.7076C61.4593 74.6856 61.4603 74.6638 61.4603 74.6419L60.6414 73.7401C60.3392 73.4074 60.1846 72.9768 60.2066 72.5275C60.2288 72.0789 60.4239 71.6659 60.7565 71.3643L62.1995 70.0539C63.5449 65.9167 66.633 62.5623 70.6041 60.8518C63.3632 61.3496 57.625 67.3734 57.625 74.7076Z" fill="#608857"/>
<path d="M71.6002 82.623C70.7912 82.6214 70.0161 82.2771 69.4725 81.6783L61.531 72.9329C61.4453 72.8386 61.4004 72.7142 61.4069 72.5868C61.4131 72.4597 61.4695 72.3399 61.5638 72.2542L65.1207 69.0242C65.2126 68.9406 65.3284 68.8994 65.4436 68.8994C65.5743 68.8994 65.7048 68.9524 65.7996 69.0568L71.3791 75.2011C71.4395 75.2675 71.5258 75.3058 71.6157 75.306C71.7059 75.306 71.7922 75.268 71.8524 75.2019L84.9557 60.8866C85.0417 60.7926 85.1615 60.7366 85.2889 60.731C85.2961 60.7306 85.303 60.7305 85.3102 60.7305C85.43 60.7305 85.5458 60.7753 85.6345 60.8565L89.1786 64.1006C89.3745 64.2799 89.3879 64.5837 89.2087 64.7794L73.733 81.6863C73.1884 82.2814 72.4133 82.6227 71.6066 82.6227H71.6002V82.623Z" fill="white"/>
<path d="M43.2871 36.7822C42.6237 36.7822 42.0859 37.32 42.0859 37.9834V42.9529C42.0859 44.1534 43.0736 45.13 44.2874 45.13H46.4335C47.0971 45.13 47.6347 44.5922 47.6347 43.9289C47.6347 43.2655 47.0971 42.7277 46.4335 42.7277H44.4883V37.9834C44.4883 37.3199 43.9506 36.7822 43.2871 36.7822V36.7822Z" fill="#494337"/>
<path d="M34.082 35.783V39.3112C34.082 39.9746 34.6198 40.5124 35.2832 40.5124C35.9467 40.5124 36.4844 39.9746 36.4844 39.3112V35.783C36.4844 35.1196 35.9467 34.5818 35.2832 34.5818C34.6198 34.5818 34.082 35.1196 34.082 35.783Z" fill="#494337"/>
<path d="M53.1113 35.783V39.3112C53.1113 39.9746 53.6491 40.5124 54.3127 40.5124C54.9762 40.5124 55.5138 39.9746 55.5138 39.3112V35.783C55.5138 35.1196 54.9762 34.5818 54.3127 34.5818C53.6491 34.5818 53.1113 35.1196 53.1113 35.783Z" fill="#494337"/>
<path d="M39.7649 48.2438C39.4893 47.6403 38.7766 47.3749 38.1731 47.6502C37.5697 47.9259 37.304 48.6384 37.5796 49.242C38.8653 52.0568 41.6993 53.8757 44.7991 53.8757C47.8991 53.8757 50.7331 52.057 52.0185 49.242C52.2941 48.6386 52.0284 47.926 51.4249 47.6504C50.8215 47.3748 50.1089 47.6406 49.8333 48.2441C48.9374 50.2059 46.9614 51.4735 44.7991 51.4735C42.637 51.4732 40.6608 50.2057 39.7649 48.2438V48.2438Z" fill="#494337"/>
<path d="M90.5299 64.3807C90.5099 63.9318 90.3166 63.5177 89.9854 63.2146L86.4407 59.9702C86.1301 59.6859 85.7268 59.5293 85.3058 59.5293C85.2808 59.5293 85.2569 59.5298 85.2313 59.5309C84.7827 59.5508 84.3682 59.7441 84.0652 60.0754L82.0836 62.2404C79.2389 59.8549 75.5707 58.4151 71.5701 58.4151C66.9147 58.4151 62.7074 60.3637 59.7267 63.4853H50.9608V60.4962C53.024 59.9945 54.9765 59.1135 56.7336 57.8747C57.2757 57.4924 57.4051 56.7431 57.023 56.2009C56.641 55.659 55.8916 55.5291 55.3492 55.9114C52.87 57.6595 49.9367 58.5834 46.8662 58.5834H42.7274C34.7364 58.5834 28.2355 52.2452 28.2355 44.4546V34.2876C28.2355 30.2346 29.8016 27.1648 32.8902 25.1628C35.6964 23.3438 39.8137 22.3822 44.7968 22.3822C49.7799 22.3822 53.8972 23.3436 56.7035 25.1628C59.7921 27.1648 61.3583 30.2348 61.3583 34.2876V44.4546C61.3583 47.2253 60.5362 49.9073 58.9812 52.2108C58.61 52.7606 58.7548 53.5073 59.3047 53.8785C59.8547 54.2494 60.6014 54.105 60.9723 53.555C62.1409 51.8243 62.9542 49.9106 63.3897 47.9044H64.981C67.4428 47.9044 69.446 45.9498 69.446 43.5475V39.7271C69.446 37.3246 67.4428 35.3702 64.981 35.3702H63.7608V21.8902C63.7608 17.1443 59.8864 13.2831 55.1245 13.2831C53.8899 13.2831 52.7156 13.5436 51.6526 14.0111C49.947 10.8018 46.6375 9 42.1094 9H38.1423C31.3551 9 25.8332 14.5023 25.8332 21.2656V35.3702H24.6134C22.1512 35.3702 20.1478 37.3248 20.1478 39.7271V43.5475C20.1478 45.9498 22.1512 47.9044 24.6134 47.9044H26.2044C27.5474 54.0694 32.4127 58.9729 38.6332 60.4939V63.4855H24.5289C19.5311 63.4855 15.4648 67.4654 15.4648 72.3573V83.6967C15.4648 84.9209 16.4677 85.9168 17.7005 85.9168H25.9317C26.5952 85.9168 27.1329 85.379 27.1329 84.7156C27.1329 84.0523 26.5952 83.5144 25.9317 83.5144H17.8673V72.3573C17.8673 68.7902 20.8557 65.8878 24.529 65.8878H35.4474C36.4219 70.1352 40.2631 73.2198 44.797 73.2198C49.331 73.2198 53.1724 70.135 54.1467 65.8878H57.8278C56.1777 68.4316 55.2187 71.46 55.2187 74.7075C55.2187 77.9495 56.1743 80.9733 57.8193 83.5143H37.6233C36.96 83.5143 36.3421 84.0523 36.3421 84.7156C36.3421 85.379 36.96 85.875 37.6233 85.875L59.7144 85.9166C62.6962 89.0458 66.9082 91 71.5701 91C80.5865 91 87.9218 83.6913 87.9218 74.7076C87.9218 72.7249 87.5637 70.8243 86.9093 69.0655L90.0901 65.5906C90.3935 65.2592 90.5496 64.8295 90.5299 64.3807ZM63.7606 44.4548V39.8253V37.7727H64.9808C66.1183 37.7727 67.0435 38.6496 67.0435 39.7273V43.5476C67.0435 44.6253 66.1183 45.5022 64.9808 45.5022H63.7249C63.7472 45.1543 63.7606 44.8053 63.7606 44.4548ZM55.1245 15.6854C58.5619 15.6854 61.3584 18.4689 61.3584 21.8902V26.258C60.4804 25.0638 59.3646 24.0247 58.0105 23.1469C56.5635 22.2092 54.8753 21.4791 52.9598 20.9565V19.8378C52.9598 18.5395 52.8102 17.3424 52.5226 16.2536C53.3149 15.8896 54.1958 15.6854 55.1245 15.6854ZM28.2355 21.2656C28.2355 15.827 32.6797 11.4023 38.1423 11.4023H42.1094C47.5573 11.4023 50.5573 14.3982 50.5573 19.8379V20.4292C48.7937 20.1304 46.8715 19.98 44.7968 19.98C39.2713 19.98 34.8255 21.0455 31.5835 23.1469C30.2293 24.0246 29.1134 25.0637 28.2355 26.258V21.2656ZM24.6134 45.502C23.4757 45.502 22.5502 44.6252 22.5502 43.5475V39.7271C22.5502 38.6492 23.4757 37.7726 24.6134 37.7726H25.8332V39.8251V44.4546C25.8332 44.8065 25.8459 45.1554 25.8681 45.5019L24.6134 45.502ZM44.7968 70.8174C41.5913 70.8174 38.8472 68.7743 37.9328 65.8878H39.8342C40.4977 65.8878 41.0354 65.35 41.0354 64.6866V60.9033C41.5921 60.9577 42.1565 60.9859 42.7274 60.9859H46.866C47.4349 60.9859 47.999 60.9556 48.5582 60.9013V64.6868C48.5582 65.3502 49.0961 65.888 49.7594 65.888H51.6608C50.7466 68.7743 48.0025 70.8174 44.7968 70.8174ZM72.8423 80.8754C72.5248 81.2225 72.0724 81.4215 71.5978 81.4215C71.1265 81.4206 70.6744 81.2197 70.3573 80.8704L62.9002 72.6587L65.3902 70.3977L70.4853 76.0086C70.7724 76.3247 71.1819 76.5063 71.611 76.5071C72.038 76.5071 72.4475 76.3265 72.7337 76.0129L76.0116 72.4323C76.4596 71.943 76.4258 71.1832 75.9365 70.7353C75.4472 70.2875 74.6874 70.3208 74.2395 70.8102L71.614 73.6781L66.6846 68.2496C66.3665 67.8991 65.9126 67.6981 65.439 67.6981C65.0202 67.6981 64.6186 67.8531 64.3085 68.1348L60.7522 71.3644C60.4198 71.6659 60.2245 72.079 60.2023 72.5276C60.1803 72.9768 60.3349 73.4076 60.6371 73.7401L68.5786 82.4853C69.3488 83.3338 70.4476 83.8218 71.6019 83.8239C72.7449 83.8239 73.8428 83.3404 74.6142 82.4973L85.0404 71.107C85.3509 72.256 85.5193 73.4623 85.5193 74.7076C85.5193 82.3666 79.2616 88.5977 71.57 88.5977C63.8783 88.5977 57.6207 82.3666 57.6207 74.7076C57.6207 67.0486 63.8783 60.8176 71.57 60.8176C74.9461 60.8176 78.0438 62.0202 80.4593 64.0151L78.051 66.6462C77.6031 67.1356 77.6365 67.8954 78.1261 68.3432C78.6151 68.791 79.3749 68.7575 79.8232 68.2682L85.3508 62.2292L87.8313 64.5001L72.8423 80.8754Z" fill="#494337"/>
<path d="M31.6587 83.3125H31.639C30.6993 83.3125 29.9375 84.0745 29.9375 85.014C29.9375 85.9537 30.6995 86.7155 31.639 86.7155H31.6587C32.5984 86.7155 33.3602 85.9535 33.3602 85.014C33.3602 84.0745 32.5982 83.3125 31.6587 83.3125Z" fill="#494337"/>
</svg>
