<svg width="100" height="100" viewBox="0 0 100 100" fill="none" xmlns="http://www.w3.org/2000/svg">
<path d="M20.3379 81.8824L26.6217 65.4412C27.0406 64.8089 28.0041 63.5442 28.5068 63.5442C29.0095 63.5442 30.3919 63.9657 31.0203 64.1765L32.9055 68.603L38.5609 64.1765L44.8446 61.6471V64.8089L37.3041 75.5589L20.3379 81.8824Z" fill="#E0C49C"/>
<path d="M61.8106 33.8235L31.6484 64.1764L33.5336 67.3382L34.7903 66.0735L41.0741 61.647H46.1011L44.8444 67.3382L69.9795 42.6764L61.8106 33.8235Z" fill="#81967A"/>
<path d="M80.6617 31.2942C78.5671 33.6128 74.3779 38.756 74.3779 38.2501C74.3779 37.6177 67.4657 30.6618 66.8374 30.6618L66.209 29.3971L70.6076 24.9707C73.7495 22.4412 74.6292 22.6941 78.1481 23.7059L78.1482 23.7059C81.6671 24.7177 80.8711 29.1864 80.6617 31.2942Z" fill="#A5A5A5"/>
<path d="M79.0318 22.8152C78.159 21.9368 77.1228 21.24 75.9823 20.7646C74.8419 20.2892 73.6196 20.0446 72.3852 20.0446C71.1508 20.0446 69.9285 20.2892 68.788 20.7646C67.6476 21.24 66.6114 21.9368 65.7385 22.8152L26.2054 62.5984C26.0794 62.7295 25.9808 62.8846 25.9151 63.0546H25.9016L18.0584 82.3471C17.9547 82.6026 17.9283 82.8832 17.9825 83.1537C18.0367 83.4243 18.169 83.6727 18.3629 83.8678C18.5569 84.0629 18.8037 84.1961 19.0725 84.2506C19.3414 84.3052 19.6202 84.2786 19.8741 84.1743L39.0406 76.2839C39.2137 76.2136 39.3709 76.1088 39.5027 75.9758L75.1317 40.1254L79.0398 36.1926C80.7989 34.4161 81.7859 32.0101 81.7844 29.5022C81.7829 26.9944 80.793 24.5895 79.0318 22.8152V22.8152ZM70.7067 40.6063L61.3525 31.193L62.8142 29.722L72.1716 39.1354L70.7067 40.6063ZM37.6051 73.8501L21.8917 80.3167L28.1745 64.8561C28.6296 64.838 29.0825 64.9276 29.497 65.1175C29.9115 65.3075 30.2759 65.5926 30.561 65.95C30.8461 66.3073 31.044 66.727 31.1388 67.1753C31.2336 67.6236 31.2226 68.0879 31.1068 68.5312C31.0291 68.8287 31.051 69.1437 31.1689 69.4275C31.2869 69.7112 31.4944 69.948 31.7595 70.1013C32.0245 70.2546 32.3323 70.3157 32.6354 70.2754C32.9384 70.2351 33.2198 70.0954 33.4362 69.8781C37.9534 65.3331 42.2735 63.009 43.9133 62.728C43.4219 64.6416 40.4856 69.6596 37.6051 73.8501V73.8501ZM46.2117 60.6576C45.9697 60.4106 45.6795 60.2166 45.3594 60.0878C45.0393 59.959 44.6961 59.8982 44.3516 59.9093C41.9482 59.8989 37.7196 62.2703 33.6549 65.8421C33.3737 65.0646 32.93 64.3568 32.3538 63.7666C31.7776 63.1763 31.0822 62.7174 30.3147 62.4207L59.3849 33.1698L68.7424 42.5863L45.6789 65.7957C47.4158 61.9485 46.6094 61.0802 46.2117 60.6576V60.6576ZM74.14 37.1546L64.7826 27.738L67.7069 24.796C68.3212 24.1776 69.0505 23.6871 69.8532 23.3525C70.6559 23.0178 71.5163 22.8456 72.3852 22.8456C73.2541 22.8456 74.1144 23.0178 74.9171 23.3525C75.7198 23.6871 76.4492 24.1776 77.0635 24.796C77.2225 24.9561 77.3729 25.1241 77.5136 25.2962C77.5383 25.3274 77.559 25.3602 77.5836 25.3914C77.6973 25.5371 77.8087 25.6844 77.9089 25.8364C77.9168 25.8492 77.9224 25.862 77.9304 25.874C78.6265 26.9551 78.9969 28.2157 78.9969 29.5039C78.9969 30.7921 78.6265 32.0527 77.9304 33.1337C77.9224 33.1465 77.9168 33.1594 77.9089 33.1714C77.8087 33.3242 77.6973 33.4707 77.5836 33.6163C77.559 33.6475 77.5383 33.6812 77.5136 33.7116C77.3729 33.8844 77.2233 34.0517 77.0635 34.2126L74.14 37.1546Z" fill="#494337"/>
</svg>
