<svg width="100" height="100" viewBox="0 0 100 100" fill="none" xmlns="http://www.w3.org/2000/svg">
<g clip-path="url(#clip0)">
<path d="M49.5326 28.3983L25.2164 28.7499C25.2164 28.7499 22.4604 29.4064 21.757 31.5166C21.0536 33.6267 21.0664 41.1999 21.0664 41.1999L24.0669 43.8729H26.5935H27.9428H37.3884H46.1592C47.2387 43.8729 48.8579 44.8107 49.5326 45.2797L52.906 47.3898L54.93 45.2797L58.9781 43.8729H79.8932L81.9172 40.3559L85.9653 39.6526V31.9153L85.2906 29.8051L82.4483 28.3983H54.3127L51.4991 31.2119L49.5326 28.3983Z" fill="#BC7C7C"/>
<path d="M46.5768 44.5762L24.0684 43.8728V53.7203C25.9441 53.9547 29.9768 54.283 31.1023 53.7203C32.2277 53.1576 52.6729 53.9547 62.7548 54.4237L78.9328 53.0169V43.8728H57.8311L52.204 46.6864L50.0938 47.3898L46.5768 44.5762Z" fill="#E3E3E3"/>
<path d="M22.6616 41.0595L19.6835 40.5084C17.9954 40.5084 14.8418 40.5084 14.8418 43.9667L14.8421 46.7334C14.8421 46.7334 14.8414 51.1877 14.8421 55.0334C14.8423 56.4402 14.8184 57.7649 16.2251 59.8751C17.6319 61.9852 19.1448 62.1612 19.1448 62.1612H21.255H69.3108H88.077C89.2025 62.1612 90.1872 60.051 90.8906 58.6442V41.0595L89.4836 40.3561H85.2633L81.0429 41.0595L80.3396 42.4662V53.7205H23.365L22.6616 41.0595Z" fill="#81967A"/>
<path d="M21.2539 70.6018L23.3641 64.2713L28.9912 63.5679V64.9747L25.4742 69.8984L21.2539 70.6018Z" fill="#BC7C7C"/>
<path d="M81.9453 71.2167L78.9909 63.939L73.3048 63.7417L73.4954 65.4122L77.6568 70.8599L81.9453 71.2167Z" fill="#BC7C7C"/>
<mask id="path-6-outside-1" maskUnits="userSpaceOnUse" x="9" y="25.3013" width="85" height="48" fill="black">
<rect fill="white" x="9" y="25.3013" width="85" height="48"/>
<path d="M88.8865 39.0003H87.2375V32.8717C87.2375 29.2487 84.29 26.3013 80.667 26.3013H56.8546C54.6472 26.3013 52.692 27.3966 51.5 29.0711C50.308 27.3965 48.3528 26.3013 46.1454 26.3013H31.1856C30.5141 26.3013 29.9698 26.8456 29.9698 27.5171C29.9698 28.1885 30.5141 28.7329 31.1856 28.7329H46.1454C48.4275 28.7329 50.2842 30.5895 50.2842 32.8717V45.0315C50.2587 45.0071 50.2318 44.9842 50.206 44.9601C48.7649 43.6163 46.8116 42.8418 44.8401 42.8418H24.5881C24.4809 41.2093 23.368 39.7735 21.8324 39.2292C21.3997 39.0758 20.9422 39.0003 20.4833 39.0003H18.1941V32.8717C18.1941 30.5895 20.0508 28.7329 22.333 28.7329H35.2667C35.9381 28.7329 35.6064 28.0971 35.6064 27.4257C35.6064 26.7542 33.3692 26.3013 32.6978 26.3013H22.333C18.71 26.3013 15.7625 29.2487 15.7625 32.8717V39.0003H14.1135C11.8453 39.0003 10 40.8459 10 43.1138V55.8087C10 60.5323 13.843 64.3752 18.5665 64.3752H19.1775L17.8453 67.9587C17.0054 70.2175 18.7341 72.6989 21.1402 72.6989H23.0962C24.1911 72.6989 25.2391 72.1776 25.8997 71.3043L31.1408 64.3752H71.8595L77.1006 71.3044C77.7612 72.1776 78.8093 72.6989 79.904 72.6989H81.8598C84.2688 72.6989 85.9944 70.217 85.1547 67.9587L83.8223 64.3752H84.4335C89.157 64.3752 93 60.5323 93 55.8087V43.1138C93 40.8459 91.1547 39.0003 88.8865 39.0003ZM52.7158 32.872C52.7158 30.5897 54.5725 28.7331 56.8546 28.7331H80.667C82.9492 28.7331 84.8059 30.5897 84.8059 32.8719V39.0004H82.5165C80.9 39.0004 79.3493 40.0379 78.7222 41.5264C78.5466 41.9432 78.4414 42.3909 78.4119 42.8421H58.1599C56.1579 42.8421 54.1625 43.6476 52.7158 45.0319V32.872ZM24.597 45.2736H44.8401C47.842 45.2737 50.2842 47.7159 50.2842 50.7179V52.4468H24.597V45.2736ZM23.9604 69.8374C23.7568 70.1066 23.4335 70.2673 23.096 70.2673C23.096 70.2673 21.1468 70.2673 21.14 70.2673C20.3956 70.2673 19.865 69.5036 20.1244 68.8062L21.7717 64.3752H28.0917L23.9604 69.8374ZM81.8598 70.2671H79.904C79.5665 70.2671 79.2434 70.1065 79.0398 69.8374L74.9083 64.3752H81.2283C81.2283 64.3752 82.8699 68.7906 82.8756 68.806C83.1355 69.505 82.6012 70.2671 81.8598 70.2671ZM84.4335 61.9436H18.5665C15.1838 61.9438 12.4316 59.1915 12.4316 55.8087V43.1138C12.4316 42.1864 13.1861 41.4319 14.1135 41.4319H20.4833C21.4107 41.4319 22.1652 42.1864 22.1652 43.1138V53.6624C22.1652 54.3339 22.7095 54.8782 23.381 54.8782H68.0384C68.7099 54.8782 80.3154 54.334 80.3154 53.6626C80.3154 52.9911 74.0536 52.4468 73.3821 52.4468L52.7158 52.4466V50.7177C52.7158 47.7157 55.158 45.2736 58.1599 45.2736H78.403V52.4468H72.9017C72.2302 52.4468 46.2021 53.2436 46.2021 53.915C46.2021 54.5865 67.4907 54.8759 68.1622 54.8759L79.6188 54.8784C80.2903 54.8784 80.8347 54.334 80.8347 53.6626V43.114C80.8347 42.1865 81.5891 41.4321 82.5165 41.4321H88.8863C89.8137 41.4321 90.5682 42.1865 90.5682 43.114V55.8087C90.5682 59.1915 87.8162 61.9436 84.4335 61.9436Z"/>
</mask>
<path d="M88.8865 39.0003H87.2375V32.8717C87.2375 29.2487 84.29 26.3013 80.667 26.3013H56.8546C54.6472 26.3013 52.692 27.3966 51.5 29.0711C50.308 27.3965 48.3528 26.3013 46.1454 26.3013H31.1856C30.5141 26.3013 29.9698 26.8456 29.9698 27.5171C29.9698 28.1885 30.5141 28.7329 31.1856 28.7329H46.1454C48.4275 28.7329 50.2842 30.5895 50.2842 32.8717V45.0315C50.2587 45.0071 50.2318 44.9842 50.206 44.9601C48.7649 43.6163 46.8116 42.8418 44.8401 42.8418H24.5881C24.4809 41.2093 23.368 39.7735 21.8324 39.2292C21.3997 39.0758 20.9422 39.0003 20.4833 39.0003H18.1941V32.8717C18.1941 30.5895 20.0508 28.7329 22.333 28.7329H35.2667C35.9381 28.7329 35.6064 28.0971 35.6064 27.4257C35.6064 26.7542 33.3692 26.3013 32.6978 26.3013H22.333C18.71 26.3013 15.7625 29.2487 15.7625 32.8717V39.0003H14.1135C11.8453 39.0003 10 40.8459 10 43.1138V55.8087C10 60.5323 13.843 64.3752 18.5665 64.3752H19.1775L17.8453 67.9587C17.0054 70.2175 18.7341 72.6989 21.1402 72.6989H23.0962C24.1911 72.6989 25.2391 72.1776 25.8997 71.3043L31.1408 64.3752H71.8595L77.1006 71.3044C77.7612 72.1776 78.8093 72.6989 79.904 72.6989H81.8598C84.2688 72.6989 85.9944 70.217 85.1547 67.9587L83.8223 64.3752H84.4335C89.157 64.3752 93 60.5323 93 55.8087V43.1138C93 40.8459 91.1547 39.0003 88.8865 39.0003ZM52.7158 32.872C52.7158 30.5897 54.5725 28.7331 56.8546 28.7331H80.667C82.9492 28.7331 84.8059 30.5897 84.8059 32.8719V39.0004H82.5165C80.9 39.0004 79.3493 40.0379 78.7222 41.5264C78.5466 41.9432 78.4414 42.3909 78.4119 42.8421H58.1599C56.1579 42.8421 54.1625 43.6476 52.7158 45.0319V32.872ZM24.597 45.2736H44.8401C47.842 45.2737 50.2842 47.7159 50.2842 50.7179V52.4468H24.597V45.2736ZM23.9604 69.8374C23.7568 70.1066 23.4335 70.2673 23.096 70.2673C23.096 70.2673 21.1468 70.2673 21.14 70.2673C20.3956 70.2673 19.865 69.5036 20.1244 68.8062L21.7717 64.3752H28.0917L23.9604 69.8374ZM81.8598 70.2671H79.904C79.5665 70.2671 79.2434 70.1065 79.0398 69.8374L74.9083 64.3752H81.2283C81.2283 64.3752 82.8699 68.7906 82.8756 68.806C83.1355 69.505 82.6012 70.2671 81.8598 70.2671ZM84.4335 61.9436H18.5665C15.1838 61.9438 12.4316 59.1915 12.4316 55.8087V43.1138C12.4316 42.1864 13.1861 41.4319 14.1135 41.4319H20.4833C21.4107 41.4319 22.1652 42.1864 22.1652 43.1138V53.6624C22.1652 54.3339 22.7095 54.8782 23.381 54.8782H68.0384C68.7099 54.8782 80.3154 54.334 80.3154 53.6626C80.3154 52.9911 74.0536 52.4468 73.3821 52.4468L52.7158 52.4466V50.7177C52.7158 47.7157 55.158 45.2736 58.1599 45.2736H78.403V52.4468H72.9017C72.2302 52.4468 46.2021 53.2436 46.2021 53.915C46.2021 54.5865 67.4907 54.8759 68.1622 54.8759L79.6188 54.8784C80.2903 54.8784 80.8347 54.334 80.8347 53.6626V43.114C80.8347 42.1865 81.5891 41.4321 82.5165 41.4321H88.8863C89.8137 41.4321 90.5682 42.1865 90.5682 43.114V55.8087C90.5682 59.1915 87.8162 61.9436 84.4335 61.9436Z" fill="#494337"/>
<path d="M88.8865 39.0003H87.2375V32.8717C87.2375 29.2487 84.29 26.3013 80.667 26.3013H56.8546C54.6472 26.3013 52.692 27.3966 51.5 29.0711C50.308 27.3965 48.3528 26.3013 46.1454 26.3013H31.1856C30.5141 26.3013 29.9698 26.8456 29.9698 27.5171C29.9698 28.1885 30.5141 28.7329 31.1856 28.7329H46.1454C48.4275 28.7329 50.2842 30.5895 50.2842 32.8717V45.0315C50.2587 45.0071 50.2318 44.9842 50.206 44.9601C48.7649 43.6163 46.8116 42.8418 44.8401 42.8418H24.5881C24.4809 41.2093 23.368 39.7735 21.8324 39.2292C21.3997 39.0758 20.9422 39.0003 20.4833 39.0003H18.1941V32.8717C18.1941 30.5895 20.0508 28.7329 22.333 28.7329H35.2667C35.9381 28.7329 35.6064 28.0971 35.6064 27.4257C35.6064 26.7542 33.3692 26.3013 32.6978 26.3013H22.333C18.71 26.3013 15.7625 29.2487 15.7625 32.8717V39.0003H14.1135C11.8453 39.0003 10 40.8459 10 43.1138V55.8087C10 60.5323 13.843 64.3752 18.5665 64.3752H19.1775L17.8453 67.9587C17.0054 70.2175 18.7341 72.6989 21.1402 72.6989H23.0962C24.1911 72.6989 25.2391 72.1776 25.8997 71.3043L31.1408 64.3752H71.8595L77.1006 71.3044C77.7612 72.1776 78.8093 72.6989 79.904 72.6989H81.8598C84.2688 72.6989 85.9944 70.217 85.1547 67.9587L83.8223 64.3752H84.4335C89.157 64.3752 93 60.5323 93 55.8087V43.1138C93 40.8459 91.1547 39.0003 88.8865 39.0003ZM52.7158 32.872C52.7158 30.5897 54.5725 28.7331 56.8546 28.7331H80.667C82.9492 28.7331 84.8059 30.5897 84.8059 32.8719V39.0004H82.5165C80.9 39.0004 79.3493 40.0379 78.7222 41.5264C78.5466 41.9432 78.4414 42.3909 78.4119 42.8421H58.1599C56.1579 42.8421 54.1625 43.6476 52.7158 45.0319V32.872ZM24.597 45.2736H44.8401C47.842 45.2737 50.2842 47.7159 50.2842 50.7179V52.4468H24.597V45.2736ZM23.9604 69.8374C23.7568 70.1066 23.4335 70.2673 23.096 70.2673C23.096 70.2673 21.1468 70.2673 21.14 70.2673C20.3956 70.2673 19.865 69.5036 20.1244 68.8062L21.7717 64.3752H28.0917L23.9604 69.8374ZM81.8598 70.2671H79.904C79.5665 70.2671 79.2434 70.1065 79.0398 69.8374L74.9083 64.3752H81.2283C81.2283 64.3752 82.8699 68.7906 82.8756 68.806C83.1355 69.505 82.6012 70.2671 81.8598 70.2671ZM84.4335 61.9436H18.5665C15.1838 61.9438 12.4316 59.1915 12.4316 55.8087V43.1138C12.4316 42.1864 13.1861 41.4319 14.1135 41.4319H20.4833C21.4107 41.4319 22.1652 42.1864 22.1652 43.1138V53.6624C22.1652 54.3339 22.7095 54.8782 23.381 54.8782H68.0384C68.7099 54.8782 80.3154 54.334 80.3154 53.6626C80.3154 52.9911 74.0536 52.4468 73.3821 52.4468L52.7158 52.4466V50.7177C52.7158 47.7157 55.158 45.2736 58.1599 45.2736H78.403V52.4468H72.9017C72.2302 52.4468 46.2021 53.2436 46.2021 53.915C46.2021 54.5865 67.4907 54.8759 68.1622 54.8759L79.6188 54.8784C80.2903 54.8784 80.8347 54.334 80.8347 53.6626V43.114C80.8347 42.1865 81.5891 41.4321 82.5165 41.4321H88.8863C89.8137 41.4321 90.5682 42.1865 90.5682 43.114V55.8087C90.5682 59.1915 87.8162 61.9436 84.4335 61.9436Z" stroke="#494337" stroke-width="0.2" mask="url(#path-6-outside-1)"/>
</g>
<defs>
<clipPath id="clip0">
<rect width="83" height="83" fill="white" transform="translate(10 8)"/>
</clipPath>
</defs>
</svg>
