<svg width="48" height="48" viewBox="0 0 48 48" fill="none" xmlns="http://www.w3.org/2000/svg">
<g filter="url(#filter0_d)">
<rect x="4" y="1" width="39.9976" height="39.9976" rx="7" fill="white"/>
<g clip-path="url(#clip0)">
<path d="M38.1385 1H9.85902C6.62862 1 4 3.62862 4 6.85902V35.1385C4 38.3689 6.62862 40.9976 9.85902 40.9976H38.1385C41.3689 40.9976 43.9976 38.3689 43.9976 35.1385V6.85902C43.9976 3.62862 41.3689 1 38.1385 1ZM24.0769 31.4669C18.2615 31.4669 13.5307 26.736 13.5307 20.9207C13.5307 15.1053 18.2615 10.3744 24.0769 10.3744C29.8923 10.3744 34.6231 15.1053 34.6231 20.9207C34.6231 26.736 29.8923 31.4669 24.0769 31.4669ZM35.7949 12.718C33.8566 12.718 32.2795 11.141 32.2795 9.20262C32.2795 7.26427 33.8566 5.68721 35.7949 5.68721C37.7333 5.68721 39.3103 7.26427 39.3103 9.20262C39.3103 11.141 37.7333 12.718 35.7949 12.718Z" fill="#494337" fill-opacity="0.7"/>
<path d="M35.7968 8.03125C35.1502 8.03125 34.625 8.55643 34.625 9.20305C34.625 9.84968 35.1502 10.3749 35.7968 10.3749C36.4434 10.3749 36.9686 9.84968 36.9686 9.20305C36.9686 8.55643 36.4434 8.03125 35.7968 8.03125Z" fill="#494337" fill-opacity="0.7"/>
<path d="M24.0776 12.7183C19.5552 12.7183 15.875 16.3985 15.875 20.9209C15.875 25.4433 19.5552 29.1235 24.0776 29.1235C28.6001 29.1235 32.2802 25.4433 32.2802 20.9209C32.2802 16.3985 28.6001 12.7183 24.0776 12.7183Z" fill="#494337" fill-opacity="0.7"/>
</g>
</g>
<defs>
<filter id="filter0_d" x="0" y="0" width="47.9976" height="47.9976" filterUnits="userSpaceOnUse" color-interpolation-filters="sRGB">
<feFlood flood-opacity="0" result="BackgroundImageFix"/>
<feColorMatrix in="SourceAlpha" type="matrix" values="0 0 0 0 0 0 0 0 0 0 0 0 0 0 0 0 0 0 127 0"/>
<feOffset dy="3"/>
<feGaussianBlur stdDeviation="2"/>
<feColorMatrix type="matrix" values="0 0 0 0 0 0 0 0 0 0 0 0 0 0 0 0 0 0 0.3 0"/>
<feBlend mode="normal" in2="BackgroundImageFix" result="effect1_dropShadow"/>
<feBlend mode="normal" in="SourceGraphic" in2="effect1_dropShadow" result="shape"/>
</filter>
<clipPath id="clip0">
<rect width="39.9976" height="39.9976" fill="white" transform="translate(4 1)"/>
</clipPath>
</defs>
</svg>
