<svg width="48" height="48" viewBox="0 0 48 48" fill="none" xmlns="http://www.w3.org/2000/svg">
<g filter="url(#filter0_d)">
<rect x="3.99902" y="1.74219" width="39.9976" height="38.9976" rx="5" fill="white"/>
<mask id="mask0" mask-type="alpha" maskUnits="userSpaceOnUse" x="4" y="1" width="41" height="40">
<mask id="mask1" maskUnits="userSpaceOnUse" x="4" y="1" width="41" height="40">
<rect x="4.00684" y="1.74414" width="39.9976" height="38.9976" rx="5" fill="white"/>
</mask>
<g mask="url(#mask1)">
<path d="M41.8769 1.29492H6.13437C4.95912 1.29492 4.00684 2.24763 4.00684 3.42245V39.1649C4.00684 40.3398 4.95912 41.2925 6.13437 41.2925H41.8769C43.0521 41.2925 44.0044 40.3398 44.0044 39.1649V3.42245C44.0044 2.24763 43.0521 1.29492 41.8769 1.29492ZM35.864 23.8225C36.9542 24.8862 38.1069 25.8879 39.086 27.0636C39.5191 27.5827 39.9276 28.1188 40.2387 28.7226C40.6816 29.5838 40.2816 30.5297 39.5098 30.5804L34.7203 30.5791C33.4838 30.6808 32.4991 30.1829 31.6685 29.3375C31.0069 28.663 30.3916 27.9431 29.7538 27.2465C29.4938 26.9602 29.2181 26.6908 28.8921 26.4781C28.2394 26.0543 27.6722 26.1836 27.2973 26.8648C26.9161 27.5584 26.828 28.3277 26.7931 29.1009C26.7399 30.2306 26.3995 30.5255 25.2664 30.5778C22.8453 30.6918 20.5471 30.3242 18.4123 29.1043C16.5278 28.0278 15.0704 26.507 13.8007 24.7871C11.326 21.4328 9.43076 17.7509 7.72874 13.9635C7.34535 13.1104 7.62576 12.6538 8.56571 12.6364C10.1299 12.6053 11.6936 12.6095 13.2556 12.6347C13.8922 12.6444 14.313 13.0087 14.5568 13.6086C15.4015 15.6872 16.438 17.665 17.7358 19.4989C18.0817 19.987 18.4349 20.4742 18.937 20.8193C19.4918 21.2005 19.9148 21.075 20.1765 20.4559C20.3437 20.061 20.416 19.6415 20.4518 19.2194C20.576 17.7743 20.5909 16.3293 20.3765 14.8898C20.2424 13.9895 19.7352 13.4078 18.8374 13.2376C18.3804 13.1508 18.4472 12.9814 18.6693 12.7206C19.0548 12.2687 19.4182 11.9896 20.1399 11.9896L25.5528 11.9887C26.4063 12.1555 26.5961 12.5385 26.7123 13.3976L26.7174 19.4113C26.7084 19.744 26.8837 20.7295 27.4811 20.9473C27.959 21.1052 28.276 20.7218 28.5619 20.418C29.8589 19.0415 30.7831 17.4156 31.6115 15.7336C31.9762 14.992 32.2923 14.2235 32.5987 13.4546C32.8255 12.8857 33.1804 12.6057 33.822 12.6159L39.0328 12.6215C39.186 12.6215 39.343 12.6232 39.4949 12.6483C40.3723 12.7993 40.6127 13.1772 40.3416 14.0341C39.9144 15.38 39.0826 16.5016 38.269 17.6258C37.3997 18.8279 36.4717 19.9904 35.6087 21.1984C34.8181 22.3064 34.882 22.863 35.864 23.8225Z" fill="#C9C8C3"/>
</g>
</mask>
<g mask="url(#mask0)">
<rect x="4" y="1.29297" width="39.9976" height="39.9976" rx="3" fill="#494337" fill-opacity="0.7"/>
</g>
</g>
<defs>
<filter id="filter0_d" x="-0.000976562" y="0.742188" width="47.9985" height="46.9996" filterUnits="userSpaceOnUse" color-interpolation-filters="sRGB">
<feFlood flood-opacity="0" result="BackgroundImageFix"/>
<feColorMatrix in="SourceAlpha" type="matrix" values="0 0 0 0 0 0 0 0 0 0 0 0 0 0 0 0 0 0 127 0"/>
<feOffset dy="3"/>
<feGaussianBlur stdDeviation="2"/>
<feColorMatrix type="matrix" values="0 0 0 0 0 0 0 0 0 0 0 0 0 0 0 0 0 0 0.3 0"/>
<feBlend mode="normal" in2="BackgroundImageFix" result="effect1_dropShadow"/>
<feBlend mode="normal" in="SourceGraphic" in2="effect1_dropShadow" result="shape"/>
</filter>
</defs>
</svg>
